<?xml version="1.0" encoding="utf-8"?>
<!-- Generator: Adobe Illustrator 16.0.4, SVG Export Plug-In . SVG Version: 6.00 Build 0)  -->
<!DOCTYPE svg PUBLIC "-//W3C//DTD SVG 1.1//EN" "http://www.w3.org/Graphics/SVG/1.1/DTD/svg11.dtd">
<svg version="1.1" id="Layer_1" xmlns="http://www.w3.org/2000/svg" xmlns:xlink="http://www.w3.org/1999/xlink" x="0px" y="0px"
	 width="245px" height="100px" viewBox="0 0 245 100" enable-background="new 0 0 245 100" xml:space="preserve">
<g opacity="0.7">
	<path d="M197.479,1.597l-3.398,0.09c-1.322,0.046-1.87,0.161-2.213,0.662c-0.228,0.342-0.341,0.616-0.387,0.798
		c-0.047,0.182-0.114,0.273-0.251,0.273c-0.16,0-0.206-0.114-0.206-0.365c0-0.365,0.434-2.44,0.479-2.623
		C191.571,0.137,191.641,0,191.777,0c0.184,0,0.411,0.229,0.981,0.274c0.661,0.067,1.528,0.114,2.28,0.114h9.032
		c0.729,0,1.23-0.068,1.572-0.114c0.343-0.068,0.525-0.114,0.617-0.114c0.158,0,0.182,0.137,0.182,0.479
		c0,0.479-0.068,2.053-0.068,2.646c-0.023,0.228-0.068,0.364-0.205,0.364c-0.183,0-0.229-0.114-0.252-0.456l-0.021-0.25
		c-0.046-0.593-0.661-1.232-2.691-1.277l-2.874-0.068v9.35c0,2.099,0,3.9,0.114,4.881c0.068,0.639,0.205,1.141,0.89,1.232
		c0.319,0.045,0.82,0.09,1.163,0.09c0.25,0,0.364,0.068,0.364,0.183c0,0.159-0.183,0.228-0.434,0.228
		c-1.505,0-2.942-0.069-3.58-0.069c-0.524,0-1.962,0.069-2.874,0.069c-0.296,0-0.455-0.069-0.455-0.228
		c0-0.115,0.091-0.183,0.364-0.183c0.343,0,0.617-0.045,0.821-0.09c0.456-0.092,0.593-0.594,0.661-1.255
		c0.114-0.958,0.114-2.759,0.114-4.858V1.597z"/arthistory/>
	<path d="M222.342,7.572c0.067,0,0.137-0.045,0.137-0.159V6.934c0-3.466,0-4.105-0.046-4.834c-0.045-0.776-0.228-1.141-0.98-1.301
		c-0.184-0.045-0.57-0.068-0.89-0.068c-0.251,0-0.388-0.045-0.388-0.205c0-0.16,0.16-0.205,0.479-0.205
		c1.232,0,2.669,0.068,3.285,0.068c0.547,0,1.984-0.068,2.873-0.068c0.319,0,0.479,0.045,0.479,0.205c0,0.16-0.137,0.205-0.41,0.205
		c-0.183,0-0.389,0.023-0.662,0.068c-0.616,0.114-0.798,0.502-0.843,1.301c-0.046,0.729-0.046,1.369-0.046,4.834v4.014
		c0,2.099,0,3.9,0.113,4.881c0.067,0.639,0.204,1.141,0.89,1.232c0.318,0.045,0.821,0.09,1.162,0.09
		c0.252,0,0.366,0.068,0.366,0.183c0,0.159-0.183,0.228-0.456,0.228c-1.482,0-2.92-0.069-3.559-0.069
		c-0.524,0-1.961,0.069-2.85,0.069c-0.319,0-0.48-0.069-0.48-0.228c0-0.115,0.092-0.183,0.365-0.183c0.343,0,0.616-0.045,0.82-0.09
		c0.458-0.092,0.57-0.594,0.662-1.255c0.114-0.958,0.114-2.759,0.114-4.858V8.941c0-0.091-0.069-0.137-0.137-0.137h-8.713
		c-0.068,0-0.137,0.022-0.137,0.137v2.006c0,2.099,0,3.9,0.115,4.881c0.067,0.639,0.204,1.141,0.888,1.232
		c0.32,0.045,0.823,0.09,1.164,0.09c0.251,0,0.366,0.068,0.366,0.183c0,0.159-0.184,0.228-0.457,0.228
		c-1.483,0-2.921-0.069-3.559-0.069c-0.524,0-1.961,0.069-2.874,0.069c-0.297,0-0.455-0.069-0.455-0.228
		c0-0.115,0.091-0.183,0.365-0.183c0.341,0,0.616-0.045,0.82-0.09c0.456-0.092,0.57-0.594,0.662-1.255
		c0.114-0.958,0.114-2.759,0.114-4.858V6.934c0-3.466,0-4.105-0.047-4.834c-0.045-0.776-0.227-1.141-0.98-1.301
		c-0.183-0.045-0.569-0.068-0.89-0.068c-0.251,0-0.388-0.045-0.388-0.205c0-0.16,0.16-0.205,0.479-0.205
		c1.231,0,2.668,0.068,3.284,0.068c0.546,0,1.983-0.068,2.873-0.068c0.32,0,0.48,0.045,0.48,0.205c0,0.16-0.137,0.205-0.412,0.205
		c-0.182,0-0.388,0.023-0.661,0.068c-0.616,0.114-0.798,0.502-0.844,1.301c-0.046,0.729-0.046,1.369-0.046,4.834v0.479
		c0,0.114,0.068,0.159,0.137,0.159H222.342z"/arthistory/>
	<path d="M232.814,6.934c0-3.466,0-4.105-0.046-4.834c-0.047-0.776-0.229-1.141-0.98-1.301c-0.184-0.045-0.57-0.068-0.891-0.068
		c-0.25,0-0.387-0.045-0.387-0.205c0-0.16,0.159-0.205,0.501-0.205c0.616,0,1.277,0.022,1.848,0.022
		c0.593,0.023,1.118,0.046,1.437,0.046c0.73,0,5.27,0,5.703-0.023c0.433-0.045,0.797-0.091,0.98-0.137
		c0.113-0.022,0.25-0.092,0.364-0.092s0.137,0.092,0.137,0.205c0,0.16-0.114,0.435-0.182,1.482
		c-0.023,0.229-0.069,1.232-0.114,1.506c-0.023,0.115-0.068,0.251-0.229,0.251c-0.159,0-0.205-0.114-0.205-0.32
		c0-0.159-0.021-0.547-0.137-0.821c-0.159-0.41-0.388-0.685-1.528-0.822c-0.387-0.045-2.781-0.09-3.238-0.09
		c-0.113,0-0.159,0.068-0.159,0.227v5.771c0,0.16,0.022,0.25,0.159,0.25c0.503,0,3.125,0,3.649-0.045
		c0.548-0.045,0.89-0.113,1.095-0.342c0.159-0.183,0.252-0.297,0.364-0.297c0.092,0,0.161,0.045,0.161,0.182
		c0,0.138-0.093,0.502-0.184,1.666c-0.022,0.456-0.09,1.369-0.09,1.528c0,0.182,0,0.434-0.206,0.434
		c-0.16,0-0.205-0.092-0.205-0.205c-0.022-0.229-0.022-0.525-0.092-0.821c-0.114-0.457-0.434-0.799-1.277-0.89
		c-0.434-0.045-2.69-0.068-3.238-0.068c-0.114,0-0.137,0.091-0.137,0.228v1.801c0,0.775-0.022,2.875,0,3.535
		c0.046,1.574,0.41,1.916,2.737,1.916c0.592,0,1.551,0,2.144-0.273s0.867-0.752,1.026-1.688c0.045-0.25,0.091-0.342,0.249-0.342
		c0.184,0,0.184,0.182,0.184,0.411c0,0.524-0.184,2.075-0.296,2.531c-0.159,0.593-0.365,0.593-1.232,0.593
		c-1.71,0-2.965-0.046-3.945-0.068c-0.98-0.046-1.688-0.069-2.371-0.069c-0.252,0-0.754,0-1.301,0.023
		c-0.523,0-1.117,0.046-1.574,0.046c-0.296,0-0.456-0.069-0.456-0.228c0-0.115,0.093-0.183,0.366-0.183
		c0.341,0,0.615-0.045,0.82-0.09c0.457-0.092,0.57-0.594,0.661-1.255c0.115-0.958,0.115-2.759,0.115-4.858V6.934z"/arthistory/>
	<path d="M2.563,34.307c0-3.467,0-4.105-0.046-4.834c-0.046-0.776-0.228-1.141-0.98-1.3c-0.183-0.045-0.57-0.069-0.89-0.069
		c-0.25,0-0.387-0.045-0.387-0.204c0-0.16,0.159-0.205,0.501-0.205c0.616,0,1.277,0.021,1.848,0.021
		c0.593,0.024,1.118,0.046,1.437,0.046c0.729,0,5.268,0,5.702-0.022c0.433-0.045,0.798-0.092,0.98-0.138
		c0.114-0.022,0.251-0.09,0.365-0.09c0.114,0,0.137,0.09,0.137,0.204c0,0.16-0.114,0.434-0.182,1.483
		c-0.023,0.228-0.069,1.231-0.115,1.506c-0.022,0.113-0.069,0.25-0.229,0.25S10.5,30.84,10.5,30.635
		c0-0.159-0.023-0.546-0.137-0.821c-0.159-0.411-0.388-0.684-1.528-0.822c-0.388-0.044-2.782-0.09-3.239-0.09
		c-0.113,0-0.16,0.068-0.16,0.228v5.769c0,0.161,0.022,0.252,0.16,0.252c0.502,0,3.125,0,3.648-0.046
		c0.547-0.045,0.891-0.114,1.095-0.342c0.16-0.183,0.251-0.296,0.365-0.296c0.091,0,0.16,0.045,0.16,0.182s-0.091,0.502-0.182,1.665
		c-0.023,0.457-0.091,1.369-0.091,1.528c0,0.183,0,0.434-0.206,0.434c-0.16,0-0.206-0.092-0.206-0.205
		c-0.022-0.229-0.022-0.526-0.091-0.821c-0.114-0.457-0.433-0.798-1.278-0.89c-0.433-0.045-2.69-0.068-3.238-0.068
		c-0.114,0-0.136,0.091-0.136,0.228v1.801c0,0.776-0.023,2.875,0,3.536c0.046,1.573,0.411,1.915,2.737,1.915
		c0.593,0,1.551,0,2.144-0.273s0.867-0.753,1.026-1.688c0.045-0.25,0.091-0.342,0.251-0.342c0.182,0,0.182,0.182,0.182,0.411
		c0,0.524-0.182,2.076-0.296,2.532c-0.16,0.592-0.366,0.592-1.233,0.592c-1.709,0-2.964-0.046-3.945-0.068
		c-0.98-0.046-1.687-0.068-2.372-0.068c-0.251,0-0.752,0-1.3,0.022c-0.524,0-1.118,0.046-1.574,0.046
		c-0.296,0-0.456-0.068-0.456-0.228c0-0.115,0.092-0.183,0.366-0.183c0.341,0,0.616-0.045,0.82-0.091
		c0.456-0.09,0.571-0.592,0.662-1.255c0.115-0.958,0.115-2.759,0.115-4.858V34.307z"/arthistory/>
	<path d="M16.979,34.307c0-3.467,0-4.105-0.046-4.834c-0.044-0.776-0.227-1.141-0.98-1.3c-0.183-0.045-0.57-0.069-0.889-0.069
		c-0.251,0-0.388-0.045-0.388-0.204c0-0.16,0.16-0.205,0.502-0.205c1.209,0,2.645,0.067,3.284,0.067
		c0.708,0,2.144-0.067,3.513-0.067c2.85,0,6.659,0,9.146,2.599c1.14,1.187,2.212,3.08,2.212,5.794c0,2.872-1.209,5.062-2.486,6.363
		c-1.05,1.071-3.421,2.69-7.641,2.69c-0.821,0-1.756-0.068-2.623-0.137s-1.665-0.137-2.235-0.137c-0.251,0-0.752,0-1.3,0.022
		c-0.523,0-1.118,0.046-1.573,0.046c-0.296,0-0.457-0.068-0.457-0.228c0-0.115,0.092-0.183,0.365-0.183
		c0.343,0,0.616-0.045,0.821-0.091c0.456-0.09,0.57-0.592,0.662-1.255c0.114-0.958,0.114-2.759,0.114-4.858V34.307z M19.83,36.816
		c0,2.417,0.022,4.174,0.045,4.607c0.024,0.569,0.068,1.481,0.251,1.734c0.297,0.432,1.186,0.912,2.989,0.912
		c2.326,0,3.876-0.458,5.245-1.644c1.46-1.255,1.916-3.329,1.916-5.679c0-2.895-1.209-4.766-2.189-5.701
		c-2.099-2.006-4.698-2.28-6.478-2.28c-0.457,0-1.3,0.068-1.482,0.159c-0.205,0.09-0.274,0.205-0.274,0.456
		c-0.022,0.775-0.022,2.76-0.022,4.562V36.816z"/arthistory/>
	<path d="M38.102,34.307c0-3.467,0-4.105-0.046-4.834c-0.045-0.776-0.273-1.165-0.775-1.278c-0.251-0.067-0.548-0.092-0.821-0.092
		c-0.228,0-0.365-0.045-0.365-0.228c0-0.136,0.182-0.181,0.547-0.181c0.867,0,2.303,0.067,2.965,0.067
		c0.57,0,1.915-0.067,2.782-0.067c0.296,0,0.479,0.045,0.479,0.181c0,0.183-0.137,0.228-0.365,0.228s-0.41,0.024-0.684,0.069
		c-0.616,0.114-0.798,0.501-0.844,1.3c-0.045,0.729-0.045,1.367-0.045,4.834v4.014c0,2.213,0,4.015,0.091,4.996
		c0.068,0.616,0.228,1.027,0.912,1.117c0.319,0.045,0.822,0.091,1.163,0.091c0.251,0,0.365,0.068,0.365,0.183
		c0,0.16-0.183,0.228-0.434,0.228c-1.505,0-2.941-0.068-3.557-0.068c-0.525,0-1.961,0.068-2.875,0.068
		c-0.296,0-0.456-0.068-0.456-0.228c0-0.115,0.092-0.183,0.365-0.183c0.342,0,0.616-0.045,0.821-0.091
		c0.456-0.09,0.592-0.479,0.662-1.14c0.114-0.958,0.114-2.76,0.114-4.973V34.307z"/arthistory/>
	<path d="M51.444,28.97l-3.397,0.09c-1.323,0.046-1.871,0.161-2.212,0.662c-0.228,0.343-0.342,0.617-0.389,0.799
		c-0.045,0.183-0.113,0.273-0.25,0.273c-0.16,0-0.205-0.114-0.205-0.365c0-0.364,0.433-2.44,0.478-2.623
		c0.069-0.296,0.138-0.433,0.274-0.433c0.184,0,0.411,0.227,0.981,0.273c0.662,0.067,1.529,0.114,2.281,0.114h9.032
		c0.729,0,1.231-0.067,1.573-0.114c0.343-0.068,0.525-0.115,0.616-0.115c0.16,0,0.183,0.137,0.183,0.48
		c0,0.479-0.069,2.053-0.069,2.646c-0.022,0.228-0.068,0.364-0.205,0.364c-0.182,0-0.229-0.115-0.251-0.457l-0.023-0.251
		c-0.045-0.593-0.661-1.23-2.691-1.275l-2.874-0.069v9.35c0,2.099,0,3.9,0.114,4.882c0.068,0.639,0.205,1.141,0.889,1.231
		c0.319,0.045,0.82,0.091,1.163,0.091c0.25,0,0.364,0.068,0.364,0.183c0,0.16-0.182,0.228-0.433,0.228
		c-1.505,0-2.941-0.068-3.58-0.068c-0.525,0-1.962,0.068-2.874,0.068c-0.296,0-0.456-0.068-0.456-0.228
		c0-0.115,0.091-0.183,0.365-0.183c0.342,0,0.616-0.045,0.821-0.091c0.456-0.09,0.593-0.592,0.662-1.255
		c0.113-0.958,0.113-2.759,0.113-4.858V28.97z"/arthistory/>
	<path d="M76.308,34.946c0.068,0,0.137-0.047,0.137-0.16v-0.479c0-3.467,0-4.105-0.046-4.834c-0.045-0.776-0.228-1.141-0.98-1.3
		c-0.183-0.045-0.569-0.069-0.889-0.069c-0.251,0-0.388-0.045-0.388-0.204c0-0.16,0.16-0.205,0.479-0.205
		c1.232,0,2.668,0.067,3.285,0.067c0.547,0,1.983-0.067,2.873-0.067c0.32,0,0.479,0.045,0.479,0.205c0,0.159-0.137,0.204-0.41,0.204
		c-0.183,0-0.388,0.024-0.662,0.069c-0.616,0.114-0.798,0.501-0.843,1.3c-0.046,0.729-0.046,1.367-0.046,4.834v4.014
		c0,2.099,0,3.9,0.114,4.882c0.069,0.639,0.206,1.141,0.89,1.231c0.319,0.045,0.821,0.091,1.164,0.091
		c0.25,0,0.365,0.068,0.365,0.183c0,0.16-0.184,0.228-0.458,0.228c-1.482,0-2.918-0.068-3.557-0.068
		c-0.524,0-1.961,0.068-2.85,0.068c-0.32,0-0.479-0.068-0.479-0.228c0-0.115,0.091-0.183,0.366-0.183
		c0.341,0,0.615-0.045,0.819-0.091c0.457-0.09,0.571-0.592,0.663-1.255c0.114-0.958,0.114-2.759,0.114-4.858v-2.006
		c0-0.09-0.069-0.136-0.137-0.136h-8.712c-0.068,0-0.137,0.021-0.137,0.136v2.006c0,2.099,0,3.9,0.114,4.882
		c0.068,0.639,0.206,1.141,0.89,1.231c0.319,0.045,0.822,0.091,1.163,0.091c0.251,0,0.365,0.068,0.365,0.183
		c0,0.16-0.183,0.228-0.456,0.228c-1.482,0-2.919-0.068-3.558-0.068c-0.525,0-1.961,0.068-2.874,0.068
		c-0.297,0-0.456-0.068-0.456-0.228c0-0.115,0.092-0.183,0.365-0.183c0.342,0,0.616-0.045,0.821-0.091
		c0.455-0.09,0.57-0.592,0.662-1.255c0.114-0.958,0.114-2.759,0.114-4.858v-4.014c0-3.467,0-4.105-0.046-4.834
		c-0.045-0.776-0.228-1.141-0.979-1.3c-0.184-0.045-0.571-0.069-0.891-0.069c-0.25,0-0.387-0.045-0.387-0.204
		c0-0.16,0.16-0.205,0.479-0.205c1.232,0,2.668,0.067,3.285,0.067c0.546,0,1.984-0.067,2.873-0.067c0.32,0,0.479,0.045,0.479,0.205
		c0,0.159-0.136,0.204-0.41,0.204c-0.182,0-0.388,0.024-0.662,0.069c-0.615,0.114-0.798,0.501-0.844,1.3
		c-0.045,0.729-0.045,1.367-0.045,4.834v0.479c0,0.113,0.069,0.16,0.137,0.16H76.308z"/arthistory/>
	<path d="M91.137,36.314c0-3.9,2.577-8.94,9.419-8.94c5.679,0,9.213,3.307,9.213,8.53c0,5.223-3.648,9.351-9.441,9.351
		C93.782,45.255,91.137,40.351,91.137,36.314z M106.576,36.747c0-5.107-2.941-8.279-6.681-8.279c-2.623,0-5.611,1.46-5.611,7.14
		c0,4.744,2.623,8.507,7.002,8.507C102.883,44.114,106.576,43.338,106.576,36.747z"/arthistory/>
	<path d="M112.465,26.758c-0.229-0.229-0.25-0.296-0.25-0.411c0-0.068,0.136-0.182,0.25-0.182c0.456,0,1.459,0.297,1.893,0.434
		c0.571,0.16,0.662,0.319,0.662,0.662c0,1.391-1.483,3.831-2.509,4.88c-0.138,0.138-0.227,0.183-0.364,0.183
		c-0.069,0-0.137-0.045-0.137-0.138c0-0.045,0.022-0.113,0.114-0.296c0.411-0.798,0.89-2.143,0.89-3.558
		C113.013,27.579,112.67,26.963,112.465,26.758z"/arthistory/>
	<path d="M119.741,34.307c0-3.467,0-4.105-0.046-4.834c-0.045-0.776-0.228-1.141-0.98-1.3c-0.184-0.045-0.571-0.069-0.891-0.069
		c-0.25,0-0.387-0.045-0.387-0.204c0-0.16,0.16-0.205,0.501-0.205c1.21,0,2.645,0.067,3.284,0.067c0.708,0,2.144-0.067,3.512-0.067
		c2.852,0,6.66,0,9.146,2.599c1.141,1.187,2.214,3.08,2.214,5.794c0,2.872-1.21,5.062-2.486,6.363
		c-1.049,1.071-3.422,2.69-7.642,2.69c-0.819,0-1.755-0.068-2.623-0.137c-0.866-0.068-1.665-0.137-2.234-0.137
		c-0.251,0-0.752,0-1.3,0.022c-0.525,0-1.119,0.046-1.574,0.046c-0.297,0-0.456-0.068-0.456-0.228c0-0.115,0.091-0.183,0.364-0.183
		c0.343,0,0.616-0.045,0.821-0.091c0.456-0.09,0.57-0.592,0.662-1.255c0.114-0.958,0.114-2.759,0.114-4.858V34.307z M122.591,36.816
		c0,2.417,0.023,4.174,0.046,4.607c0.023,0.569,0.069,1.481,0.251,1.734c0.297,0.432,1.186,0.912,2.988,0.912
		c2.326,0,3.876-0.458,5.245-1.644c1.46-1.255,1.916-3.329,1.916-5.679c0-2.895-1.209-4.766-2.189-5.701
		c-2.098-2.006-4.699-2.28-6.478-2.28c-0.456,0-1.3,0.068-1.482,0.159c-0.205,0.09-0.274,0.205-0.274,0.456
		c-0.023,0.775-0.023,2.76-0.023,4.562V36.816z"/arthistory/>
	<path d="M138.606,36.314c0-3.9,2.577-8.94,9.419-8.94c5.679,0,9.214,3.307,9.214,8.53c0,5.223-3.649,9.351-9.442,9.351
		C141.252,45.255,138.606,40.351,138.606,36.314z M154.046,36.747c0-5.107-2.941-8.279-6.682-8.279c-2.622,0-5.61,1.46-5.61,7.14
		c0,4.744,2.622,8.507,7.001,8.507C150.352,44.114,154.046,43.338,154.046,36.747z"/arthistory/>
	<path d="M163.286,41.833c0.047,1.778,0.343,2.372,0.798,2.531c0.389,0.137,0.821,0.159,1.187,0.159
		c0.252,0,0.389,0.046,0.389,0.183c0,0.182-0.206,0.228-0.525,0.228c-1.482,0-2.395-0.068-2.828-0.068
		c-0.205,0-1.277,0.068-2.463,0.068c-0.297,0-0.502-0.023-0.502-0.228c0-0.137,0.137-0.183,0.366-0.183
		c0.295,0,0.706-0.022,1.024-0.113c0.594-0.183,0.687-0.845,0.707-2.828l0.206-13.435c0-0.455,0.069-0.774,0.296-0.774
		c0.252,0,0.456,0.296,0.844,0.707c0.274,0.296,3.74,3.945,7.07,7.251c1.551,1.553,4.63,4.836,5.018,5.201h0.114l-0.228-10.241
		c-0.023-1.391-0.229-1.825-0.775-2.052c-0.344-0.138-0.89-0.138-1.21-0.138c-0.272,0-0.365-0.068-0.365-0.204
		c0-0.184,0.253-0.205,0.594-0.205c1.187,0,2.281,0.067,2.761,0.067c0.25,0,1.115-0.067,2.234-0.067
		c0.296,0,0.524,0.021,0.524,0.205c0,0.136-0.137,0.204-0.41,0.204c-0.229,0-0.411,0-0.686,0.069
		c-0.638,0.182-0.819,0.661-0.843,1.938l-0.251,14.392c0,0.501-0.092,0.708-0.296,0.708c-0.251,0-0.525-0.252-0.776-0.503
		c-1.437-1.369-4.355-4.356-6.728-6.706c-2.486-2.463-5.018-5.246-5.428-5.678h-0.068L163.286,41.833z"/arthistory/>
	<path d="M184.889,41.833c0.046,1.778,0.343,2.372,0.798,2.531c0.387,0.137,0.82,0.159,1.187,0.159c0.25,0,0.387,0.046,0.387,0.183
		c0,0.182-0.205,0.228-0.523,0.228c-1.483,0-2.395-0.068-2.828-0.068c-0.206,0-1.277,0.068-2.464,0.068
		c-0.295,0-0.501-0.023-0.501-0.228c0-0.137,0.137-0.183,0.364-0.183c0.297,0,0.707-0.022,1.026-0.113
		c0.594-0.183,0.684-0.845,0.707-2.828l0.205-13.435c0-0.455,0.068-0.774,0.297-0.774c0.251,0,0.455,0.296,0.844,0.707
		c0.274,0.296,3.74,3.945,7.069,7.251c1.552,1.553,4.63,4.836,5.019,5.201h0.113l-0.227-10.241
		c-0.023-1.391-0.229-1.825-0.776-2.052c-0.342-0.138-0.89-0.138-1.209-0.138c-0.272,0-0.364-0.068-0.364-0.204
		c0-0.184,0.251-0.205,0.592-0.205c1.188,0,2.281,0.067,2.76,0.067c0.252,0,1.119-0.067,2.235-0.067
		c0.297,0,0.524,0.021,0.524,0.205c0,0.136-0.137,0.204-0.41,0.204c-0.229,0-0.41,0-0.684,0.069
		c-0.64,0.182-0.821,0.661-0.844,1.938l-0.251,14.392c0,0.501-0.092,0.708-0.296,0.708c-0.253,0-0.526-0.252-0.776-0.503
		c-1.438-1.369-4.356-4.356-6.729-6.706c-2.486-2.463-5.018-5.246-5.429-5.678h-0.067L184.889,41.833z"/arthistory/>
	<path d="M205.213,34.307c0-3.467,0-4.105-0.046-4.834c-0.044-0.776-0.228-1.141-0.98-1.3c-0.183-0.045-0.57-0.069-0.888-0.069
		c-0.252,0-0.39-0.045-0.39-0.204c0-0.16,0.16-0.205,0.502-0.205c0.615,0,1.278,0.021,1.848,0.021
		c0.593,0.024,1.118,0.046,1.436,0.046c0.73,0,5.27,0,5.703-0.022c0.434-0.045,0.798-0.092,0.98-0.138
		c0.113-0.022,0.25-0.09,0.364-0.09c0.115,0,0.138,0.09,0.138,0.204c0,0.16-0.114,0.434-0.183,1.483
		c-0.022,0.228-0.069,1.231-0.114,1.506c-0.022,0.113-0.068,0.25-0.229,0.25c-0.159,0-0.204-0.114-0.204-0.319
		c0-0.159-0.022-0.546-0.138-0.821c-0.159-0.411-0.388-0.684-1.527-0.822c-0.389-0.044-2.783-0.09-3.239-0.09
		c-0.113,0-0.16,0.068-0.16,0.228v5.769c0,0.161,0.023,0.252,0.16,0.252c0.502,0,3.124,0,3.648-0.046
		c0.549-0.045,0.89-0.114,1.096-0.342c0.16-0.183,0.251-0.296,0.364-0.296c0.092,0,0.16,0.045,0.16,0.182s-0.092,0.502-0.183,1.665
		c-0.022,0.457-0.091,1.369-0.091,1.528c0,0.183,0,0.434-0.206,0.434c-0.159,0-0.204-0.092-0.204-0.205
		c-0.023-0.229-0.023-0.526-0.093-0.821c-0.113-0.457-0.433-0.798-1.276-0.89c-0.435-0.045-2.691-0.068-3.238-0.068
		c-0.114,0-0.138,0.091-0.138,0.228v1.801c0,0.776-0.021,2.875,0,3.536c0.047,1.573,0.411,1.915,2.737,1.915
		c0.594,0,1.551,0,2.145-0.273c0.593-0.273,0.867-0.753,1.026-1.688c0.045-0.25,0.091-0.342,0.251-0.342
		c0.182,0,0.182,0.182,0.182,0.411c0,0.524-0.182,2.076-0.297,2.532c-0.158,0.592-0.364,0.592-1.231,0.592
		c-1.71,0-2.965-0.046-3.945-0.068c-0.98-0.046-1.688-0.068-2.372-0.068c-0.25,0-0.752,0-1.301,0.022
		c-0.523,0-1.117,0.046-1.572,0.046c-0.297,0-0.457-0.068-0.457-0.228c0-0.115,0.092-0.183,0.365-0.183
		c0.343,0,0.616-0.045,0.82-0.091c0.457-0.09,0.57-0.592,0.662-1.255c0.114-0.958,0.114-2.759,0.114-4.858V34.307z"/arthistory/>
	<path d="M222.479,38.32c0,2.92,0,4.494,0.479,4.904c0.387,0.342,0.98,0.501,2.758,0.501c1.21,0,2.101-0.023,2.671-0.638
		c0.273-0.296,0.546-0.936,0.593-1.369c0.022-0.205,0.067-0.342,0.25-0.342c0.159,0,0.183,0.115,0.183,0.388
		c0,0.251-0.159,1.961-0.342,2.623c-0.138,0.501-0.25,0.615-1.438,0.615c-1.641,0-2.828-0.046-3.854-0.068
		c-1.025-0.046-1.848-0.068-2.782-0.068c-0.25,0-0.753,0-1.3,0.022c-0.524,0-1.118,0.046-1.574,0.046
		c-0.296,0-0.456-0.068-0.456-0.228c0-0.115,0.092-0.183,0.365-0.183c0.342,0,0.616-0.045,0.821-0.091
		c0.456-0.09,0.57-0.592,0.662-1.255c0.114-0.958,0.114-2.759,0.114-4.858v-4.014c0-3.467,0-4.105-0.047-4.834
		c-0.045-0.776-0.228-1.141-0.98-1.3c-0.183-0.045-0.456-0.069-0.753-0.069c-0.251,0-0.388-0.045-0.388-0.204
		c0-0.16,0.16-0.205,0.502-0.205c1.072,0,2.509,0.067,3.125,0.067c0.546,0,2.213-0.067,3.101-0.067c0.32,0,0.479,0.045,0.479,0.205
		c0,0.159-0.137,0.204-0.41,0.204c-0.25,0-0.616,0.024-0.89,0.069c-0.615,0.114-0.798,0.501-0.844,1.3
		c-0.046,0.729-0.046,1.367-0.046,4.834V38.32z"/arthistory/>
	<path d="M236.28,38.32c0,2.92,0,4.494,0.478,4.904c0.39,0.342,0.982,0.501,2.761,0.501c1.21,0,2.099-0.023,2.67-0.638
		c0.272-0.296,0.546-0.936,0.592-1.369c0.023-0.205,0.067-0.342,0.251-0.342c0.159,0,0.183,0.115,0.183,0.388
		c0,0.251-0.16,1.961-0.343,2.623c-0.137,0.501-0.25,0.615-1.438,0.615c-1.642,0-2.828-0.046-3.853-0.068
		c-1.027-0.046-1.848-0.068-2.783-0.068c-0.251,0-0.752,0-1.3,0.022c-0.525,0-1.119,0.046-1.574,0.046
		c-0.296,0-0.456-0.068-0.456-0.228c0-0.115,0.091-0.183,0.365-0.183c0.342,0,0.615-0.045,0.82-0.091
		c0.456-0.09,0.57-0.592,0.662-1.255c0.113-0.958,0.113-2.759,0.113-4.858v-4.014c0-3.467,0-4.105-0.046-4.834
		c-0.044-0.776-0.228-1.141-0.979-1.3c-0.184-0.045-0.459-0.069-0.753-0.069c-0.252,0-0.389-0.045-0.389-0.204
		c0-0.16,0.16-0.205,0.502-0.205c1.072,0,2.509,0.067,3.125,0.067c0.547,0,2.212-0.067,3.102-0.067c0.318,0,0.478,0.045,0.478,0.205
		c0,0.159-0.137,0.204-0.41,0.204c-0.25,0-0.614,0.024-0.889,0.069c-0.616,0.114-0.798,0.501-0.846,1.3
		c-0.044,0.729-0.044,1.367-0.044,4.834V38.32z"/arthistory/>
	<path d="M67.345,61.68c0-3.466,0-4.104-0.046-4.835c-0.045-0.776-0.274-1.163-0.775-1.276c-0.251-0.069-0.548-0.092-0.822-0.092
		c-0.227,0-0.364-0.047-0.364-0.229c0-0.137,0.182-0.183,0.547-0.183c0.868,0,2.303,0.069,2.965,0.069
		c0.57,0,1.916-0.069,2.782-0.069c0.296,0,0.479,0.046,0.479,0.183c0,0.182-0.137,0.229-0.364,0.229
		c-0.228,0-0.411,0.022-0.684,0.068c-0.616,0.114-0.798,0.502-0.844,1.3c-0.046,0.73-0.046,1.369-0.046,4.835v4.014
		c0,2.213,0,4.014,0.092,4.995c0.068,0.616,0.228,1.026,0.912,1.117c0.319,0.046,0.821,0.091,1.164,0.091
		c0.251,0,0.364,0.068,0.364,0.184c0,0.159-0.182,0.229-0.434,0.229c-1.505,0-2.941-0.069-3.558-0.069
		c-0.525,0-1.96,0.069-2.874,0.069c-0.296,0-0.457-0.069-0.457-0.229c0-0.115,0.092-0.184,0.366-0.184
		c0.342,0,0.616-0.045,0.82-0.091c0.456-0.091,0.593-0.479,0.662-1.141c0.114-0.958,0.114-2.759,0.114-4.972V61.68z"/arthistory/>
	<path d="M78.932,69.205c0.047,1.779,0.343,2.373,0.799,2.533c0.387,0.137,0.82,0.158,1.186,0.158c0.251,0,0.388,0.047,0.388,0.184
		c0,0.183-0.206,0.229-0.525,0.229c-1.482,0-2.394-0.069-2.827-0.069c-0.206,0-1.278,0.069-2.463,0.069
		c-0.296,0-0.502-0.023-0.502-0.229c0-0.137,0.137-0.184,0.365-0.184c0.296,0,0.707-0.021,1.025-0.112
		c0.594-0.184,0.685-0.845,0.708-2.829l0.205-13.433c0-0.457,0.069-0.775,0.297-0.775c0.251,0,0.457,0.296,0.844,0.707
		c0.274,0.296,3.74,3.945,7.07,7.252c1.551,1.551,4.63,4.835,5.018,5.2h0.114l-0.228-10.239c-0.023-1.393-0.229-1.826-0.775-2.053
		c-0.343-0.138-0.889-0.138-1.209-0.138c-0.273,0-0.364-0.068-0.364-0.206c0-0.182,0.251-0.205,0.593-0.205
		c1.186,0,2.281,0.069,2.76,0.069c0.251,0,1.118-0.069,2.234-0.069c0.297,0,0.525,0.023,0.525,0.205
		c0,0.138-0.137,0.206-0.411,0.206c-0.229,0-0.411,0-0.685,0.068c-0.638,0.183-0.821,0.661-0.844,1.938l-0.25,14.392
		c0,0.502-0.091,0.707-0.296,0.707c-0.251,0-0.525-0.252-0.776-0.502c-1.437-1.369-4.355-4.356-6.728-6.705
		c-2.486-2.464-5.017-5.246-5.428-5.68h-0.068L78.932,69.205z"/arthistory/>
	<path d="M98.002,72.034c-0.364-0.159-0.433-0.274-0.433-0.775c0-1.255,0.091-2.622,0.114-2.986c0.022-0.344,0.09-0.595,0.273-0.595
		c0.205,0,0.228,0.206,0.228,0.389c0,0.296,0.091,0.775,0.205,1.163c0.502,1.688,1.847,2.303,3.262,2.303
		c2.052,0,3.055-1.392,3.055-2.6c0-1.118-0.341-2.167-2.235-3.649l-1.049-0.82c-2.509-1.962-3.375-3.558-3.375-5.405
		c0-2.51,2.098-4.311,5.268-4.311c1.483,0,2.441,0.228,3.033,0.388c0.206,0.046,0.319,0.113,0.319,0.273
		c0,0.296-0.091,0.958-0.091,2.736c0,0.503-0.069,0.684-0.251,0.684c-0.16,0-0.229-0.136-0.229-0.409
		c0-0.205-0.113-0.912-0.592-1.506c-0.343-0.433-1.003-1.117-2.487-1.117c-1.687,0-2.713,0.979-2.713,2.349
		c0,1.049,0.523,1.849,2.417,3.284l0.639,0.479c2.76,2.076,3.74,3.65,3.74,5.816c0,1.322-0.501,2.896-2.143,3.969
		c-1.141,0.729-2.419,0.935-3.626,0.935C100.01,72.627,98.983,72.467,98.002,72.034z"/arthistory/>
	<path d="M115.566,56.342l-3.398,0.092c-1.323,0.047-1.871,0.161-2.212,0.663c-0.229,0.341-0.342,0.615-0.388,0.797
		c-0.045,0.183-0.113,0.274-0.25,0.274c-0.16,0-0.206-0.114-0.206-0.365c0-0.365,0.433-2.44,0.479-2.622
		c0.069-0.298,0.137-0.434,0.273-0.434c0.183,0,0.411,0.228,0.981,0.273c0.662,0.068,1.528,0.114,2.281,0.114h9.032
		c0.729,0,1.23-0.069,1.573-0.114c0.342-0.068,0.523-0.113,0.616-0.113c0.159,0,0.182,0.136,0.182,0.478
		c0,0.479-0.068,2.053-0.068,2.646c-0.022,0.229-0.068,0.364-0.206,0.364c-0.182,0-0.228-0.113-0.25-0.454l-0.023-0.252
		c-0.044-0.592-0.66-1.231-2.69-1.277l-2.874-0.069v9.352c0,2.098,0,3.9,0.114,4.881c0.068,0.639,0.205,1.141,0.889,1.231
		c0.319,0.046,0.821,0.091,1.163,0.091c0.25,0,0.365,0.068,0.365,0.184c0,0.159-0.183,0.229-0.434,0.229
		c-1.504,0-2.942-0.069-3.58-0.069c-0.525,0-1.962,0.069-2.874,0.069c-0.297,0-0.457-0.069-0.457-0.229
		c0-0.115,0.092-0.184,0.364-0.184c0.344,0,0.617-0.045,0.822-0.091c0.456-0.091,0.592-0.593,0.662-1.254
		c0.113-0.958,0.113-2.761,0.113-4.858V56.342z"/arthistory/>
	<path d="M128.729,61.68c0-3.466,0-4.104-0.046-4.835c-0.045-0.776-0.274-1.163-0.774-1.276c-0.252-0.069-0.549-0.092-0.822-0.092
		c-0.229,0-0.365-0.047-0.365-0.229c0-0.137,0.184-0.183,0.549-0.183c0.866,0,2.303,0.069,2.965,0.069
		c0.57,0,1.916-0.069,2.782-0.069c0.297,0,0.479,0.046,0.479,0.183c0,0.182-0.138,0.229-0.364,0.229
		c-0.229,0-0.411,0.022-0.685,0.068c-0.616,0.114-0.798,0.502-0.844,1.3c-0.046,0.73-0.046,1.369-0.046,4.835v4.014
		c0,2.213,0,4.014,0.092,4.995c0.068,0.616,0.227,1.026,0.912,1.117c0.319,0.046,0.821,0.091,1.163,0.091
		c0.251,0,0.364,0.068,0.364,0.184c0,0.159-0.182,0.229-0.434,0.229c-1.504,0-2.941-0.069-3.558-0.069
		c-0.524,0-1.961,0.069-2.873,0.069c-0.297,0-0.456-0.069-0.456-0.229c0-0.115,0.09-0.184,0.365-0.184
		c0.342,0,0.615-0.045,0.819-0.091c0.456-0.091,0.594-0.479,0.663-1.141c0.113-0.958,0.113-2.759,0.113-4.972V61.68z"/arthistory/>
	<path d="M142.071,56.342l-3.398,0.092c-1.322,0.047-1.87,0.161-2.211,0.663c-0.229,0.341-0.344,0.615-0.388,0.797
		c-0.046,0.183-0.113,0.274-0.25,0.274c-0.162,0-0.206-0.114-0.206-0.365c0-0.365,0.432-2.44,0.478-2.622
		c0.069-0.298,0.137-0.434,0.274-0.434c0.183,0,0.41,0.228,0.98,0.273c0.662,0.068,1.528,0.114,2.282,0.114h9.03
		c0.73,0,1.232-0.069,1.573-0.114c0.343-0.068,0.525-0.113,0.616-0.113c0.16,0,0.183,0.136,0.183,0.478
		c0,0.479-0.069,2.053-0.069,2.646c-0.022,0.229-0.067,0.364-0.204,0.364c-0.183,0-0.229-0.113-0.252-0.454l-0.022-0.252
		c-0.045-0.592-0.66-1.231-2.69-1.277l-2.874-0.069v9.352c0,2.098,0,3.9,0.113,4.881c0.068,0.639,0.205,1.141,0.891,1.231
		c0.319,0.046,0.82,0.091,1.163,0.091c0.251,0,0.364,0.068,0.364,0.184c0,0.159-0.183,0.229-0.434,0.229
		c-1.504,0-2.941-0.069-3.579-0.069c-0.526,0-1.963,0.069-2.874,0.069c-0.297,0-0.457-0.069-0.457-0.229
		c0-0.115,0.093-0.184,0.364-0.184c0.343,0,0.616-0.045,0.822-0.091c0.456-0.091,0.593-0.593,0.661-1.254
		c0.113-0.958,0.113-2.761,0.113-4.858V56.342z"/arthistory/>
	<path d="M154.253,61.68c0-3.466,0-4.104-0.044-4.835c-0.047-0.776-0.229-1.141-0.981-1.3c-0.183-0.046-0.569-0.068-0.89-0.068
		c-0.251,0-0.388-0.047-0.388-0.206s0.159-0.205,0.501-0.205c1.209,0,2.646,0.069,3.329,0.069c0.549,0,1.985-0.069,2.808-0.069
		c0.341,0,0.501,0.046,0.501,0.205s-0.137,0.206-0.364,0.206c-0.252,0-0.39,0.022-0.663,0.068c-0.614,0.114-0.798,0.502-0.844,1.3
		c-0.044,0.73-0.044,1.369-0.044,4.835v3.193c0,3.307,0.66,4.697,1.778,5.61c1.026,0.843,2.074,0.935,2.851,0.935
		c1.004,0,2.235-0.319,3.147-1.231c1.255-1.254,1.322-3.307,1.322-5.655V61.68c0-3.466,0-4.104-0.045-4.835
		c-0.046-0.776-0.229-1.141-0.98-1.3c-0.183-0.046-0.571-0.068-0.821-0.068c-0.251,0-0.388-0.047-0.388-0.206
		s0.159-0.205,0.479-0.205c1.162,0,2.6,0.069,2.623,0.069c0.273,0,1.711-0.069,2.6-0.069c0.319,0,0.479,0.046,0.479,0.205
		s-0.137,0.206-0.41,0.206c-0.25,0-0.387,0.022-0.661,0.068c-0.616,0.114-0.799,0.502-0.844,1.3
		c-0.046,0.73-0.046,1.369-0.046,4.835v2.44c0,2.532-0.25,5.224-2.167,6.864c-1.618,1.393-3.26,1.643-4.742,1.643
		c-1.21,0-3.399-0.069-5.064-1.574c-1.163-1.049-2.03-2.735-2.03-6.043V61.68z"/arthistory/>
	<path d="M177.702,56.342l-3.397,0.092c-1.324,0.047-1.871,0.161-2.212,0.663c-0.229,0.341-0.343,0.615-0.389,0.797
		c-0.045,0.183-0.113,0.274-0.251,0.274c-0.159,0-0.204-0.114-0.204-0.365c0-0.365,0.433-2.44,0.478-2.622
		c0.069-0.298,0.137-0.434,0.273-0.434c0.183,0,0.411,0.228,0.98,0.273c0.663,0.068,1.53,0.114,2.282,0.114h9.031
		c0.73,0,1.231-0.069,1.573-0.114c0.343-0.068,0.524-0.113,0.616-0.113c0.16,0,0.184,0.136,0.184,0.478
		c0,0.479-0.069,2.053-0.069,2.646c-0.023,0.229-0.068,0.364-0.206,0.364c-0.182,0-0.228-0.113-0.251-0.454l-0.022-0.252
		c-0.045-0.592-0.661-1.231-2.69-1.277l-2.874-0.069v9.352c0,2.098,0,3.9,0.114,4.881c0.068,0.639,0.205,1.141,0.89,1.231
		c0.318,0.046,0.82,0.091,1.162,0.091c0.252,0,0.364,0.068,0.364,0.184c0,0.159-0.182,0.229-0.433,0.229
		c-1.505,0-2.941-0.069-3.58-0.069c-0.524,0-1.962,0.069-2.873,0.069c-0.297,0-0.457-0.069-0.457-0.229
		c0-0.115,0.092-0.184,0.364-0.184c0.343,0,0.616-0.045,0.821-0.091c0.456-0.091,0.593-0.593,0.662-1.254
		c0.113-0.958,0.113-2.761,0.113-4.858V56.342z"/arthistory/>
	<path d="M190.865,61.68c0-3.466,0-4.104-0.047-4.835c-0.044-0.776-0.228-1.141-0.979-1.3c-0.185-0.046-0.571-0.068-0.891-0.068
		c-0.25,0-0.388-0.047-0.388-0.206s0.16-0.205,0.502-0.205c0.614,0,1.277,0.023,1.848,0.023c0.592,0.022,1.117,0.046,1.437,0.046
		c0.73,0,5.269,0,5.701-0.023c0.434-0.046,0.797-0.091,0.981-0.137c0.112-0.022,0.249-0.092,0.365-0.092
		c0.113,0,0.136,0.092,0.136,0.206c0,0.159-0.114,0.434-0.183,1.482c-0.021,0.229-0.069,1.231-0.113,1.505
		c-0.023,0.114-0.067,0.251-0.229,0.251s-0.205-0.113-0.205-0.319c0-0.159-0.023-0.547-0.137-0.82
		c-0.16-0.412-0.388-0.686-1.527-0.821c-0.389-0.045-2.782-0.092-3.24-0.092c-0.113,0-0.158,0.067-0.158,0.228v5.771
		c0,0.16,0.021,0.252,0.158,0.252c0.502,0,3.125,0,3.65-0.046c0.547-0.046,0.888-0.114,1.094-0.343
		c0.16-0.183,0.252-0.296,0.365-0.296c0.092,0,0.161,0.046,0.161,0.182c0,0.138-0.093,0.503-0.184,1.665
		c-0.022,0.457-0.091,1.368-0.091,1.528c0,0.183,0,0.434-0.206,0.434c-0.159,0-0.205-0.091-0.205-0.205
		c-0.021-0.229-0.021-0.524-0.091-0.821c-0.114-0.456-0.434-0.798-1.277-0.89c-0.434-0.046-2.691-0.068-3.238-0.068
		c-0.116,0-0.137,0.09-0.137,0.229v1.8c0,0.775-0.023,2.874,0,3.536c0.045,1.573,0.41,1.915,2.736,1.915
		c0.593,0,1.552,0,2.144-0.273c0.593-0.273,0.866-0.752,1.026-1.687c0.046-0.252,0.091-0.343,0.251-0.343
		c0.183,0,0.183,0.183,0.183,0.41c0,0.524-0.183,2.074-0.297,2.532c-0.159,0.593-0.365,0.593-1.23,0.593
		c-1.711,0-2.965-0.047-3.947-0.068c-0.979-0.046-1.687-0.069-2.371-0.069c-0.251,0-0.752,0-1.3,0.023
		c-0.524,0-1.118,0.046-1.573,0.046c-0.297,0-0.457-0.069-0.457-0.229c0-0.115,0.092-0.184,0.365-0.184
		c0.342,0,0.615-0.045,0.82-0.091c0.457-0.091,0.57-0.593,0.662-1.254c0.114-0.958,0.114-2.761,0.114-4.858V61.68z"/arthistory/>
	<path d="M209.639,63.687c0-3.899,2.576-8.939,9.419-8.939c5.679,0,9.213,3.307,9.213,8.529s-3.648,9.351-9.44,9.351
		C212.283,72.627,209.639,67.724,209.639,63.687z M225.078,64.12c0-5.108-2.942-8.279-6.682-8.279c-2.623,0-5.611,1.46-5.611,7.139
		c0,4.744,2.623,8.507,7.002,8.507C221.384,71.486,225.078,70.711,225.078,64.12z"/arthistory/>
	<path d="M235.914,65.693c0,2.19,0,3.9,0.115,4.858c0.068,0.661,0.205,1.163,0.889,1.254c0.32,0.046,0.822,0.091,1.141,0.091
		c0.297,0,0.389,0.068,0.389,0.184c0,0.159-0.159,0.229-0.502,0.229c-1.438,0-2.874-0.069-3.468-0.069
		c-0.592,0-2.029,0.069-2.896,0.069c-0.32,0-0.48-0.046-0.48-0.229c0-0.115,0.093-0.184,0.344-0.184c0.342,0,0.616-0.045,0.82-0.091
		c0.455-0.091,0.57-0.593,0.662-1.254c0.114-0.958,0.114-2.668,0.114-4.858V61.68c0-3.466,0-4.104-0.046-4.835
		c-0.046-0.776-0.228-1.141-0.981-1.3c-0.183-0.046-0.569-0.068-0.89-0.068c-0.228,0-0.387-0.047-0.387-0.183
		c0-0.183,0.183-0.229,0.523-0.229c0.594,0,1.255,0.023,1.848,0.023c0.594,0.022,1.118,0.046,1.438,0.046
		c0.866,0,5.497,0,6.021-0.023c0.433-0.022,0.708-0.022,0.936-0.091c0.137-0.046,0.251-0.138,0.364-0.138
		c0.093,0,0.16,0.092,0.16,0.206c0,0.159-0.113,0.434-0.184,1.026c-0.021,0.227-0.068,1.573-0.113,1.846
		c-0.023,0.184-0.067,0.32-0.228,0.32s-0.206-0.113-0.228-0.364c0-0.183,0-0.548-0.139-0.868c-0.158-0.318-0.638-0.66-1.504-0.683
		l-3.513-0.069c-0.137,0-0.206,0.069-0.206,0.319v5.703c0,0.136,0.023,0.205,0.16,0.205l2.92-0.023c0.388,0,0.706,0,1.025-0.022
		c0.434-0.023,0.754-0.114,0.98-0.411c0.116-0.137,0.16-0.228,0.297-0.228c0.093,0,0.137,0.067,0.137,0.205
		c0,0.136-0.113,0.708-0.182,1.415c-0.045,0.454-0.092,1.504-0.092,1.664c0,0.204,0,0.434-0.228,0.434
		c-0.137,0-0.183-0.16-0.183-0.319s-0.046-0.434-0.137-0.707c-0.114-0.319-0.457-0.73-1.163-0.821
		c-0.569-0.069-2.987-0.069-3.376-0.069c-0.113,0-0.16,0.046-0.16,0.206V65.693z"/arthistory/>
	<path d="M78.156,93.865c-0.114,0-0.159,0.045-0.206,0.183l-1.231,3.125c-0.229,0.569-0.342,1.116-0.342,1.391
		c0,0.411,0.206,0.707,0.912,0.707h0.342c0.274,0,0.343,0.046,0.343,0.184c0,0.181-0.137,0.228-0.388,0.228
		c-0.73,0-1.711-0.068-2.417-0.068c-0.25,0-1.505,0.068-2.691,0.068c-0.297,0-0.433-0.047-0.433-0.228
		c0-0.138,0.091-0.184,0.273-0.184c0.206,0,0.524-0.022,0.708-0.045c1.049-0.137,1.482-0.912,1.938-2.053l5.725-14.141
		c0.274-0.661,0.411-0.913,0.639-0.913c0.206,0,0.343,0.206,0.571,0.73c0.547,1.255,4.195,10.378,5.655,13.845
		c0.867,2.053,1.529,2.371,2.008,2.486c0.341,0.067,0.684,0.09,0.958,0.09c0.182,0,0.296,0.023,0.296,0.184
		c0,0.181-0.205,0.228-1.049,0.228c-0.82,0-2.486,0-4.31-0.047c-0.412-0.021-0.685-0.021-0.685-0.181
		c0-0.138,0.091-0.184,0.319-0.206c0.159-0.047,0.32-0.252,0.206-0.525l-1.825-4.697c-0.046-0.115-0.113-0.16-0.228-0.16H78.156z
		 M82.809,92.725c0.114,0,0.138-0.067,0.114-0.136l-2.053-5.611c-0.022-0.092-0.045-0.205-0.113-0.205
		c-0.069,0-0.115,0.113-0.137,0.205l-2.099,5.588c-0.023,0.092,0,0.159,0.091,0.159H82.809z"/arthistory/>
	<path d="M93.211,89.053c0-3.467,0-4.104-0.046-4.835c-0.045-0.775-0.228-1.141-0.98-1.3c-0.183-0.045-0.57-0.068-0.89-0.068
		c-0.25,0-0.387-0.045-0.387-0.206c0-0.158,0.16-0.204,0.501-0.204c1.209,0,2.646,0.067,3.125,0.067
		c0.775,0,2.509-0.067,3.216-0.067c1.438,0,2.964,0.137,4.196,0.979c0.639,0.434,1.551,1.598,1.551,3.125
		c0,1.688-0.707,3.238-3.01,5.109c2.03,2.555,3.604,4.583,4.95,5.998c1.276,1.323,2.212,1.482,2.554,1.55
		c0.251,0.047,0.456,0.069,0.638,0.069s0.274,0.068,0.274,0.184c0,0.181-0.16,0.228-0.434,0.228h-2.167
		c-1.277,0-1.847-0.115-2.44-0.434c-0.981-0.525-1.848-1.597-3.125-3.353c-0.912-1.254-1.961-2.805-2.258-3.146
		c-0.114-0.138-0.251-0.16-0.41-0.16l-1.985-0.047c-0.113,0-0.182,0.047-0.182,0.183v0.319c0,2.121,0,3.924,0.114,4.881
		c0.068,0.662,0.205,1.164,0.89,1.256c0.341,0.045,0.844,0.09,1.117,0.09c0.183,0,0.273,0.068,0.273,0.184
		c0,0.159-0.159,0.228-0.456,0.228c-1.323,0-3.01-0.068-3.353-0.068c-0.433,0-1.87,0.068-2.782,0.068
		c-0.297,0-0.456-0.068-0.456-0.228c0-0.115,0.092-0.184,0.365-0.184c0.342,0,0.616-0.045,0.821-0.09
		c0.456-0.092,0.57-0.594,0.661-1.256c0.115-0.957,0.115-2.76,0.115-4.857V89.053z M95.902,90.854c0,0.251,0.045,0.342,0.205,0.411
		c0.48,0.159,1.163,0.228,1.734,0.228c0.913,0,1.209-0.091,1.619-0.388c0.684-0.501,1.346-1.55,1.346-3.421
		c0-3.239-2.144-4.174-3.49-4.174c-0.57,0-0.981,0.023-1.209,0.092c-0.159,0.045-0.205,0.137-0.205,0.318V90.854z"/arthistory/>
	<path d="M112.599,83.717l-3.397,0.091c-1.323,0.045-1.871,0.16-2.212,0.662c-0.229,0.342-0.342,0.615-0.388,0.797
		c-0.045,0.184-0.113,0.273-0.25,0.273c-0.16,0-0.206-0.113-0.206-0.363c0-0.365,0.433-2.441,0.479-2.624
		c0.068-0.296,0.136-0.434,0.273-0.434c0.184,0,0.411,0.229,0.981,0.273c0.662,0.069,1.529,0.114,2.281,0.114h9.032
		c0.729,0,1.231-0.067,1.572-0.114c0.343-0.067,0.525-0.112,0.617-0.112c0.159,0,0.183,0.137,0.183,0.479
		c0,0.479-0.069,2.053-0.069,2.645c-0.023,0.228-0.068,0.365-0.205,0.365c-0.182,0-0.228-0.113-0.251-0.456l-0.022-0.251
		c-0.045-0.592-0.661-1.23-2.69-1.276l-2.875-0.068v9.351c0,2.098,0,3.9,0.114,4.881c0.068,0.639,0.205,1.141,0.889,1.232
		c0.319,0.045,0.821,0.09,1.163,0.09c0.25,0,0.365,0.068,0.365,0.184c0,0.159-0.182,0.228-0.434,0.228
		c-1.504,0-2.942-0.068-3.58-0.068c-0.525,0-1.962,0.068-2.873,0.068c-0.297,0-0.457-0.068-0.457-0.228
		c0-0.115,0.092-0.184,0.364-0.184c0.343,0,0.617-0.045,0.822-0.09c0.456-0.092,0.593-0.594,0.662-1.256
		c0.113-0.957,0.113-2.76,0.113-4.857V83.717z"/arthistory/>
	<path d="M144.305,89.691c0.069,0,0.138-0.046,0.138-0.16v-0.479c0-3.467,0-4.104-0.046-4.835c-0.046-0.775-0.228-1.141-0.98-1.3
		c-0.183-0.045-0.57-0.068-0.89-0.068c-0.251,0-0.388-0.045-0.388-0.206c0-0.158,0.159-0.204,0.479-0.204
		c1.231,0,2.667,0.067,3.283,0.067c0.547,0,1.984-0.067,2.873-0.067c0.321,0,0.48,0.046,0.48,0.204c0,0.161-0.137,0.206-0.411,0.206
		c-0.182,0-0.388,0.023-0.661,0.068c-0.616,0.114-0.799,0.501-0.844,1.3c-0.047,0.73-0.047,1.368-0.047,4.835v4.015
		c0,2.098,0,3.9,0.115,4.881c0.068,0.639,0.204,1.141,0.889,1.232c0.32,0.045,0.822,0.09,1.164,0.09c0.25,0,0.365,0.068,0.365,0.184
		c0,0.159-0.184,0.228-0.458,0.228c-1.481,0-2.919-0.068-3.557-0.068c-0.525,0-1.961,0.068-2.851,0.068
		c-0.32,0-0.48-0.068-0.48-0.228c0-0.115,0.093-0.184,0.366-0.184c0.341,0,0.616-0.045,0.821-0.09
		c0.456-0.092,0.569-0.594,0.661-1.256c0.114-0.957,0.114-2.76,0.114-4.857V91.06c0-0.09-0.068-0.137-0.138-0.137h-8.712
		c-0.067,0-0.137,0.023-0.137,0.137v2.008c0,2.098,0,3.9,0.114,4.881c0.068,0.639,0.205,1.141,0.89,1.232
		c0.318,0.045,0.82,0.09,1.163,0.09c0.251,0,0.364,0.068,0.364,0.184c0,0.159-0.183,0.228-0.456,0.228
		c-1.482,0-2.919-0.068-3.558-0.068c-0.525,0-1.961,0.068-2.874,0.068c-0.296,0-0.456-0.068-0.456-0.228
		c0-0.115,0.093-0.184,0.366-0.184c0.341,0,0.614-0.045,0.82-0.09c0.455-0.092,0.57-0.594,0.661-1.256
		c0.114-0.957,0.114-2.76,0.114-4.857v-4.015c0-3.467,0-4.104-0.046-4.835c-0.046-0.775-0.228-1.141-0.979-1.3
		c-0.184-0.045-0.57-0.068-0.891-0.068c-0.25,0-0.387-0.045-0.387-0.206c0-0.158,0.158-0.204,0.478-0.204
		c1.232,0,2.668,0.067,3.284,0.067c0.548,0,1.984-0.067,2.874-0.067c0.319,0,0.479,0.046,0.479,0.204
		c0,0.161-0.138,0.206-0.411,0.206c-0.183,0-0.388,0.023-0.661,0.068c-0.616,0.114-0.799,0.501-0.844,1.3
		c-0.046,0.73-0.046,1.368-0.046,4.835v0.479c0,0.114,0.069,0.16,0.137,0.16H144.305z"/arthistory/>
	<path d="M154.778,89.053c0-3.467,0-4.104-0.048-4.835c-0.044-0.775-0.273-1.162-0.774-1.277c-0.251-0.067-0.548-0.091-0.82-0.091
		c-0.229,0-0.365-0.045-0.365-0.228c0-0.137,0.182-0.183,0.548-0.183c0.866,0,2.303,0.067,2.965,0.067
		c0.569,0,1.915-0.067,2.782-0.067c0.297,0,0.479,0.046,0.479,0.183c0,0.183-0.138,0.228-0.365,0.228s-0.41,0.023-0.684,0.068
		c-0.616,0.114-0.799,0.501-0.844,1.3c-0.046,0.73-0.046,1.368-0.046,4.835v4.015c0,2.213,0,4.014,0.091,4.994
		c0.068,0.616,0.229,1.027,0.912,1.119c0.32,0.045,0.823,0.09,1.164,0.09c0.25,0,0.364,0.068,0.364,0.184
		c0,0.159-0.184,0.228-0.434,0.228c-1.505,0-2.941-0.068-3.558-0.068c-0.524,0-1.961,0.068-2.874,0.068
		c-0.296,0-0.456-0.068-0.456-0.228c0-0.115,0.092-0.184,0.366-0.184c0.341,0,0.614-0.045,0.82-0.09
		c0.455-0.092,0.593-0.48,0.661-1.141c0.115-0.959,0.115-2.76,0.115-4.973V89.053z"/arthistory/>
	<path d="M163.834,99.407c-0.364-0.159-0.434-0.273-0.434-0.775c0-1.255,0.092-2.623,0.114-2.987
		c0.022-0.343,0.091-0.593,0.273-0.593c0.205,0,0.228,0.204,0.228,0.388c0,0.296,0.093,0.775,0.206,1.163
		c0.502,1.687,1.847,2.303,3.261,2.303c2.053,0,3.058-1.391,3.058-2.6c0-1.117-0.343-2.166-2.236-3.648l-1.05-0.822
		c-2.508-1.961-3.374-3.557-3.374-5.404c0-2.51,2.098-4.312,5.267-4.312c1.483,0,2.441,0.229,3.035,0.388
		c0.206,0.046,0.319,0.115,0.319,0.273c0,0.297-0.093,0.959-0.093,2.738c0,0.501-0.068,0.684-0.25,0.684
		c-0.16,0-0.228-0.138-0.228-0.41c0-0.206-0.113-0.913-0.594-1.506c-0.343-0.434-1.003-1.117-2.486-1.117
		c-1.688,0-2.713,0.98-2.713,2.35c0,1.049,0.524,1.847,2.417,3.284l0.64,0.479c2.76,2.074,3.739,3.647,3.739,5.813
		c0,1.325-0.501,2.898-2.144,3.97c-1.141,0.73-2.418,0.935-3.627,0.935C165.841,100,164.814,99.841,163.834,99.407z"/arthistory/>
	<path d="M181.396,83.717l-3.398,0.091c-1.322,0.045-1.869,0.16-2.211,0.662c-0.229,0.342-0.343,0.615-0.389,0.797
		c-0.045,0.184-0.113,0.273-0.25,0.273c-0.16,0-0.206-0.113-0.206-0.363c0-0.365,0.433-2.441,0.479-2.624
		c0.068-0.296,0.137-0.434,0.273-0.434c0.183,0,0.41,0.229,0.98,0.273c0.663,0.069,1.528,0.114,2.281,0.114h9.031
		c0.73,0,1.231-0.067,1.573-0.114c0.343-0.067,0.524-0.112,0.616-0.112c0.161,0,0.182,0.137,0.182,0.479
		c0,0.479-0.068,2.053-0.068,2.645c-0.021,0.228-0.068,0.365-0.205,0.365c-0.182,0-0.228-0.113-0.25-0.456l-0.023-0.251
		c-0.046-0.592-0.66-1.23-2.691-1.276l-2.874-0.068v9.351c0,2.098,0,3.9,0.115,4.881c0.067,0.639,0.204,1.141,0.891,1.232
		c0.317,0.045,0.818,0.09,1.162,0.09c0.25,0,0.364,0.068,0.364,0.184c0,0.159-0.182,0.228-0.434,0.228
		c-1.506,0-2.942-0.068-3.58-0.068c-0.524,0-1.961,0.068-2.875,0.068c-0.295,0-0.454-0.068-0.454-0.228
		c0-0.115,0.091-0.184,0.364-0.184c0.342,0,0.616-0.045,0.82-0.09c0.457-0.092,0.594-0.594,0.663-1.256
		c0.112-0.957,0.112-2.76,0.112-4.857V83.717z"/arthistory/>
	<path d="M191.777,91.06c0-3.899,2.576-8.94,9.419-8.94c5.68,0,9.214,3.308,9.214,8.53S206.761,100,200.969,100
		C194.423,100,191.777,95.096,191.777,91.06z M207.217,91.493c0-5.108-2.941-8.279-6.681-8.279c-2.624,0-5.612,1.461-5.612,7.139
		c0,4.743,2.624,8.508,7.002,8.508C203.521,98.86,207.217,98.085,207.217,91.493z"/arthistory/>
	<path d="M215.18,89.053c0-3.467,0-4.104-0.046-4.835c-0.045-0.775-0.227-1.141-0.979-1.3c-0.183-0.045-0.57-0.068-0.89-0.068
		c-0.251,0-0.388-0.045-0.388-0.206c0-0.158,0.16-0.204,0.501-0.204c1.21,0,2.646,0.067,3.125,0.067
		c0.775,0,2.509-0.067,3.216-0.067c1.438,0,2.965,0.137,4.196,0.979c0.639,0.434,1.552,1.598,1.552,3.125
		c0,1.688-0.707,3.238-3.011,5.109c2.029,2.555,3.603,4.583,4.949,5.998c1.277,1.323,2.212,1.482,2.555,1.55
		c0.25,0.047,0.455,0.069,0.638,0.069s0.273,0.068,0.273,0.184c0,0.181-0.159,0.228-0.434,0.228h-2.167
		c-1.276,0-1.847-0.115-2.439-0.434c-0.98-0.525-1.848-1.597-3.125-3.353c-0.911-1.254-1.961-2.805-2.257-3.146
		c-0.114-0.138-0.251-0.16-0.411-0.16l-1.984-0.047c-0.114,0-0.183,0.047-0.183,0.183v0.319c0,2.121,0,3.924,0.115,4.881
		c0.067,0.662,0.204,1.164,0.888,1.256c0.343,0.045,0.845,0.09,1.119,0.09c0.182,0,0.272,0.068,0.272,0.184
		c0,0.159-0.159,0.228-0.456,0.228c-1.322,0-3.01-0.068-3.353-0.068c-0.434,0-1.869,0.068-2.782,0.068
		c-0.297,0-0.456-0.068-0.456-0.228c0-0.115,0.092-0.184,0.365-0.184c0.342,0,0.615-0.045,0.82-0.09
		c0.457-0.092,0.57-0.594,0.662-1.256c0.113-0.957,0.113-2.76,0.113-4.857V89.053z M217.871,90.854c0,0.251,0.046,0.342,0.206,0.411
		c0.479,0.159,1.162,0.228,1.732,0.228c0.913,0,1.209-0.091,1.619-0.388c0.684-0.501,1.347-1.55,1.347-3.421
		c0-3.239-2.145-4.174-3.489-4.174c-0.571,0-0.982,0.023-1.209,0.092c-0.16,0.045-0.206,0.137-0.206,0.318V90.854z"/arthistory/>
	<path d="M234.5,93.774c0-1.232-0.227-1.732-0.523-2.395c-0.16-0.365-3.216-5.383-4.015-6.568c-0.57-0.844-1.141-1.414-1.574-1.666
		c-0.296-0.159-0.685-0.296-0.957-0.296c-0.184,0-0.343-0.045-0.343-0.206c0-0.137,0.159-0.204,0.434-0.204
		c0.41,0,2.121,0.067,2.873,0.067c0.479,0,1.415-0.067,2.441-0.067c0.228,0,0.342,0.067,0.342,0.204s-0.16,0.161-0.502,0.252
		c-0.205,0.045-0.319,0.229-0.319,0.41c0,0.183,0.114,0.457,0.273,0.775c0.319,0.684,3.512,6.182,3.878,6.82
		c0.228-0.549,3.102-5.565,3.421-6.273c0.228-0.502,0.318-0.889,0.318-1.186c0-0.229-0.091-0.478-0.478-0.569
		c-0.206-0.046-0.41-0.093-0.41-0.229c0-0.158,0.113-0.204,0.387-0.204c0.752,0,1.482,0.067,2.145,0.067
		c0.501,0,2.007-0.067,2.438-0.067c0.252,0,0.411,0.046,0.411,0.183c0,0.158-0.182,0.228-0.433,0.228
		c-0.229,0-0.662,0.091-1.003,0.274c-0.479,0.227-0.73,0.501-1.232,1.116c-0.752,0.912-3.945,6.272-4.356,7.253
		c-0.341,0.822-0.341,1.529-0.341,2.281v1.87c0,0.364,0,1.323,0.067,2.28c0.046,0.662,0.251,1.164,0.936,1.256
		c0.319,0.045,0.82,0.09,1.141,0.09c0.251,0,0.364,0.068,0.364,0.184c0,0.159-0.183,0.228-0.479,0.228
		c-1.437,0-2.873-0.068-3.49-0.068c-0.57,0-2.007,0.068-2.851,0.068c-0.318,0-0.501-0.047-0.501-0.228
		c0-0.115,0.113-0.184,0.364-0.184c0.319,0,0.593-0.045,0.799-0.09c0.455-0.092,0.661-0.594,0.707-1.256
		c0.067-0.957,0.067-1.916,0.067-2.28V93.774z"/arthistory/>
</g>
<g>
</g>
<g>
</g>
<g>
</g>
<g>
</g>
<g>
</g>
<g>
</g>
<g>
</g>
<g>
</g>
<g>
</g>
<g>
</g>
<g>
</g>
<g>
</g>
<g>
</g>
<g>
</g>
<g>
</g>
</svg>
