<?xml version="1.0" encoding="utf-8"?>
<!-- Generator: Adobe Illustrator 16.0.4, SVG Export Plug-In . SVG Version: 6.00 Build 0)  -->
<!DOCTYPE svg PUBLIC "-//W3C//DTD SVG 1.1//EN" "http://www.w3.org/Graphics/SVG/1.1/DTD/svg11.dtd">
<svg version="1.1" id="Layer_1" xmlns="http://www.w3.org/2000/svg" xmlns:xlink="http://www.w3.org/1999/xlink" x="0px" y="0px"
	 width="218px" height="99px" viewBox="0 0 218 99" enable-background="new 0 0 218 99" xml:space="preserve">
<g>
	<path d="M-120.296-47.315c0,1.878,0,3.423,0.098,4.245c0.059,0.567,0.176,0.998,0.763,1.076c0.273,0.039,0.705,0.078,0.881,0.078
		c0.117,0,0.156,0.059,0.156,0.117c0,0.098-0.098,0.157-0.312,0.157c-1.076,0-2.309-0.059-2.406-0.059s-1.33,0.059-1.917,0.059
		c-0.215,0-0.312-0.039-0.312-0.157c0-0.058,0.038-0.117,0.156-0.117c0.175,0,0.41-0.039,0.587-0.078
		c0.391-0.079,0.488-0.509,0.566-1.076c0.098-0.821,0.098-2.367,0.098-4.245v-8.274l-2.895,0.039
		c-1.213,0.02-1.682,0.157-1.994,0.626c-0.216,0.333-0.274,0.469-0.334,0.606c-0.058,0.156-0.117,0.196-0.195,0.196
		c-0.059,0-0.098-0.058-0.098-0.176c0-0.195,0.392-1.877,0.431-2.034c0.04-0.117,0.117-0.372,0.196-0.372
		c0.137,0,0.332,0.196,0.86,0.235c0.566,0.059,1.31,0.098,1.544,0.098h7.336c0.626,0,1.075-0.039,1.389-0.098
		c0.293-0.039,0.47-0.098,0.547-0.098c0.099,0,0.099,0.118,0.099,0.235c0,0.587-0.06,1.936-0.06,2.152
		c0,0.176-0.059,0.253-0.137,0.253c-0.097,0-0.137-0.058-0.156-0.333l-0.02-0.214c-0.059-0.586-0.527-1.037-2.405-1.076
		l-2.465-0.039V-47.315z"/>
	<path d="M-99.13-47.315c0,1.878,0,3.423,0.098,4.245c0.059,0.567,0.176,0.998,0.763,1.076c0.273,0.039,0.705,0.078,0.881,0.078
		c0.117,0,0.156,0.059,0.156,0.117c0,0.098-0.098,0.157-0.312,0.157c-1.076,0-2.309-0.059-2.406-0.059s-1.33,0.059-1.917,0.059
		c-0.215,0-0.312-0.039-0.312-0.157c0-0.058,0.038-0.117,0.156-0.117c0.175,0,0.41-0.039,0.587-0.078
		c0.391-0.079,0.488-0.509,0.566-1.076c0.098-0.821,0.098-2.367,0.098-4.245v-2.053c0-0.079-0.058-0.118-0.117-0.118h-8.293
		c-0.059,0-0.117,0.02-0.117,0.118v2.053c0,1.878,0,3.423,0.098,4.245c0.059,0.567,0.176,0.998,0.764,1.076
		c0.273,0.039,0.703,0.078,0.879,0.078c0.118,0,0.156,0.059,0.156,0.117c0,0.098-0.098,0.157-0.312,0.157
		c-1.076,0-2.309-0.059-2.406-0.059c-0.097,0-1.329,0.059-1.916,0.059c-0.216,0-0.312-0.039-0.312-0.157
		c0-0.058,0.039-0.117,0.156-0.117c0.176,0,0.41-0.039,0.586-0.078c0.393-0.079,0.489-0.509,0.567-1.076
		c0.099-0.821,0.099-2.367,0.099-4.245v-3.442c0-3.051,0-3.6-0.039-4.226c-0.04-0.666-0.196-0.978-0.842-1.115
		c-0.156-0.039-0.488-0.059-0.666-0.059c-0.077,0-0.156-0.039-0.156-0.117c0-0.118,0.099-0.157,0.314-0.157
		c0.88,0,2.112,0.059,2.209,0.059c0.098,0,1.33-0.059,1.918-0.059c0.215,0,0.312,0.039,0.312,0.157c0,0.078-0.078,0.117-0.156,0.117
		c-0.137,0-0.254,0.021-0.489,0.059c-0.528,0.098-0.685,0.431-0.724,1.115c-0.039,0.626-0.039,1.174-0.039,4.226v0.41
		c0,0.098,0.059,0.118,0.117,0.118h8.293c0.06,0,0.117-0.02,0.117-0.118v-0.41c0-3.051,0-3.6-0.038-4.226
		c-0.04-0.666-0.196-0.978-0.842-1.115c-0.156-0.039-0.489-0.059-0.665-0.059c-0.078,0-0.156-0.039-0.156-0.117
		c0-0.118,0.098-0.157,0.312-0.157c0.881,0,2.113,0.059,2.211,0.059s1.33-0.059,1.917-0.059c0.215,0,0.312,0.039,0.312,0.157
		c0,0.078-0.077,0.117-0.156,0.117c-0.138,0-0.255,0.021-0.489,0.059c-0.527,0.098-0.684,0.431-0.724,1.115
		c-0.039,0.626-0.039,1.174-0.039,4.226V-47.315z"/>
	<path d="M-92.163-50.757c0-3.051,0-3.6-0.039-4.226c-0.04-0.666-0.196-0.978-0.841-1.115c-0.156-0.039-0.489-0.059-0.666-0.059
		c-0.078,0-0.156-0.039-0.156-0.117c0-0.118,0.098-0.157,0.312-0.157c0.45,0,0.979,0,1.408,0.02l0.803,0.039
		c0.137,0,4.029,0,4.479-0.021c0.372-0.019,0.686-0.058,0.842-0.097c0.098-0.02,0.176-0.098,0.273-0.098
		c0.059,0,0.078,0.078,0.078,0.176c0,0.137-0.098,0.372-0.156,0.919c-0.02,0.196-0.059,1.056-0.098,1.291
		c-0.02,0.098-0.059,0.216-0.137,0.216c-0.117,0-0.156-0.098-0.156-0.254c0-0.137-0.02-0.47-0.118-0.705
		c-0.137-0.312-0.332-0.547-1.389-0.665c-0.332-0.04-2.464-0.059-2.679-0.059c-0.079,0-0.118,0.059-0.118,0.195v5.398
		c0,0.137,0.02,0.196,0.118,0.196c0.254,0,2.659,0,3.109-0.039c0.469-0.04,0.744-0.079,0.919-0.275
		c0.138-0.156,0.216-0.254,0.294-0.254c0.059,0,0.098,0.039,0.098,0.157c0,0.117-0.098,0.45-0.156,1.095
		c-0.039,0.392-0.078,1.115-0.078,1.251c0,0.157,0,0.372-0.138,0.372c-0.098,0-0.137-0.078-0.137-0.176c0-0.196,0-0.392-0.079-0.645
		c-0.077-0.274-0.254-0.606-1.017-0.685c-0.528-0.058-2.464-0.097-2.796-0.097c-0.099,0-0.138,0.059-0.138,0.137v1.721
		c0,0.665-0.019,2.934,0,3.345c0.059,1.349,0.353,1.604,2.269,1.604c0.509,0,1.369,0,1.878-0.216
		c0.509-0.215,0.743-0.606,0.88-1.408c0.039-0.215,0.079-0.294,0.176-0.294c0.117,0,0.117,0.157,0.117,0.294
		c0,0.156-0.156,1.486-0.254,1.897c-0.137,0.509-0.293,0.509-1.056,0.509c-1.468,0-2.542-0.039-3.306-0.059
		c-0.763-0.039-1.232-0.059-1.525-0.059c-0.039,0-0.372,0-0.783,0.02c-0.391,0-0.841,0.039-1.134,0.039
		c-0.216,0-0.312-0.039-0.312-0.157c0-0.058,0.039-0.117,0.156-0.117c0.176,0,0.411-0.039,0.586-0.078
		c0.392-0.079,0.489-0.509,0.567-1.076c0.099-0.821,0.099-2.367,0.099-4.245V-50.757z"/>
	<path d="M-286.385-27.282c0-3.051,0-3.599-0.04-4.225c-0.039-0.665-0.195-0.978-0.841-1.115c-0.156-0.04-0.489-0.058-0.666-0.058
		c-0.077,0-0.156-0.04-0.156-0.119c0-0.116,0.099-0.155,0.313-0.155c0.449,0,0.979,0,1.408,0.019l0.802,0.04
		c0.137,0,4.03,0,4.479-0.02c0.372-0.021,0.685-0.059,0.841-0.098c0.099-0.02,0.176-0.098,0.273-0.098
		c0.06,0,0.079,0.078,0.079,0.176c0,0.137-0.098,0.372-0.157,0.92c-0.02,0.195-0.059,1.057-0.097,1.291
		c-0.021,0.098-0.06,0.216-0.138,0.216c-0.117,0-0.156-0.098-0.156-0.254c0-0.137-0.02-0.47-0.117-0.705
		c-0.137-0.313-0.332-0.547-1.389-0.665c-0.332-0.039-2.465-0.059-2.68-0.059c-0.078,0-0.117,0.059-0.117,0.196v5.398
		c0,0.137,0.02,0.195,0.117,0.195c0.254,0,2.66,0,3.11-0.039c0.469-0.039,0.743-0.078,0.919-0.274
		c0.137-0.156,0.215-0.254,0.293-0.254c0.059,0,0.098,0.04,0.098,0.156c0,0.118-0.098,0.45-0.156,1.096
		c-0.039,0.391-0.078,1.115-0.078,1.251c0,0.156,0,0.372-0.137,0.372c-0.098,0-0.137-0.078-0.137-0.176c0-0.195,0-0.391-0.078-0.646
		c-0.078-0.273-0.255-0.606-1.018-0.684c-0.528-0.059-2.465-0.098-2.797-0.098c-0.098,0-0.137,0.059-0.137,0.137v1.721
		c0,0.666-0.02,2.935,0,3.345c0.059,1.35,0.352,1.604,2.269,1.604c0.509,0,1.369,0,1.878-0.215c0.508-0.215,0.743-0.606,0.88-1.409
		c0.039-0.215,0.079-0.292,0.177-0.292c0.116,0,0.116,0.156,0.116,0.292c0,0.157-0.156,1.487-0.254,1.898
		c-0.137,0.509-0.294,0.509-1.056,0.509c-1.467,0-2.543-0.04-3.306-0.059c-0.764-0.04-1.232-0.059-1.526-0.059
		c-0.039,0-0.371,0-0.782,0.02c-0.392,0-0.842,0.04-1.135,0.04c-0.215,0-0.312-0.04-0.312-0.157c0-0.059,0.039-0.117,0.156-0.117
		c0.176,0,0.411-0.04,0.587-0.079c0.392-0.078,0.488-0.508,0.567-1.075c0.099-0.822,0.099-2.367,0.099-4.245V-27.282z"/>
	<path d="M-274.451-27.282c0-3.051,0-3.599-0.041-4.225c-0.038-0.665-0.194-0.978-0.84-1.115c-0.156-0.04-0.488-0.058-0.666-0.058
		c-0.077,0-0.156-0.04-0.156-0.119c0-0.116,0.099-0.155,0.314-0.155c0.879,0,2.111,0.059,2.209,0.059
		c0.234,0,1.467-0.059,2.641-0.059c1.937,0,5.517-0.176,7.844,2.229c0.979,1.018,1.896,2.641,1.896,4.969
		c0,2.464-1.017,4.361-2.111,5.516c-0.841,0.88-2.602,2.25-5.927,2.25c-0.841,0-1.878-0.059-2.72-0.117
		c-0.86-0.059-1.525-0.118-1.623-0.118c-0.039,0-0.371,0-0.782,0.02c-0.392,0-0.841,0.04-1.134,0.04
		c-0.216,0-0.312-0.04-0.312-0.157c0-0.059,0.039-0.117,0.156-0.117c0.176,0,0.41-0.04,0.586-0.079
		c0.392-0.078,0.488-0.508,0.567-1.075c0.099-0.822,0.099-2.367,0.099-4.245V-27.282z M-272.809-25.169
		c0,2.073,0.02,3.872,0.039,4.244c0.02,0.49,0.059,1.272,0.215,1.487c0.254,0.372,1.018,0.782,3.326,0.782
		c1.818,0,3.5-0.665,4.654-1.819c1.018-0.998,1.564-2.875,1.564-4.675c0-2.483-1.075-4.087-1.877-4.928
		c-1.839-1.937-4.068-2.211-6.396-2.211c-0.391,0-1.115,0.059-1.271,0.138c-0.176,0.079-0.234,0.176-0.234,0.391
		c-0.02,0.665-0.02,2.66-0.02,4.166V-25.169z"/>
	<path d="M-255.065-23.839c0,1.878,0,3.423,0.098,4.245c0.059,0.567,0.176,0.998,0.763,1.075c0.273,0.04,0.704,0.079,0.881,0.079
		c0.117,0,0.156,0.059,0.156,0.117c0,0.098-0.099,0.157-0.312,0.157c-1.076,0-2.309-0.059-2.407-0.059
		c-0.097,0-1.329,0.059-1.917,0.059c-0.215,0-0.312-0.04-0.312-0.157c0-0.059,0.039-0.117,0.156-0.117
		c0.176,0,0.411-0.04,0.588-0.079c0.391-0.078,0.488-0.508,0.566-1.075c0.098-0.822,0.098-2.367,0.098-4.245v-3.443
		c0-3.051,0-3.599-0.039-4.225c-0.039-0.665-0.234-0.998-0.665-1.095c-0.216-0.059-0.47-0.078-0.606-0.078
		c-0.078,0-0.156-0.04-0.156-0.119c0-0.116,0.098-0.155,0.313-0.155c0.646,0,1.878,0.059,1.975,0.059
		c0.099,0,1.331-0.059,1.917-0.059c0.215,0,0.313,0.039,0.313,0.155c0,0.079-0.078,0.119-0.157,0.119
		c-0.137,0-0.254,0.019-0.488,0.058c-0.527,0.098-0.685,0.43-0.725,1.115c-0.038,0.626-0.038,1.174-0.038,4.225V-23.839z"/>
	<path d="M-243.935-23.839c0,1.878,0,3.423,0.099,4.245c0.058,0.567,0.176,0.998,0.762,1.075c0.273,0.04,0.705,0.079,0.881,0.079
		c0.117,0,0.156,0.059,0.156,0.117c0,0.098-0.098,0.157-0.312,0.157c-1.076,0-2.309-0.059-2.406-0.059s-1.33,0.059-1.917,0.059
		c-0.215,0-0.312-0.04-0.312-0.157c0-0.059,0.038-0.117,0.156-0.117c0.175,0,0.41-0.04,0.587-0.079
		c0.391-0.078,0.489-0.508,0.566-1.075c0.099-0.822,0.099-2.367,0.099-4.245v-8.274l-2.896,0.04
		c-1.213,0.019-1.682,0.155-1.994,0.625c-0.216,0.333-0.274,0.469-0.334,0.606c-0.058,0.157-0.117,0.196-0.194,0.196
		c-0.06,0-0.099-0.059-0.099-0.176c0-0.196,0.392-1.878,0.431-2.035c0.04-0.117,0.117-0.372,0.196-0.372
		c0.137,0,0.332,0.195,0.86,0.235c0.567,0.058,1.31,0.098,1.545,0.098h7.335c0.626,0,1.076-0.04,1.389-0.098
		c0.293-0.04,0.47-0.098,0.548-0.098c0.098,0,0.098,0.118,0.098,0.235c0,0.587-0.06,1.937-0.06,2.151
		c0,0.176-0.058,0.255-0.137,0.255c-0.097,0-0.137-0.059-0.156-0.333l-0.02-0.215c-0.059-0.587-0.527-1.037-2.405-1.075l-2.465-0.04
		V-23.839z"/>
	<path d="M-222.769-23.839c0,1.878,0,3.423,0.099,4.245c0.058,0.567,0.176,0.998,0.762,1.075c0.274,0.04,0.705,0.079,0.881,0.079
		c0.117,0,0.156,0.059,0.156,0.117c0,0.098-0.098,0.157-0.312,0.157c-1.076,0-2.309-0.059-2.406-0.059s-1.33,0.059-1.917,0.059
		c-0.215,0-0.312-0.04-0.312-0.157c0-0.059,0.038-0.117,0.156-0.117c0.176,0,0.41-0.04,0.587-0.079
		c0.391-0.078,0.488-0.508,0.566-1.075c0.099-0.822,0.099-2.367,0.099-4.245v-2.053c0-0.079-0.059-0.118-0.118-0.118h-8.293
		c-0.059,0-0.117,0.02-0.117,0.118v2.053c0,1.878,0,3.423,0.098,4.245c0.059,0.567,0.176,0.998,0.764,1.075
		c0.273,0.04,0.703,0.079,0.88,0.079c0.117,0,0.156,0.059,0.156,0.117c0,0.098-0.099,0.157-0.312,0.157
		c-1.077,0-2.309-0.059-2.407-0.059c-0.097,0-1.329,0.059-1.916,0.059c-0.215,0-0.312-0.04-0.312-0.157
		c0-0.059,0.039-0.117,0.156-0.117c0.176,0,0.41-0.04,0.586-0.079c0.393-0.078,0.489-0.508,0.568-1.075
		c0.098-0.822,0.098-2.367,0.098-4.245v-3.443c0-3.051,0-3.599-0.039-4.225c-0.04-0.665-0.196-0.978-0.842-1.115
		c-0.156-0.04-0.488-0.058-0.665-0.058c-0.078,0-0.156-0.04-0.156-0.119c0-0.116,0.098-0.155,0.313-0.155
		c0.88,0,2.112,0.059,2.209,0.059c0.099,0,1.33-0.059,1.918-0.059c0.215,0,0.312,0.039,0.312,0.155c0,0.079-0.078,0.119-0.156,0.119
		c-0.137,0-0.254,0.019-0.489,0.058c-0.528,0.098-0.685,0.43-0.724,1.115c-0.039,0.626-0.039,1.174-0.039,4.225v0.411
		c0,0.098,0.059,0.118,0.117,0.118h8.293c0.06,0,0.118-0.02,0.118-0.118v-0.411c0-3.051,0-3.599-0.039-4.225
		c-0.04-0.665-0.196-0.978-0.841-1.115c-0.156-0.04-0.49-0.058-0.666-0.058c-0.078,0-0.156-0.04-0.156-0.119
		c0-0.116,0.098-0.155,0.312-0.155c0.881,0,2.113,0.059,2.211,0.059s1.33-0.059,1.917-0.059c0.216,0,0.312,0.039,0.312,0.155
		c0,0.079-0.077,0.119-0.156,0.119c-0.137,0-0.255,0.019-0.489,0.058c-0.527,0.098-0.684,0.43-0.724,1.115
		c-0.039,0.626-0.039,1.174-0.039,4.225V-23.839z"/>
	<path d="M-203.967-33.228c4.4,0,7.687,2.778,7.687,7.335c0,4.381-3.091,8-7.804,8c-5.359,0-7.59-4.166-7.59-7.688
		C-211.674-28.749-209.366-33.228-203.967-33.228z M-203.557-18.636c1.761,0,5.398-1.017,5.398-6.709
		c0-4.694-2.855-7.218-5.946-7.218c-3.267,0-5.711,2.152-5.711,6.436C-209.815-21.571-207.077-18.636-203.557-18.636z"/>
	<path d="M-193.754-33.815c-0.156-0.176-0.176-0.235-0.176-0.332c0-0.059,0.098-0.117,0.176-0.117c0.312,0,1.057,0.234,1.369,0.351
		c0.234,0.118,0.332,0.216,0.332,0.509c0,1.389-0.997,3.032-1.682,3.853c-0.078,0.118-0.156,0.157-0.254,0.157
		c-0.039,0-0.099-0.039-0.099-0.098s0.021-0.117,0.079-0.254c0.293-0.626,0.645-1.682,0.645-2.797
		C-193.363-33.149-193.617-33.658-193.754-33.815z"/>
	<path d="M-187.631-27.282c0-3.051,0-3.599-0.04-4.225c-0.038-0.665-0.194-0.978-0.841-1.115c-0.156-0.04-0.488-0.058-0.665-0.058
		c-0.077,0-0.156-0.04-0.156-0.119c0-0.116,0.099-0.155,0.313-0.155c0.88,0,2.112,0.059,2.209,0.059
		c0.235,0,1.468-0.059,2.641-0.059c1.938,0,5.518-0.176,7.844,2.229c0.979,1.018,1.897,2.641,1.897,4.969
		c0,2.464-1.017,4.361-2.112,5.516c-0.841,0.88-2.601,2.25-5.926,2.25c-0.842,0-1.879-0.059-2.72-0.117
		c-0.86-0.059-1.525-0.118-1.624-0.118c-0.038,0-0.371,0-0.781,0.02c-0.392,0-0.842,0.04-1.135,0.04
		c-0.215,0-0.312-0.04-0.312-0.157c0-0.059,0.039-0.117,0.156-0.117c0.176,0,0.41-0.04,0.587-0.079
		c0.392-0.078,0.488-0.508,0.567-1.075c0.098-0.822,0.098-2.367,0.098-4.245V-27.282z M-185.988-25.169
		c0,2.073,0.02,3.872,0.039,4.244c0.02,0.49,0.059,1.272,0.215,1.487c0.255,0.372,1.018,0.782,3.326,0.782
		c1.818,0,3.5-0.665,4.654-1.819c1.018-0.998,1.564-2.875,1.564-4.675c0-2.483-1.074-4.087-1.877-4.928
		c-1.838-1.937-4.068-2.211-6.396-2.211c-0.391,0-1.115,0.059-1.271,0.138c-0.176,0.079-0.234,0.176-0.234,0.391
		c-0.02,0.665-0.02,2.66-0.02,4.166V-25.169z"/>
	<path d="M-164.215-33.228c4.4,0,7.687,2.778,7.687,7.335c0,4.381-3.091,8-7.804,8c-5.359,0-7.59-4.166-7.59-7.688
		C-171.922-28.749-169.614-33.228-164.215-33.228z M-163.805-18.636c1.761,0,5.398-1.017,5.398-6.709
		c0-4.694-2.855-7.218-5.946-7.218c-3.267,0-5.711,2.152-5.711,6.436C-170.063-21.571-167.325-18.636-163.805-18.636z"/>
	<path d="M-151.851-20.827c0.039,1.604,0.235,2.113,0.763,2.269c0.372,0.098,0.803,0.118,0.979,0.118
		c0.098,0,0.156,0.039,0.156,0.117c0,0.117-0.117,0.157-0.353,0.157c-1.114,0-1.897-0.059-2.073-0.059s-0.997,0.059-1.877,0.059
		c-0.196,0-0.313-0.02-0.313-0.157c0-0.078,0.06-0.117,0.157-0.117c0.156,0,0.508-0.02,0.801-0.118
		c0.489-0.137,0.588-0.705,0.588-2.484l0.02-11.208c0-0.763,0.059-0.978,0.215-0.978s0.488,0.43,0.684,0.626
		c0.294,0.333,3.209,3.481,6.221,6.709c1.937,2.073,4.068,4.459,4.694,5.104l-0.216-9.936c-0.02-1.271-0.156-1.702-0.762-1.857
		c-0.353-0.079-0.803-0.098-0.959-0.098c-0.137,0-0.156-0.06-0.156-0.137c0-0.118,0.156-0.137,0.392-0.137
		c0.88,0,1.818,0.059,2.034,0.059c0.215,0,0.86-0.059,1.662-0.059c0.215,0,0.352,0.019,0.352,0.137c0,0.078-0.078,0.137-0.215,0.137
		c-0.098,0-0.234,0-0.47,0.058c-0.646,0.137-0.724,0.567-0.724,1.741l-0.039,11.463c0,1.291-0.039,1.388-0.176,1.388
		c-0.156,0-0.391-0.215-1.428-1.252c-0.215-0.195-3.032-3.071-5.105-5.301c-2.269-2.444-4.479-4.909-5.105-5.613L-151.851-20.827z"
		/>
	<path d="M-133.324-20.827c0.039,1.604,0.234,2.113,0.763,2.269c0.372,0.098,0.802,0.118,0.978,0.118
		c0.099,0,0.156,0.039,0.156,0.117c0,0.117-0.117,0.157-0.352,0.157c-1.115,0-1.896-0.059-2.072-0.059
		c-0.178,0-0.998,0.059-1.879,0.059c-0.195,0-0.312-0.02-0.312-0.157c0-0.078,0.059-0.117,0.156-0.117
		c0.156,0,0.51-0.02,0.803-0.118c0.488-0.137,0.586-0.705,0.586-2.484l0.02-11.208c0-0.763,0.059-0.978,0.216-0.978
		c0.156,0,0.488,0.43,0.685,0.626c0.293,0.333,3.208,3.481,6.22,6.709c1.937,2.073,4.067,4.459,4.694,5.104l-0.215-9.936
		c-0.02-1.271-0.157-1.702-0.764-1.857c-0.352-0.079-0.801-0.098-0.957-0.098c-0.138,0-0.158-0.06-0.158-0.137
		c0-0.118,0.158-0.137,0.393-0.137c0.88,0,1.818,0.059,2.033,0.059c0.216,0,0.861-0.059,1.662-0.059
		c0.217,0,0.354,0.019,0.354,0.137c0,0.078-0.079,0.137-0.216,0.137c-0.099,0-0.235,0-0.47,0.058
		c-0.646,0.137-0.723,0.567-0.723,1.741l-0.04,11.463c0,1.291-0.039,1.388-0.176,1.388c-0.156,0-0.392-0.215-1.428-1.252
		c-0.216-0.195-3.032-3.071-5.104-5.301c-2.27-2.444-4.48-4.909-5.105-5.613L-133.324-20.827z"/>
	<path d="M-115.326-27.282c0-3.051,0-3.599-0.039-4.225c-0.039-0.665-0.195-0.978-0.841-1.115c-0.156-0.04-0.489-0.058-0.665-0.058
		c-0.078,0-0.156-0.04-0.156-0.119c0-0.116,0.098-0.155,0.312-0.155c0.449,0,0.979,0,1.408,0.019l0.802,0.04
		c0.137,0,4.03,0,4.479-0.02c0.371-0.021,0.686-0.059,0.842-0.098c0.098-0.02,0.175-0.098,0.273-0.098
		c0.059,0,0.078,0.078,0.078,0.176c0,0.137-0.098,0.372-0.157,0.92c-0.02,0.195-0.058,1.057-0.097,1.291
		c-0.02,0.098-0.06,0.216-0.137,0.216c-0.117,0-0.158-0.098-0.158-0.254c0-0.137-0.019-0.47-0.117-0.705
		c-0.137-0.313-0.332-0.547-1.389-0.665c-0.332-0.039-2.463-0.059-2.679-0.059c-0.079,0-0.118,0.059-0.118,0.196v5.398
		c0,0.137,0.02,0.195,0.118,0.195c0.254,0,2.659,0,3.11-0.039c0.469-0.039,0.742-0.078,0.918-0.274
		c0.138-0.156,0.217-0.254,0.294-0.254c0.06,0,0.098,0.04,0.098,0.156c0,0.118-0.098,0.45-0.156,1.096
		c-0.038,0.391-0.079,1.115-0.079,1.251c0,0.156,0,0.372-0.137,0.372c-0.098,0-0.137-0.078-0.137-0.176c0-0.195,0-0.391-0.078-0.646
		c-0.078-0.273-0.254-0.606-1.018-0.684c-0.527-0.059-2.463-0.098-2.797-0.098c-0.098,0-0.137,0.059-0.137,0.137v1.721
		c0,0.666-0.02,2.935,0,3.345c0.059,1.35,0.354,1.604,2.27,1.604c0.508,0,1.369,0,1.877-0.215c0.51-0.215,0.744-0.606,0.881-1.409
		c0.039-0.215,0.078-0.292,0.176-0.292c0.117,0,0.117,0.156,0.117,0.292c0,0.157-0.156,1.487-0.254,1.898
		c-0.137,0.509-0.293,0.509-1.057,0.509c-1.467,0-2.542-0.04-3.305-0.059c-0.764-0.04-1.232-0.059-1.526-0.059
		c-0.039,0-0.372,0-0.782,0.02c-0.391,0-0.842,0.04-1.135,0.04c-0.215,0-0.312-0.04-0.312-0.157c0-0.059,0.039-0.117,0.156-0.117
		c0.176,0,0.41-0.04,0.586-0.079c0.393-0.078,0.49-0.508,0.568-1.075c0.098-0.822,0.098-2.367,0.098-4.245V-27.282z"/>
	<path d="M-101.75-23.801c0,2.875,0.079,4.127,0.431,4.479c0.313,0.313,0.821,0.451,2.347,0.451c1.037,0,1.898-0.021,2.367-0.587
		c0.254-0.313,0.45-0.802,0.509-1.173c0.02-0.157,0.06-0.254,0.177-0.254c0.097,0,0.116,0.079,0.116,0.293
		c0,0.215-0.137,1.389-0.293,1.956c-0.137,0.45-0.195,0.528-1.232,0.528c-1.408,0-2.425-0.04-3.247-0.059
		c-0.821-0.04-1.428-0.059-1.995-0.059c-0.077,0-0.411,0.02-0.802,0.02c-0.391,0.02-0.822,0.04-1.115,0.04
		c-0.215,0-0.312-0.04-0.312-0.157c0-0.059,0.039-0.117,0.156-0.117c0.176,0,0.41-0.04,0.586-0.079
		c0.393-0.078,0.49-0.508,0.568-1.075c0.098-0.822,0.098-2.367,0.098-4.245v-3.443c0-3.051,0-3.599-0.039-4.225
		c-0.039-0.665-0.195-0.978-0.841-1.115c-0.156-0.04-0.489-0.058-0.665-0.058c-0.078,0-0.156-0.04-0.156-0.119
		c0-0.116,0.098-0.155,0.312-0.155c0.881,0,2.113,0.059,2.21,0.059c0.099,0,1.526-0.059,2.112-0.059
		c0.216,0,0.313,0.039,0.313,0.155c0,0.079-0.079,0.119-0.157,0.119c-0.137,0-0.41,0.019-0.645,0.058
		c-0.567,0.098-0.724,0.43-0.764,1.115c-0.039,0.626-0.039,1.174-0.039,4.225V-23.801z"/>
	<path d="M-90.168-23.801c0,2.875,0.078,4.127,0.43,4.479c0.313,0.313,0.822,0.451,2.348,0.451c1.036,0,1.896-0.021,2.367-0.587
		c0.254-0.313,0.449-0.802,0.508-1.173c0.02-0.157,0.059-0.254,0.176-0.254c0.098,0,0.117,0.079,0.117,0.293
		c0,0.215-0.137,1.389-0.293,1.956c-0.137,0.45-0.195,0.528-1.232,0.528c-1.408,0-2.425-0.04-3.247-0.059
		c-0.821-0.04-1.427-0.059-1.995-0.059c-0.077,0-0.41,0.02-0.801,0.02c-0.392,0.02-0.822,0.04-1.115,0.04
		c-0.216,0-0.312-0.04-0.312-0.157c0-0.059,0.039-0.117,0.156-0.117c0.176,0,0.41-0.04,0.587-0.079
		c0.391-0.078,0.488-0.508,0.566-1.075c0.099-0.822,0.099-2.367,0.099-4.245v-3.443c0-3.051,0-3.599-0.04-4.225
		c-0.039-0.665-0.195-0.978-0.841-1.115c-0.156-0.04-0.488-0.058-0.666-0.058c-0.077,0-0.156-0.04-0.156-0.119
		c0-0.116,0.099-0.155,0.314-0.155c0.88,0,2.111,0.059,2.209,0.059s1.526-0.059,2.113-0.059c0.215,0,0.312,0.039,0.312,0.155
		c0,0.079-0.078,0.119-0.156,0.119c-0.137,0-0.411,0.019-0.646,0.058c-0.567,0.098-0.724,0.43-0.763,1.115
		c-0.039,0.626-0.039,1.174-0.039,4.225V-23.801z"/>
	<path d="M-229.457-0.364c0,1.879,0,3.424,0.098,4.246c0.059,0.567,0.176,0.997,0.764,1.075c0.273,0.04,0.703,0.079,0.88,0.079
		c0.117,0,0.156,0.058,0.156,0.117c0,0.098-0.099,0.157-0.312,0.157c-1.076,0-2.309-0.059-2.407-0.059
		c-0.097,0-1.329,0.059-1.916,0.059c-0.215,0-0.312-0.039-0.312-0.157c0-0.059,0.039-0.117,0.156-0.117
		c0.176,0,0.41-0.039,0.587-0.079c0.392-0.079,0.488-0.508,0.567-1.075c0.098-0.822,0.098-2.367,0.098-4.246v-3.442
		c0-3.051,0-3.599-0.039-4.225c-0.039-0.666-0.234-0.999-0.666-1.096c-0.215-0.058-0.469-0.078-0.605-0.078
		c-0.078,0-0.156-0.039-0.156-0.118c0-0.117,0.098-0.156,0.312-0.156c0.646,0,1.878,0.059,1.975,0.059
		c0.099,0,1.331-0.059,1.918-0.059c0.215,0,0.312,0.039,0.312,0.156c0,0.079-0.078,0.118-0.156,0.118
		c-0.137,0-0.254,0.02-0.488,0.059c-0.529,0.098-0.686,0.43-0.725,1.115c-0.039,0.625-0.039,1.173-0.039,4.225V-0.364z"/>
	<path d="M-221.965,2.648c0.039,1.605,0.235,2.113,0.764,2.27c0.371,0.097,0.802,0.118,0.978,0.118c0.099,0,0.156,0.039,0.156,0.117
		c0,0.118-0.117,0.157-0.353,0.157c-1.115,0-1.896-0.059-2.072-0.059c-0.177,0-0.998,0.059-1.878,0.059
		c-0.196,0-0.313-0.02-0.313-0.157c0-0.078,0.059-0.117,0.157-0.117c0.156,0,0.509-0.021,0.802-0.118
		c0.488-0.137,0.587-0.704,0.587-2.484l0.02-11.208c0-0.764,0.058-0.978,0.216-0.978c0.156,0,0.488,0.43,0.684,0.625
		c0.293,0.333,3.208,3.482,6.221,6.709c1.936,2.074,4.067,4.46,4.693,5.105l-0.215-9.936c-0.02-1.272-0.156-1.702-0.764-1.858
		c-0.352-0.078-0.801-0.098-0.957-0.098c-0.137,0-0.157-0.059-0.157-0.137c0-0.118,0.157-0.137,0.392-0.137
		c0.881,0,1.818,0.059,2.034,0.059s0.86-0.059,1.662-0.059c0.216,0,0.353,0.02,0.353,0.137c0,0.078-0.078,0.137-0.215,0.137
		c-0.099,0-0.235,0-0.471,0.059c-0.645,0.137-0.723,0.567-0.723,1.74l-0.039,11.462c0,1.291-0.039,1.388-0.176,1.388
		c-0.156,0-0.392-0.214-1.428-1.251c-0.216-0.196-3.033-3.071-5.105-5.301c-2.27-2.444-4.479-4.91-5.105-5.613L-221.965,2.648z"/>
	<path d="M-205.218,5.055c-0.274-0.137-0.294-0.215-0.294-0.744c0-0.978,0.078-1.76,0.098-2.074c0.02-0.214,0.059-0.312,0.157-0.312
		c0.116,0,0.137,0.059,0.137,0.215c0,0.176,0,0.45,0.058,0.725c0.294,1.447,1.586,1.995,2.896,1.995c1.878,0,2.798-1.35,2.798-2.602
		c0-1.35-0.568-2.132-2.25-3.521l-0.88-0.725c-2.073-1.701-2.544-2.914-2.544-4.244c0-2.093,1.566-3.521,4.05-3.521
		c0.763,0,1.329,0.078,1.819,0.195c0.371,0.079,0.527,0.098,0.685,0.098c0.156,0,0.195,0.04,0.195,0.137
		c0,0.098-0.079,0.744-0.079,2.074c0,0.313-0.039,0.45-0.137,0.45c-0.117,0-0.137-0.098-0.156-0.254
		c-0.02-0.234-0.137-0.763-0.254-0.978c-0.117-0.216-0.646-1.037-2.445-1.037c-1.35,0-2.406,0.841-2.406,2.269
		c0,1.115,0.509,1.819,2.387,3.286l0.548,0.431c2.308,1.819,2.856,3.031,2.856,4.597c0,0.801-0.313,2.288-1.664,3.247
		c-0.84,0.586-1.896,0.821-2.952,0.821C-203.517,5.583-204.416,5.445-205.218,5.055z"/>
	<path d="M-188.648-0.364c0,1.879,0,3.424,0.098,4.246c0.059,0.567,0.176,0.997,0.763,1.075c0.273,0.04,0.704,0.079,0.88,0.079
		c0.117,0,0.156,0.058,0.156,0.117c0,0.098-0.098,0.157-0.312,0.157c-1.076,0-2.309-0.059-2.405-0.059
		c-0.099,0-1.331,0.059-1.917,0.059c-0.215,0-0.312-0.039-0.312-0.157c0-0.059,0.038-0.117,0.156-0.117
		c0.176,0,0.41-0.039,0.586-0.079c0.392-0.079,0.49-0.508,0.567-1.075c0.099-0.822,0.099-2.367,0.099-4.246v-8.273l-2.896,0.039
		c-1.213,0.02-1.683,0.156-1.995,0.626c-0.215,0.332-0.273,0.469-0.333,0.605c-0.058,0.157-0.117,0.196-0.194,0.196
		c-0.06,0-0.099-0.059-0.099-0.176c0-0.196,0.392-1.878,0.431-2.034c0.039-0.118,0.117-0.372,0.195-0.372
		c0.137,0,0.333,0.195,0.861,0.235c0.566,0.058,1.31,0.098,1.545,0.098h7.334c0.627,0,1.076-0.04,1.39-0.098
		c0.293-0.04,0.47-0.098,0.547-0.098c0.099,0,0.099,0.117,0.099,0.235c0,0.586-0.06,1.936-0.06,2.151
		c0,0.176-0.058,0.254-0.137,0.254c-0.097,0-0.137-0.059-0.156-0.333l-0.02-0.214c-0.059-0.587-0.528-1.037-2.405-1.076
		l-2.465-0.039V-0.364z"/>
	<path d="M-177.653-0.364c0,1.879,0,3.424,0.098,4.246c0.058,0.567,0.176,0.997,0.763,1.075c0.273,0.04,0.703,0.079,0.88,0.079
		c0.118,0,0.156,0.058,0.156,0.117c0,0.098-0.098,0.157-0.312,0.157c-1.075,0-2.308-0.059-2.406-0.059
		c-0.097,0-1.329,0.059-1.917,0.059c-0.215,0-0.312-0.039-0.312-0.157c0-0.059,0.039-0.117,0.156-0.117
		c0.176,0,0.411-0.039,0.586-0.079c0.393-0.079,0.49-0.508,0.568-1.075c0.098-0.822,0.098-2.367,0.098-4.246v-3.442
		c0-3.051,0-3.599-0.039-4.225c-0.039-0.666-0.234-0.999-0.665-1.096c-0.216-0.058-0.47-0.078-0.606-0.078
		c-0.078,0-0.156-0.039-0.156-0.118c0-0.117,0.098-0.156,0.312-0.156c0.646,0,1.879,0.059,1.976,0.059
		c0.099,0,1.331-0.059,1.917-0.059c0.215,0,0.312,0.039,0.312,0.156c0,0.079-0.077,0.118-0.156,0.118
		c-0.137,0-0.254,0.02-0.488,0.059c-0.528,0.098-0.685,0.43-0.725,1.115c-0.038,0.625-0.038,1.173-0.038,4.225V-0.364z"/>
	<path d="M-166.523-0.364c0,1.879,0,3.424,0.098,4.246c0.059,0.567,0.176,0.997,0.764,1.075c0.273,0.04,0.704,0.079,0.88,0.079
		c0.117,0,0.156,0.058,0.156,0.117c0,0.098-0.099,0.157-0.313,0.157c-1.075,0-2.308-0.059-2.404-0.059
		c-0.099,0-1.331,0.059-1.918,0.059c-0.215,0-0.312-0.039-0.312-0.157c0-0.059,0.039-0.117,0.156-0.117
		c0.176,0,0.41-0.039,0.587-0.079c0.392-0.079,0.489-0.508,0.567-1.075c0.098-0.822,0.098-2.367,0.098-4.246v-8.273l-2.895,0.039
		c-1.213,0.02-1.684,0.156-1.996,0.626c-0.215,0.332-0.273,0.469-0.332,0.605c-0.059,0.157-0.117,0.196-0.195,0.196
		c-0.059,0-0.098-0.059-0.098-0.176c0-0.196,0.391-1.878,0.43-2.034c0.039-0.118,0.117-0.372,0.195-0.372
		c0.137,0,0.333,0.195,0.861,0.235c0.566,0.058,1.311,0.098,1.545,0.098h7.335c0.626,0,1.075-0.04,1.39-0.098
		c0.293-0.04,0.469-0.098,0.547-0.098c0.098,0,0.098,0.117,0.098,0.235c0,0.586-0.059,1.936-0.059,2.151
		c0,0.176-0.059,0.254-0.137,0.254c-0.098,0-0.138-0.059-0.156-0.333l-0.02-0.214c-0.059-0.587-0.528-1.037-2.406-1.076
		l-2.465-0.039V-0.364z"/>
	<path d="M-158.306-3.806c0-3.051,0-3.599-0.04-4.225c-0.039-0.666-0.195-0.978-0.84-1.115c-0.157-0.04-0.489-0.059-0.666-0.059
		c-0.078,0-0.156-0.039-0.156-0.118c0-0.117,0.098-0.156,0.313-0.156c0.88,0,2.073,0.059,2.249,0.059s1.35-0.059,1.937-0.059
		c0.216,0,0.313,0.039,0.313,0.156c0,0.079-0.078,0.118-0.157,0.118c-0.137,0-0.255,0.02-0.489,0.059
		c-0.527,0.078-0.684,0.43-0.723,1.115c-0.04,0.625-0.04,1.173-0.04,4.225v2.738c0,2.817,0.626,4.029,1.468,4.831
		c0.958,0.9,1.838,1.076,2.953,1.076c1.193,0,2.367-0.568,3.07-1.408c0.9-1.115,1.135-2.777,1.135-4.792v-2.445
		c0-3.051,0-3.599-0.039-4.225c-0.039-0.666-0.195-0.978-0.841-1.115c-0.157-0.04-0.489-0.059-0.665-0.059
		c-0.078,0-0.156-0.039-0.156-0.118c0-0.117,0.098-0.156,0.312-0.156c0.881,0,1.957,0.059,2.074,0.059
		c0.137,0,1.056-0.059,1.643-0.059c0.215,0,0.312,0.039,0.312,0.156c0,0.079-0.078,0.118-0.156,0.118
		c-0.137,0-0.254,0.02-0.489,0.059c-0.528,0.116-0.685,0.43-0.724,1.115c-0.039,0.625-0.039,1.173-0.039,4.225v2.093
		c0,2.113-0.234,4.459-1.799,5.848c-1.409,1.252-2.875,1.448-4.029,1.448c-0.666,0-2.642-0.078-4.03-1.389
		c-0.958-0.919-1.701-2.289-1.701-5.144V-3.806z"/>
	<path d="M-136.768-0.364c0,1.879,0,3.424,0.098,4.246c0.059,0.567,0.176,0.997,0.763,1.075c0.273,0.04,0.704,0.079,0.88,0.079
		c0.117,0,0.156,0.058,0.156,0.117c0,0.098-0.098,0.157-0.312,0.157c-1.076,0-2.309-0.059-2.405-0.059
		c-0.099,0-1.331,0.059-1.917,0.059c-0.216,0-0.312-0.039-0.312-0.157c0-0.059,0.038-0.117,0.156-0.117
		c0.176,0,0.41-0.039,0.586-0.079c0.392-0.079,0.49-0.508,0.567-1.075c0.098-0.822,0.098-2.367,0.098-4.246v-8.273l-2.895,0.039
		c-1.213,0.02-1.683,0.156-1.995,0.626c-0.215,0.332-0.273,0.469-0.332,0.605c-0.059,0.157-0.118,0.196-0.195,0.196
		c-0.06,0-0.099-0.059-0.099-0.176c0-0.196,0.392-1.878,0.431-2.034c0.039-0.118,0.117-0.372,0.195-0.372
		c0.137,0,0.332,0.195,0.861,0.235c0.566,0.058,1.31,0.098,1.545,0.098h7.334c0.627,0,1.076-0.04,1.39-0.098
		c0.293-0.04,0.47-0.098,0.547-0.098c0.099,0,0.099,0.117,0.099,0.235c0,0.586-0.059,1.936-0.059,2.151
		c0,0.176-0.059,0.254-0.138,0.254c-0.097,0-0.137-0.059-0.156-0.333l-0.02-0.214c-0.059-0.587-0.528-1.037-2.405-1.076
		l-2.465-0.039V-0.364z"/>
	<path d="M-127.416-3.806c0-3.051,0-3.599-0.039-4.225c-0.039-0.666-0.195-0.978-0.841-1.115c-0.156-0.04-0.489-0.059-0.665-0.059
		c-0.078,0-0.156-0.039-0.156-0.118c0-0.117,0.098-0.156,0.312-0.156c0.449,0,0.979,0,1.408,0.02l0.802,0.04
		c0.137,0,4.03,0,4.479-0.02c0.371-0.02,0.686-0.059,0.842-0.098c0.098-0.02,0.176-0.098,0.273-0.098
		c0.059,0,0.078,0.078,0.078,0.176c0,0.137-0.098,0.372-0.157,0.92c-0.019,0.195-0.058,1.056-0.097,1.291
		c-0.021,0.098-0.06,0.215-0.137,0.215c-0.117,0-0.158-0.098-0.158-0.253c0-0.138-0.019-0.47-0.117-0.705
		c-0.137-0.313-0.332-0.547-1.389-0.666c-0.332-0.039-2.464-0.059-2.679-0.059c-0.079,0-0.118,0.059-0.118,0.195v5.399
		c0,0.137,0.02,0.195,0.118,0.195c0.254,0,2.659,0,3.11-0.039c0.469-0.04,0.742-0.079,0.919-0.274
		c0.137-0.156,0.215-0.254,0.293-0.254c0.06,0,0.098,0.039,0.098,0.157c0,0.117-0.098,0.45-0.156,1.095
		c-0.038,0.391-0.079,1.115-0.079,1.252c0,0.156,0,0.372-0.137,0.372c-0.098,0-0.137-0.079-0.137-0.176c0-0.195,0-0.391-0.077-0.646
		c-0.079-0.274-0.255-0.606-1.019-0.685c-0.527-0.058-2.463-0.097-2.797-0.097c-0.098,0-0.137,0.058-0.137,0.137v1.721
		c0,0.666-0.02,2.935,0,3.345c0.059,1.35,0.353,1.604,2.27,1.604c0.508,0,1.369,0,1.878-0.215c0.509-0.215,0.743-0.606,0.88-1.408
		c0.039-0.215,0.078-0.293,0.177-0.293c0.116,0,0.116,0.157,0.116,0.293c0,0.156-0.156,1.487-0.254,1.898
		c-0.137,0.509-0.293,0.509-1.057,0.509c-1.467,0-2.542-0.04-3.305-0.06c-0.764-0.039-1.232-0.059-1.526-0.059
		c-0.039,0-0.372,0-0.782,0.021c-0.391,0-0.842,0.039-1.135,0.039c-0.215,0-0.312-0.039-0.312-0.157
		c0-0.059,0.039-0.117,0.156-0.117c0.176,0,0.41-0.039,0.588-0.079c0.391-0.079,0.488-0.508,0.566-1.075
		c0.098-0.822,0.098-2.367,0.098-4.246V-3.806z"/>
	<path d="M-103.647-9.752c4.401,0,7.687,2.777,7.687,7.334c0,4.381-3.09,8-7.804,8c-5.359,0-7.59-4.166-7.59-7.687
		C-111.354-5.273-109.047-9.752-103.647-9.752z M-103.236,4.839c1.76,0,5.398-1.017,5.398-6.709c0-4.694-2.856-7.218-5.947-7.218
		c-3.266,0-5.711,2.152-5.711,6.436C-109.496,1.905-106.758,4.839-103.236,4.839z"/>
	<path d="M-91.811-3.806c0-3.051,0-3.599-0.04-4.225c-0.039-0.666-0.195-0.978-0.841-1.115c-0.156-0.04-0.488-0.059-0.666-0.059
		c-0.077,0-0.156-0.039-0.156-0.118c0-0.117,0.099-0.156,0.314-0.156c0.449,0,0.978,0,1.408,0.02l0.801,0.02
		c0.391,0,4.362,0.02,4.812,0c0.371-0.02,0.684-0.02,0.861-0.078c0.117-0.04,0.194-0.118,0.273-0.118
		c0.078,0,0.117,0.078,0.117,0.176c0,0.137-0.098,0.372-0.156,0.92c-0.021,0.195-0.06,1.056-0.098,1.291
		c-0.02,0.098-0.06,0.215-0.156,0.215c-0.099,0-0.139-0.098-0.139-0.235c0-0.156-0.058-0.488-0.176-0.743
		c-0.117-0.254-0.566-0.606-1.33-0.625l-3.012-0.059c-0.117,0-0.176,0.059-0.176,0.215v5.399c0,0.117,0.02,0.175,0.137,0.175
		l2.504-0.019c0.332,0,0.606,0,0.88-0.02c0.47-0.039,0.724-0.098,0.899-0.353c0.078-0.097,0.137-0.195,0.216-0.195
		c0.078,0,0.098,0.059,0.098,0.157c0,0.117-0.098,0.45-0.157,1.095c-0.039,0.391-0.078,1.173-0.078,1.311
		c0,0.176,0,0.372-0.137,0.372c-0.098,0-0.137-0.079-0.137-0.177c-0.02-0.195-0.039-0.469-0.117-0.704
		c-0.098-0.274-0.411-0.626-1.017-0.704c-0.489-0.059-2.621-0.059-2.954-0.059c-0.098,0-0.137,0.039-0.137,0.176v1.662
		c0,1.879,0,3.424,0.098,4.246c0.059,0.567,0.176,0.997,0.763,1.075c0.274,0.04,0.704,0.079,0.88,0.079
		c0.117,0,0.156,0.058,0.156,0.117c0,0.098-0.098,0.157-0.312,0.157c-1.076,0-2.309-0.059-2.406-0.059s-1.329,0.059-1.916,0.059
		c-0.216,0-0.312-0.039-0.312-0.157c0-0.059,0.039-0.117,0.156-0.117c0.176,0,0.41-0.039,0.587-0.079
		c0.391-0.079,0.488-0.508,0.566-1.075c0.099-0.822,0.099-2.367,0.099-4.246V-3.806z"/>
	<path d="M-220.693,14.487c0.234-0.646,0.312-0.764,0.43-0.764s0.195,0.098,0.43,0.705c0.295,0.743,3.365,8.822,4.559,11.795
		c0.703,1.74,1.271,2.054,1.682,2.171c0.293,0.098,0.588,0.118,0.782,0.118c0.118,0,0.196,0.02,0.196,0.117
		c0,0.117-0.177,0.156-0.391,0.156c-0.295,0-1.723,0-3.072-0.04c-0.371-0.019-0.587-0.019-0.587-0.137
		c0-0.078,0.06-0.117,0.138-0.137c0.117-0.039,0.234-0.215,0.117-0.528l-1.819-4.811c-0.038-0.079-0.078-0.118-0.175-0.118h-4.207
		c-0.098,0-0.156,0.059-0.195,0.156l-1.174,3.462c-0.176,0.488-0.273,0.958-0.273,1.31c0,0.391,0.41,0.568,0.744,0.568h0.195
		c0.137,0,0.195,0.039,0.195,0.117c0,0.117-0.117,0.156-0.293,0.156c-0.47,0-1.311-0.058-1.526-0.058
		c-0.215,0-1.291,0.058-2.21,0.058c-0.254,0-0.371-0.04-0.371-0.156c0-0.079,0.077-0.117,0.176-0.117c0.137,0,0.41-0.02,0.567-0.04
		c0.899-0.117,1.29-0.86,1.643-1.838L-220.693,14.487z M-218.659,22.31c0.097,0,0.097-0.058,0.077-0.137l-1.857-5.281
		c-0.098-0.294-0.195-0.294-0.293,0l-1.723,5.281c-0.038,0.098,0,0.137,0.061,0.137H-218.659z"/>
	<path d="M-209.815,19.67c0-3.051,0-3.599-0.04-4.225c-0.039-0.665-0.195-0.979-0.84-1.115c-0.156-0.039-0.489-0.058-0.666-0.058
		c-0.078,0-0.156-0.04-0.156-0.117c0-0.118,0.098-0.157,0.313-0.157c0.88,0,2.112,0.059,2.21,0.059c0.215,0,1.701-0.059,2.309-0.059
		c1.232,0,2.542,0.118,3.578,0.861c0.489,0.352,1.35,1.31,1.35,2.66c0,1.447-0.605,2.895-2.366,4.519
		c1.604,2.054,2.935,3.794,4.069,5.007c1.055,1.115,1.896,1.33,2.386,1.409c0.372,0.059,0.646,0.059,0.763,0.059
		c0.098,0,0.176,0.058,0.176,0.117c0,0.117-0.117,0.156-0.469,0.156h-1.39c-1.095,0-1.584-0.098-2.093-0.372
		c-0.841-0.45-1.525-1.408-2.641-2.875c-0.821-1.075-1.74-2.386-2.131-2.895c-0.079-0.078-0.137-0.117-0.255-0.117l-2.406-0.04
		c-0.097,0-0.137,0.059-0.137,0.157v0.47c0,1.877,0,3.423,0.098,4.244c0.06,0.567,0.177,0.999,0.763,1.076
		c0.273,0.039,0.705,0.079,0.881,0.079c0.117,0,0.156,0.058,0.156,0.117c0,0.098-0.098,0.156-0.312,0.156
		c-1.076,0-2.309-0.058-2.406-0.058c-0.02,0-1.252,0.058-1.839,0.058c-0.216,0-0.312-0.04-0.312-0.156
		c0-0.059,0.039-0.117,0.156-0.117c0.176,0,0.411-0.04,0.587-0.079c0.391-0.078,0.488-0.509,0.566-1.076
		c0.099-0.821,0.099-2.367,0.099-4.244V19.67z M-208.251,21.372c0,0.097,0.04,0.176,0.137,0.234
		c0.294,0.176,1.193,0.313,2.054,0.313c0.471,0,1.018-0.059,1.468-0.372c0.685-0.469,1.192-1.525,1.192-3.012
		c0-2.445-1.291-3.912-3.384-3.912c-0.587,0-1.114,0.059-1.31,0.118c-0.098,0.039-0.157,0.117-0.157,0.234V21.372z"/>
	<path d="M-191.877,23.113c0,1.877,0,3.423,0.098,4.244c0.059,0.567,0.176,0.999,0.763,1.076c0.274,0.039,0.704,0.079,0.88,0.079
		c0.118,0,0.156,0.058,0.156,0.117c0,0.098-0.098,0.156-0.312,0.156c-1.076,0-2.309-0.058-2.405-0.058
		c-0.099,0-1.331,0.058-1.917,0.058c-0.215,0-0.312-0.04-0.312-0.156c0-0.059,0.039-0.117,0.156-0.117
		c0.176,0,0.41-0.04,0.586-0.079c0.392-0.078,0.49-0.509,0.567-1.076c0.099-0.821,0.099-2.367,0.099-4.244v-8.274l-2.896,0.04
		c-1.213,0.02-1.683,0.156-1.995,0.626c-0.215,0.333-0.273,0.47-0.332,0.606c-0.059,0.156-0.118,0.196-0.195,0.196
		c-0.06,0-0.098-0.059-0.098-0.176c0-0.195,0.391-1.878,0.43-2.035c0.039-0.117,0.117-0.372,0.195-0.372
		c0.137,0,0.333,0.196,0.861,0.235c0.566,0.059,1.31,0.098,1.545,0.098h7.335c0.626,0,1.075-0.039,1.389-0.098
		c0.293-0.039,0.47-0.097,0.548-0.097c0.098,0,0.098,0.117,0.098,0.234c0,0.588-0.06,1.937-0.06,2.152
		c0,0.176-0.058,0.254-0.137,0.254c-0.097,0-0.137-0.058-0.156-0.333l-0.02-0.215c-0.058-0.586-0.528-1.036-2.405-1.075l-2.465-0.04
		V23.113z"/>
	<path d="M-164.354,23.113c0,1.877,0,3.423,0.098,4.244c0.059,0.567,0.176,0.999,0.764,1.076c0.273,0.039,0.704,0.079,0.88,0.079
		c0.117,0,0.156,0.058,0.156,0.117c0,0.098-0.097,0.156-0.312,0.156c-1.076,0-2.309-0.058-2.405-0.058
		c-0.099,0-1.331,0.058-1.918,0.058c-0.215,0-0.312-0.04-0.312-0.156c0-0.059,0.039-0.117,0.156-0.117
		c0.176,0,0.41-0.04,0.587-0.079c0.392-0.078,0.489-0.509,0.567-1.076c0.098-0.821,0.098-2.367,0.098-4.244v-2.054
		c0-0.078-0.059-0.117-0.117-0.117h-8.293c-0.06,0-0.117,0.019-0.117,0.117v2.054c0,1.877,0,3.423,0.098,4.244
		c0.058,0.567,0.176,0.999,0.763,1.076c0.273,0.039,0.703,0.079,0.88,0.079c0.117,0,0.156,0.058,0.156,0.117
		c0,0.098-0.098,0.156-0.312,0.156c-1.076,0-2.309-0.058-2.406-0.058s-1.33,0.058-1.917,0.058c-0.216,0-0.312-0.04-0.312-0.156
		c0-0.059,0.039-0.117,0.156-0.117c0.176,0,0.411-0.04,0.587-0.079c0.391-0.078,0.488-0.509,0.566-1.076
		c0.099-0.821,0.099-2.367,0.099-4.244V19.67c0-3.051,0-3.599-0.04-4.225c-0.039-0.665-0.195-0.979-0.84-1.115
		c-0.156-0.039-0.489-0.058-0.666-0.058c-0.078,0-0.156-0.04-0.156-0.117c0-0.118,0.098-0.157,0.313-0.157
		c0.88,0,2.112,0.059,2.21,0.059s1.33-0.059,1.917-0.059c0.215,0,0.312,0.039,0.312,0.157c0,0.078-0.077,0.117-0.156,0.117
		c-0.137,0-0.255,0.019-0.489,0.058c-0.527,0.098-0.684,0.431-0.724,1.115c-0.038,0.626-0.038,1.174-0.038,4.225v0.411
		c0,0.098,0.058,0.118,0.117,0.118h8.293c0.059,0,0.117-0.021,0.117-0.118V19.67c0-3.051,0-3.599-0.039-4.225
		c-0.039-0.665-0.195-0.979-0.842-1.115c-0.156-0.039-0.488-0.058-0.664-0.058c-0.078,0-0.157-0.04-0.157-0.117
		c0-0.118,0.099-0.157,0.313-0.157c0.88,0,2.112,0.059,2.211,0.059c0.097,0,1.329-0.059,1.916-0.059
		c0.215,0,0.312,0.039,0.312,0.157c0,0.078-0.078,0.117-0.156,0.117c-0.137,0-0.254,0.019-0.488,0.058
		c-0.529,0.098-0.686,0.431-0.724,1.115c-0.04,0.626-0.04,1.174-0.04,4.225V23.113z"/>
	<path d="M-155.744,23.113c0,1.877,0,3.423,0.099,4.244c0.058,0.567,0.176,0.999,0.763,1.076c0.273,0.039,0.703,0.079,0.88,0.079
		c0.118,0,0.156,0.058,0.156,0.117c0,0.098-0.098,0.156-0.312,0.156c-1.075,0-2.309-0.058-2.406-0.058
		c-0.097,0-1.329,0.058-1.917,0.058c-0.215,0-0.312-0.04-0.312-0.156c0-0.059,0.039-0.117,0.156-0.117
		c0.176,0,0.41-0.04,0.588-0.079c0.391-0.078,0.488-0.509,0.566-1.076c0.098-0.821,0.098-2.367,0.098-4.244V19.67
		c0-3.051,0-3.599-0.039-4.225c-0.039-0.665-0.234-0.997-0.665-1.095c-0.216-0.059-0.47-0.078-0.606-0.078
		c-0.078,0-0.156-0.04-0.156-0.117c0-0.118,0.098-0.157,0.312-0.157c0.646,0,1.879,0.059,1.976,0.059
		c0.098,0,1.331-0.059,1.917-0.059c0.215,0,0.312,0.039,0.312,0.157c0,0.078-0.077,0.117-0.156,0.117
		c-0.137,0-0.254,0.019-0.488,0.058c-0.528,0.098-0.685,0.431-0.725,1.115c-0.039,0.626-0.039,1.174-0.039,4.225V23.113z"/>
	<path d="M-150.03,28.531c-0.274-0.137-0.294-0.215-0.294-0.744c0-0.978,0.078-1.76,0.098-2.073c0.02-0.216,0.06-0.313,0.157-0.313
		c0.116,0,0.137,0.058,0.137,0.215c0,0.176,0,0.449,0.059,0.723c0.293,1.448,1.585,1.995,2.895,1.995
		c1.878,0,2.798-1.35,2.798-2.602c0-1.349-0.568-2.132-2.25-3.521l-0.88-0.723c-2.073-1.702-2.543-2.914-2.543-4.245
		c0-2.093,1.565-3.521,4.05-3.521c0.762,0,1.329,0.08,1.818,0.196c0.371,0.079,0.527,0.098,0.685,0.098
		c0.156,0,0.195,0.039,0.195,0.137c0,0.098-0.079,0.743-0.079,2.073c0,0.313-0.038,0.45-0.137,0.45
		c-0.117,0-0.137-0.097-0.156-0.254c-0.02-0.235-0.137-0.763-0.254-0.978c-0.117-0.215-0.646-1.037-2.444-1.037
		c-1.351,0-2.407,0.841-2.407,2.269c0,1.115,0.51,1.819,2.387,3.287l0.549,0.43c2.307,1.819,2.855,3.032,2.855,4.596
		c0,0.802-0.313,2.289-1.664,3.247c-0.84,0.587-1.896,0.822-2.952,0.822C-148.329,29.059-149.229,28.922-150.03,28.531z"/>
	<path d="M-133.462,23.113c0,1.877,0,3.423,0.099,4.244c0.058,0.567,0.176,0.999,0.762,1.076c0.273,0.039,0.705,0.079,0.881,0.079
		c0.117,0,0.156,0.058,0.156,0.117c0,0.098-0.098,0.156-0.312,0.156c-1.076,0-2.309-0.058-2.406-0.058s-1.33,0.058-1.917,0.058
		c-0.216,0-0.312-0.04-0.312-0.156c0-0.059,0.038-0.117,0.156-0.117c0.175,0,0.41-0.04,0.587-0.079
		c0.391-0.078,0.489-0.509,0.566-1.076c0.098-0.821,0.098-2.367,0.098-4.244v-8.274l-2.895,0.04
		c-1.213,0.02-1.682,0.156-1.994,0.626c-0.216,0.333-0.274,0.47-0.334,0.606c-0.058,0.156-0.117,0.196-0.194,0.196
		c-0.06,0-0.099-0.059-0.099-0.176c0-0.195,0.392-1.878,0.43-2.035c0.04-0.117,0.118-0.372,0.197-0.372
		c0.137,0,0.332,0.196,0.859,0.235c0.567,0.059,1.311,0.098,1.546,0.098h7.335c0.626,0,1.075-0.039,1.389-0.098
		c0.293-0.039,0.47-0.097,0.547-0.097c0.099,0,0.099,0.117,0.099,0.234c0,0.588-0.058,1.937-0.058,2.152
		c0,0.176-0.06,0.254-0.139,0.254c-0.097,0-0.137-0.058-0.156-0.333l-0.02-0.215c-0.059-0.586-0.527-1.036-2.405-1.075l-2.465-0.04
		V23.113z"/>
	<path d="M-119.22,13.723c4.401,0,7.687,2.778,7.687,7.335c0,4.381-3.091,8-7.804,8c-5.36,0-7.59-4.166-7.59-7.687
		C-126.927,18.203-124.619,13.723-119.22,13.723z M-118.809,28.315c1.76,0,5.398-1.017,5.398-6.709c0-4.694-2.856-7.217-5.947-7.217
		c-3.267,0-5.711,2.152-5.711,6.435C-125.068,25.381-122.33,28.315-118.809,28.315z"/>
	<path d="M-107.383,19.67c0-3.051,0-3.599-0.04-4.225c-0.039-0.665-0.195-0.979-0.841-1.115c-0.156-0.039-0.489-0.058-0.666-0.058
		c-0.077,0-0.156-0.04-0.156-0.117c0-0.118,0.098-0.157,0.314-0.157c0.879,0,2.111,0.059,2.209,0.059
		c0.215,0,1.702-0.059,2.309-0.059c1.232,0,2.543,0.118,3.579,0.861c0.489,0.352,1.35,1.31,1.35,2.66
		c0,1.447-0.606,2.895-2.366,4.519c1.604,2.054,2.934,3.794,4.068,5.007c1.056,1.115,1.896,1.33,2.387,1.409
		c0.371,0.059,0.645,0.059,0.762,0.059c0.099,0,0.176,0.058,0.176,0.117c0,0.117-0.117,0.156-0.469,0.156h-1.389
		c-1.096,0-1.584-0.098-2.093-0.372c-0.841-0.45-1.525-1.408-2.641-2.875c-0.821-1.075-1.741-2.386-2.132-2.895
		c-0.078-0.078-0.137-0.117-0.254-0.117l-2.406-0.04c-0.098,0-0.137,0.059-0.137,0.157v0.47c0,1.877,0,3.423,0.098,4.244
		c0.059,0.567,0.176,0.999,0.762,1.076c0.274,0.039,0.705,0.079,0.881,0.079c0.117,0,0.156,0.058,0.156,0.117
		c0,0.098-0.098,0.156-0.312,0.156c-1.076,0-2.308-0.058-2.406-0.058c-0.02,0-1.252,0.058-1.838,0.058
		c-0.216,0-0.312-0.04-0.312-0.156c0-0.059,0.038-0.117,0.156-0.117c0.176,0,0.41-0.04,0.586-0.079
		c0.392-0.078,0.488-0.509,0.567-1.076c0.099-0.821,0.099-2.367,0.099-4.244V19.67z M-105.818,21.372
		c0,0.097,0.039,0.176,0.137,0.234c0.293,0.176,1.193,0.313,2.054,0.313c0.47,0,1.017-0.059,1.468-0.372
		c0.684-0.469,1.192-1.525,1.192-3.012c0-2.445-1.291-3.912-3.384-3.912c-0.588,0-1.115,0.059-1.311,0.118
		c-0.098,0.039-0.156,0.117-0.156,0.234V21.372z"/>
	<path d="M-90.854,23.719c0-1.057-0.195-1.487-0.449-2.054c-0.137-0.312-2.758-4.616-3.443-5.633
		c-0.488-0.724-0.978-1.212-1.33-1.447c-0.293-0.196-0.664-0.313-0.84-0.313c-0.098,0-0.196-0.04-0.196-0.137
		c0-0.079,0.079-0.137,0.255-0.137c0.371,0,1.838,0.059,1.936,0.059c0.138,0,0.881-0.059,1.644-0.059
		c0.215,0,0.255,0.059,0.255,0.137c0,0.078-0.117,0.097-0.295,0.176c-0.156,0.078-0.254,0.195-0.254,0.352
		c0,0.235,0.098,0.469,0.254,0.763c0.314,0.567,3.248,5.614,3.6,6.181c0.371-0.821,2.855-5.104,3.247-5.75
		c0.255-0.411,0.333-0.743,0.333-0.997c0-0.274-0.078-0.489-0.313-0.547c-0.176-0.059-0.293-0.098-0.293-0.196
		c0-0.079,0.117-0.118,0.312-0.118c0.509,0,1.136,0.059,1.291,0.059c0.118,0,1.526-0.059,1.897-0.059
		c0.137,0,0.254,0.039,0.254,0.118c0,0.098-0.098,0.156-0.254,0.156c-0.215,0-0.587,0.078-0.9,0.273
		c-0.391,0.235-0.605,0.47-1.037,0.998c-0.645,0.782-3.383,5.378-3.734,6.22c-0.295,0.705-0.295,1.311-0.295,1.957v1.682
		c0,0.313,0,1.135,0.06,1.956c0.039,0.567,0.215,0.999,0.802,1.076c0.273,0.039,0.705,0.079,0.881,0.079
		c0.117,0,0.156,0.058,0.156,0.117c0,0.098-0.098,0.156-0.312,0.156c-1.076,0-2.309-0.058-2.406-0.058s-1.33,0.058-1.918,0.058
		c-0.214,0-0.312-0.04-0.312-0.156c0-0.059,0.039-0.117,0.156-0.117c0.177,0,0.411-0.04,0.588-0.079
		c0.391-0.078,0.566-0.509,0.606-1.076c0.058-0.821,0.058-1.642,0.058-1.956V23.719z"/>
</g>
<g>
	<path d="M171.9,8.894l-2.85,0.076c-1.109,0.039-1.57,0.134-1.855,0.555c-0.193,0.287-0.287,0.517-0.326,0.67
		c-0.039,0.153-0.096,0.229-0.211,0.229c-0.133,0-0.172-0.095-0.172-0.306c0-0.306,0.363-2.047,0.402-2.2
		c0.057-0.249,0.113-0.363,0.229-0.363c0.154,0,0.346,0.191,0.824,0.229c0.555,0.058,1.281,0.096,1.912,0.096h7.578
		c0.611,0,1.031-0.058,1.318-0.096c0.287-0.057,0.441-0.096,0.518-0.096c0.135,0,0.152,0.115,0.152,0.402
		c0,0.402-0.057,1.722-0.057,2.219c-0.02,0.191-0.059,0.306-0.172,0.306c-0.154,0-0.191-0.095-0.211-0.382l-0.02-0.21
		c-0.037-0.498-0.555-1.033-2.258-1.072l-2.41-0.057v7.844c0,1.76,0,3.272,0.096,4.095c0.057,0.536,0.172,0.957,0.746,1.033
		c0.268,0.038,0.688,0.076,0.977,0.076c0.209,0,0.305,0.058,0.305,0.153c0,0.134-0.152,0.191-0.363,0.191
		c-1.262,0-2.469-0.058-3.004-0.058c-0.439,0-1.645,0.058-2.41,0.058c-0.25,0-0.383-0.058-0.383-0.191
		c0-0.096,0.076-0.153,0.305-0.153c0.289,0,0.518-0.038,0.689-0.076c0.383-0.077,0.498-0.498,0.557-1.052
		c0.094-0.804,0.094-2.315,0.094-4.076V8.894z"/>
	<path d="M192.758,13.907c0.059,0,0.115-0.039,0.115-0.134v-0.402c0-2.908,0-3.443-0.039-4.056
		c-0.037-0.651-0.189-0.957-0.822-1.091c-0.152-0.038-0.479-0.057-0.746-0.057c-0.211,0-0.324-0.038-0.324-0.172
		c0-0.134,0.133-0.173,0.4-0.173c1.035,0,2.24,0.058,2.756,0.058c0.459,0,1.664-0.058,2.41-0.058c0.27,0,0.402,0.039,0.402,0.173
		c0,0.134-0.115,0.172-0.344,0.172c-0.154,0-0.326,0.019-0.557,0.057c-0.516,0.096-0.668,0.421-0.707,1.091
		c-0.039,0.612-0.039,1.148-0.039,4.056v3.368c0,1.76,0,3.272,0.098,4.095c0.057,0.536,0.172,0.957,0.746,1.033
		c0.268,0.038,0.688,0.076,0.975,0.076c0.211,0,0.307,0.058,0.307,0.153c0,0.134-0.154,0.191-0.383,0.191
		c-1.244,0-2.449-0.058-2.984-0.058c-0.439,0-1.645,0.058-2.391,0.058c-0.27,0-0.404-0.058-0.404-0.191
		c0-0.096,0.078-0.153,0.307-0.153c0.287,0,0.518-0.038,0.689-0.076c0.383-0.077,0.479-0.498,0.555-1.052
		c0.096-0.804,0.096-2.315,0.096-4.076v-1.684c0-0.076-0.057-0.115-0.115-0.115h-7.309c-0.057,0-0.115,0.019-0.115,0.115v1.684
		c0,1.76,0,3.272,0.096,4.095c0.059,0.536,0.172,0.957,0.746,1.033c0.268,0.038,0.689,0.076,0.977,0.076
		c0.211,0,0.307,0.058,0.307,0.153c0,0.134-0.154,0.191-0.383,0.191c-1.244,0-2.449-0.058-2.984-0.058
		c-0.441,0-1.646,0.058-2.412,0.058c-0.248,0-0.383-0.058-0.383-0.191c0-0.096,0.078-0.153,0.307-0.153
		c0.287,0,0.518-0.038,0.689-0.076c0.383-0.077,0.479-0.498,0.555-1.052c0.096-0.804,0.096-2.315,0.096-4.076v-3.368
		c0-2.908,0-3.443-0.039-4.056c-0.037-0.651-0.191-0.957-0.822-1.091c-0.152-0.038-0.479-0.057-0.746-0.057
		c-0.211,0-0.324-0.038-0.324-0.172c0-0.134,0.133-0.173,0.4-0.173c1.033,0,2.238,0.058,2.756,0.058c0.459,0,1.664-0.058,2.41-0.058
		c0.268,0,0.402,0.039,0.402,0.173c0,0.134-0.115,0.172-0.344,0.172c-0.154,0-0.326,0.019-0.557,0.057
		c-0.516,0.096-0.668,0.421-0.707,1.091c-0.039,0.612-0.039,1.148-0.039,4.056v0.402c0,0.095,0.059,0.134,0.115,0.134H192.758z"/>
	<path d="M201.543,13.371c0-2.908,0-3.443-0.037-4.056c-0.039-0.651-0.191-0.957-0.822-1.091c-0.154-0.038-0.479-0.057-0.746-0.057
		c-0.211,0-0.326-0.038-0.326-0.172c0-0.134,0.135-0.173,0.42-0.173c0.518,0,1.072,0.02,1.551,0.02
		c0.498,0.019,0.938,0.038,1.205,0.038c0.613,0,4.42,0,4.783-0.019c0.363-0.039,0.67-0.077,0.822-0.115
		c0.096-0.019,0.211-0.077,0.307-0.077s0.115,0.077,0.115,0.173c0,0.134-0.096,0.363-0.152,1.243
		c-0.02,0.191-0.059,1.033-0.098,1.263c-0.018,0.096-0.057,0.21-0.191,0.21c-0.133,0-0.172-0.095-0.172-0.268
		c0-0.134-0.018-0.459-0.115-0.688c-0.133-0.345-0.324-0.574-1.281-0.689c-0.324-0.038-2.334-0.077-2.717-0.077
		c-0.096,0-0.135,0.058-0.135,0.191v4.84c0,0.134,0.02,0.211,0.135,0.211c0.422,0,2.621,0,3.061-0.039
		c0.461-0.038,0.746-0.095,0.92-0.287c0.133-0.153,0.211-0.249,0.305-0.249c0.078,0,0.135,0.038,0.135,0.153
		c0,0.115-0.076,0.421-0.152,1.396c-0.02,0.383-0.076,1.148-0.076,1.282c0,0.153,0,0.363-0.174,0.363
		c-0.133,0-0.172-0.077-0.172-0.172c-0.018-0.191-0.018-0.44-0.076-0.688c-0.096-0.383-0.363-0.669-1.072-0.747
		c-0.363-0.038-2.258-0.057-2.717-0.057c-0.096,0-0.115,0.077-0.115,0.191v1.511c0,0.651-0.018,2.411,0,2.966
		c0.039,1.32,0.346,1.607,2.297,1.607c0.498,0,1.301,0,1.799-0.23c0.498-0.229,0.727-0.631,0.861-1.416
		c0.037-0.21,0.076-0.287,0.209-0.287c0.154,0,0.154,0.153,0.154,0.344c0,0.44-0.154,1.741-0.248,2.124
		c-0.135,0.498-0.307,0.498-1.035,0.498c-1.434,0-2.486-0.039-3.309-0.058c-0.822-0.039-1.416-0.058-1.99-0.058
		c-0.211,0-0.631,0-1.09,0.019c-0.439,0-0.938,0.039-1.32,0.039c-0.25,0-0.383-0.058-0.383-0.191c0-0.096,0.076-0.153,0.307-0.153
		c0.285,0,0.516-0.038,0.688-0.076c0.383-0.077,0.479-0.498,0.555-1.052c0.096-0.804,0.096-2.315,0.096-4.076V13.371z"/>
	<path d="M8.383,36.334c0-2.908,0-3.444-0.037-4.056c-0.039-0.651-0.191-0.957-0.822-1.09C7.369,31.15,7.045,31.13,6.776,31.13
		c-0.21,0-0.325-0.038-0.325-0.172c0-0.134,0.134-0.172,0.421-0.172c0.517,0,1.072,0.019,1.55,0.019
		c0.498,0.02,0.938,0.039,1.205,0.039c0.613,0,4.42,0,4.783-0.019c0.363-0.038,0.67-0.077,0.822-0.116
		c0.096-0.018,0.211-0.076,0.307-0.076s0.115,0.076,0.115,0.172c0,0.134-0.096,0.363-0.152,1.244
		c-0.02,0.191-0.059,1.033-0.098,1.262c-0.018,0.096-0.057,0.21-0.191,0.21c-0.133,0-0.172-0.095-0.172-0.268
		c0-0.134-0.018-0.458-0.115-0.688c-0.133-0.344-0.324-0.574-1.281-0.689c-0.324-0.038-2.334-0.077-2.717-0.077
		c-0.096,0-0.135,0.058-0.135,0.192v4.84c0,0.135,0.02,0.211,0.135,0.211c0.422,0,2.621,0,3.061-0.039
		c0.461-0.038,0.748-0.095,0.92-0.287c0.133-0.154,0.211-0.249,0.305-0.249c0.078,0,0.135,0.038,0.135,0.153
		c0,0.115-0.076,0.421-0.152,1.396c-0.02,0.383-0.076,1.148-0.076,1.283c0,0.153,0,0.363-0.174,0.363
		c-0.133,0-0.172-0.077-0.172-0.172c-0.018-0.191-0.018-0.44-0.076-0.689c-0.096-0.383-0.363-0.669-1.072-0.747
		c-0.363-0.038-2.258-0.057-2.717-0.057c-0.096,0-0.115,0.077-0.115,0.192v1.511c0,0.651-0.018,2.411,0,2.966
		c0.039,1.319,0.346,1.606,2.297,1.606c0.498,0,1.301,0,1.799-0.23c0.498-0.229,0.727-0.631,0.861-1.416
		c0.037-0.21,0.076-0.287,0.211-0.287c0.152,0,0.152,0.153,0.152,0.344c0,0.44-0.152,1.742-0.248,2.125
		c-0.135,0.497-0.307,0.497-1.035,0.497c-1.434,0-2.486-0.039-3.309-0.057c-0.822-0.039-1.416-0.058-1.99-0.058
		c-0.211,0-0.631,0-1.09,0.019c-0.441,0-0.939,0.039-1.32,0.039c-0.25,0-0.383-0.058-0.383-0.191c0-0.096,0.077-0.154,0.307-0.154
		c0.285,0,0.516-0.038,0.688-0.076c0.383-0.076,0.479-0.497,0.555-1.052c0.096-0.803,0.096-2.315,0.096-4.075V36.334z"/>
	<path d="M20.477,36.334c0-2.908,0-3.444-0.037-4.056c-0.039-0.651-0.191-0.957-0.822-1.09c-0.154-0.038-0.479-0.058-0.746-0.058
		c-0.211,0-0.326-0.038-0.326-0.172c0-0.134,0.133-0.172,0.42-0.172c1.016,0,2.221,0.057,2.756,0.057
		c0.594,0,1.799-0.057,2.947-0.057c2.391,0,5.586,0,7.672,2.181c0.957,0.996,1.855,2.583,1.855,4.86c0,2.41-1.014,4.248-2.086,5.338
		c-0.879,0.899-2.869,2.258-6.408,2.258c-0.689,0-1.475-0.058-2.201-0.115s-1.396-0.115-1.875-0.115c-0.211,0-0.631,0-1.09,0.019
		c-0.439,0-0.939,0.039-1.32,0.039c-0.25,0-0.383-0.058-0.383-0.191c0-0.096,0.076-0.154,0.307-0.154
		c0.285,0,0.516-0.038,0.688-0.076c0.383-0.076,0.479-0.497,0.555-1.052c0.096-0.803,0.096-2.315,0.096-4.075V36.334z
		 M22.869,38.439c0,2.028,0.018,3.502,0.037,3.865c0.02,0.478,0.059,1.243,0.211,1.454c0.248,0.363,0.994,0.765,2.508,0.765
		c1.951,0,3.252-0.383,4.4-1.378c1.225-1.053,1.607-2.793,1.607-4.764c0-2.429-1.016-3.999-1.838-4.783
		c-1.76-1.684-3.941-1.914-5.434-1.914c-0.383,0-1.092,0.057-1.244,0.134c-0.172,0.076-0.23,0.172-0.23,0.383
		c-0.018,0.65-0.018,2.315-0.018,3.826V38.439z"/>
	<path d="M38.197,36.334c0-2.908,0-3.444-0.039-4.056c-0.037-0.651-0.229-0.977-0.65-1.072c-0.209-0.057-0.459-0.077-0.688-0.077
		c-0.191,0-0.307-0.038-0.307-0.191c0-0.114,0.152-0.152,0.459-0.152c0.729,0,1.932,0.057,2.488,0.057
		c0.479,0,1.607-0.057,2.334-0.057c0.248,0,0.4,0.038,0.4,0.152c0,0.154-0.113,0.191-0.305,0.191s-0.346,0.02-0.574,0.058
		c-0.518,0.096-0.67,0.42-0.709,1.09c-0.037,0.612-0.037,1.148-0.037,4.056v3.368c0,1.855,0,3.368,0.076,4.19
		c0.057,0.516,0.191,0.861,0.766,0.937c0.268,0.038,0.689,0.076,0.977,0.076c0.209,0,0.305,0.058,0.305,0.154
		c0,0.134-0.152,0.191-0.363,0.191c-1.262,0-2.469-0.058-2.984-0.058c-0.441,0-1.645,0.058-2.412,0.058
		c-0.248,0-0.381-0.058-0.381-0.191c0-0.096,0.076-0.154,0.307-0.154c0.285,0,0.516-0.038,0.688-0.076
		c0.383-0.076,0.498-0.401,0.555-0.957c0.096-0.803,0.096-2.315,0.096-4.171V36.334z"/>
	<path d="M49.391,31.858l-2.85,0.076c-1.109,0.039-1.57,0.135-1.855,0.555c-0.193,0.288-0.287,0.518-0.326,0.669
		c-0.039,0.153-0.096,0.229-0.211,0.229c-0.133,0-0.172-0.095-0.172-0.306c0-0.306,0.363-2.047,0.402-2.2
		c0.057-0.249,0.113-0.364,0.229-0.364c0.154,0,0.346,0.191,0.824,0.23c0.555,0.057,1.281,0.096,1.912,0.096h7.578
		c0.611,0,1.031-0.057,1.318-0.096c0.287-0.057,0.441-0.096,0.518-0.096c0.135,0,0.152,0.115,0.152,0.402
		c0,0.402-0.057,1.722-0.057,2.22c-0.02,0.191-0.057,0.306-0.172,0.306c-0.154,0-0.191-0.096-0.211-0.383l-0.02-0.21
		c-0.037-0.498-0.555-1.033-2.258-1.071l-2.41-0.058v7.844c0,1.76,0,3.272,0.096,4.095c0.057,0.536,0.172,0.957,0.746,1.033
		c0.268,0.038,0.688,0.076,0.977,0.076c0.209,0,0.305,0.058,0.305,0.154c0,0.134-0.152,0.191-0.363,0.191
		c-1.262,0-2.469-0.058-3.004-0.058c-0.439,0-1.645,0.058-2.41,0.058c-0.25,0-0.383-0.058-0.383-0.191
		c0-0.096,0.076-0.154,0.305-0.154c0.289,0,0.518-0.038,0.689-0.076c0.383-0.076,0.498-0.497,0.557-1.052
		c0.094-0.803,0.094-2.315,0.094-4.075V31.858z"/>
	<path d="M70.248,36.871c0.059,0,0.115-0.039,0.115-0.134v-0.402c0-2.908,0-3.444-0.039-4.056c-0.037-0.651-0.189-0.957-0.822-1.09
		c-0.152-0.038-0.479-0.058-0.746-0.058c-0.209,0-0.324-0.038-0.324-0.172c0-0.134,0.133-0.172,0.4-0.172
		c1.035,0,2.238,0.057,2.756,0.057c0.459,0,1.664-0.057,2.41-0.057c0.27,0,0.402,0.038,0.402,0.172c0,0.134-0.115,0.172-0.344,0.172
		c-0.152,0-0.326,0.02-0.555,0.058c-0.518,0.096-0.67,0.42-0.709,1.09c-0.037,0.612-0.037,1.148-0.037,4.056v3.368
		c0,1.76,0,3.272,0.096,4.095c0.057,0.536,0.172,0.957,0.746,1.033c0.268,0.038,0.688,0.076,0.975,0.076
		c0.211,0,0.307,0.058,0.307,0.154c0,0.134-0.154,0.191-0.383,0.191c-1.244,0-2.449-0.058-2.984-0.058
		c-0.441,0-1.645,0.058-2.391,0.058c-0.27,0-0.402-0.058-0.402-0.191c0-0.096,0.076-0.154,0.305-0.154
		c0.287,0,0.518-0.038,0.689-0.076c0.383-0.076,0.479-0.497,0.555-1.052c0.096-0.803,0.096-2.315,0.096-4.075v-1.684
		c0-0.076-0.057-0.114-0.115-0.114h-7.309c-0.057,0-0.115,0.018-0.115,0.114v1.684c0,1.76,0,3.272,0.096,4.095
		c0.059,0.536,0.172,0.957,0.746,1.033c0.27,0.038,0.689,0.076,0.977,0.076c0.211,0,0.307,0.058,0.307,0.154
		c0,0.134-0.154,0.191-0.383,0.191c-1.244,0-2.449-0.058-2.984-0.058c-0.441,0-1.646,0.058-2.412,0.058
		c-0.248,0-0.383-0.058-0.383-0.191c0-0.096,0.078-0.154,0.307-0.154c0.287,0,0.518-0.038,0.689-0.076
		c0.383-0.076,0.479-0.497,0.555-1.052c0.096-0.803,0.096-2.315,0.096-4.075v-3.368c0-2.908,0-3.444-0.039-4.056
		c-0.037-0.651-0.189-0.957-0.822-1.09c-0.152-0.038-0.479-0.058-0.746-0.058c-0.211,0-0.324-0.038-0.324-0.172
		c0-0.134,0.133-0.172,0.4-0.172c1.033,0,2.238,0.057,2.756,0.057c0.459,0,1.664-0.057,2.41-0.057c0.27,0,0.402,0.038,0.402,0.172
		c0,0.134-0.115,0.172-0.344,0.172c-0.154,0-0.326,0.02-0.557,0.058c-0.516,0.096-0.668,0.42-0.707,1.09
		c-0.039,0.612-0.039,1.148-0.039,4.056v0.402c0,0.095,0.059,0.134,0.115,0.134H70.248z"/>
	<path d="M82.689,38.018c0-3.272,2.162-7.5,7.902-7.5c4.764,0,7.729,2.775,7.729,7.156c0,4.381-3.061,7.844-7.92,7.844
		C84.908,45.519,82.689,41.405,82.689,38.018z M95.643,38.382c0-4.285-2.469-6.946-5.605-6.946c-2.201,0-4.707,1.225-4.707,5.989
		c0,3.98,2.199,7.137,5.873,7.137C92.543,44.562,95.643,43.911,95.643,38.382z"/>
	<path d="M100.582,30.002c-0.191-0.192-0.211-0.249-0.211-0.345c0-0.057,0.115-0.153,0.211-0.153c0.383,0,1.225,0.249,1.588,0.364
		c0.479,0.134,0.555,0.268,0.555,0.555c0,1.167-1.244,3.214-2.105,4.094c-0.113,0.115-0.189,0.153-0.305,0.153
		c-0.059,0-0.115-0.038-0.115-0.115c0-0.038,0.02-0.095,0.096-0.249c0.344-0.669,0.746-1.798,0.746-2.984
		C101.041,30.691,100.754,30.174,100.582,30.002z"/>
	<path d="M106.686,36.334c0-2.908,0-3.444-0.039-4.056c-0.039-0.651-0.191-0.957-0.822-1.09c-0.154-0.038-0.479-0.058-0.746-0.058
		c-0.211,0-0.326-0.038-0.326-0.172c0-0.134,0.135-0.172,0.422-0.172c1.014,0,2.219,0.057,2.754,0.057
		c0.594,0,1.799-0.057,2.947-0.057c2.391,0,5.586,0,7.672,2.181c0.957,0.996,1.857,2.583,1.857,4.86c0,2.41-1.016,4.248-2.086,5.338
		c-0.881,0.899-2.871,2.258-6.41,2.258c-0.688,0-1.473-0.058-2.201-0.115c-0.727-0.057-1.396-0.115-1.875-0.115
		c-0.209,0-0.631,0-1.09,0.019c-0.439,0-0.938,0.039-1.32,0.039c-0.248,0-0.383-0.058-0.383-0.191c0-0.096,0.078-0.154,0.307-0.154
		c0.287,0,0.516-0.038,0.689-0.076c0.381-0.076,0.477-0.497,0.555-1.052c0.096-0.803,0.096-2.315,0.096-4.075V36.334z
		 M109.076,38.439c0,2.028,0.02,3.502,0.039,3.865c0.02,0.478,0.057,1.243,0.209,1.454c0.25,0.363,0.996,0.765,2.508,0.765
		c1.951,0,3.252-0.383,4.4-1.378c1.225-1.053,1.607-2.793,1.607-4.764c0-2.429-1.016-3.999-1.836-4.783
		c-1.762-1.684-3.941-1.914-5.436-1.914c-0.383,0-1.09,0.057-1.244,0.134c-0.172,0.076-0.229,0.172-0.229,0.383
		c-0.02,0.65-0.02,2.315-0.02,3.826V38.439z"/>
	<path d="M122.512,38.018c0-3.272,2.162-7.5,7.902-7.5c4.764,0,7.729,2.775,7.729,7.156c0,4.381-3.061,7.844-7.92,7.844
		C124.73,45.519,122.512,41.405,122.512,38.018z M135.465,38.382c0-4.285-2.469-6.946-5.605-6.946c-2.201,0-4.707,1.225-4.707,5.989
		c0,3.98,2.199,7.137,5.873,7.137C132.365,44.562,135.465,43.911,135.465,38.382z"/>
	<path d="M143.217,42.648c0.037,1.492,0.287,1.99,0.67,2.124c0.324,0.116,0.688,0.134,0.994,0.134c0.211,0,0.326,0.039,0.326,0.154
		c0,0.153-0.174,0.191-0.441,0.191c-1.244,0-2.008-0.058-2.371-0.058c-0.174,0-1.072,0.058-2.066,0.058
		c-0.25,0-0.422-0.02-0.422-0.191c0-0.115,0.115-0.154,0.307-0.154c0.248,0,0.594-0.018,0.861-0.095
		c0.496-0.153,0.574-0.708,0.592-2.373l0.172-11.27c0-0.382,0.059-0.65,0.25-0.65c0.211,0,0.383,0.249,0.707,0.594
		c0.23,0.249,3.139,3.31,5.932,6.083c1.301,1.302,3.885,4.057,4.209,4.362h0.096l-0.191-8.59c-0.02-1.167-0.191-1.531-0.65-1.722
		c-0.287-0.115-0.746-0.115-1.014-0.115c-0.23,0-0.307-0.058-0.307-0.172c0-0.153,0.211-0.172,0.498-0.172
		c0.994,0,1.914,0.057,2.314,0.057c0.211,0,0.938-0.057,1.875-0.057c0.248,0,0.441,0.019,0.441,0.172
		c0,0.114-0.115,0.172-0.346,0.172c-0.191,0-0.344,0-0.574,0.058c-0.535,0.153-0.688,0.554-0.707,1.626l-0.211,12.073
		c0,0.42-0.076,0.593-0.248,0.593c-0.211,0-0.441-0.211-0.65-0.421c-1.205-1.148-3.654-3.655-5.645-5.625
		c-2.086-2.067-4.209-4.401-4.555-4.764h-0.057L143.217,42.648z"/>
	<path d="M161.338,42.648c0.039,1.492,0.287,1.99,0.67,2.124c0.324,0.116,0.689,0.134,0.994,0.134c0.211,0,0.326,0.039,0.326,0.154
		c0,0.153-0.172,0.191-0.439,0.191c-1.244,0-2.01-0.058-2.373-0.058c-0.172,0-1.072,0.058-2.066,0.058
		c-0.248,0-0.422-0.02-0.422-0.191c0-0.115,0.115-0.154,0.307-0.154c0.25,0,0.594-0.018,0.861-0.095
		c0.498-0.153,0.574-0.708,0.594-2.373l0.172-11.27c0-0.382,0.057-0.65,0.248-0.65c0.211,0,0.383,0.249,0.709,0.594
		c0.229,0.249,3.137,3.31,5.93,6.083c1.303,1.302,3.885,4.057,4.211,4.362h0.096l-0.191-8.59c-0.02-1.167-0.191-1.531-0.65-1.722
		c-0.287-0.115-0.746-0.115-1.016-0.115c-0.229,0-0.305-0.058-0.305-0.172c0-0.153,0.211-0.172,0.496-0.172
		c0.996,0,1.914,0.057,2.316,0.057c0.211,0,0.938-0.057,1.875-0.057c0.248,0,0.439,0.019,0.439,0.172
		c0,0.114-0.115,0.172-0.344,0.172c-0.191,0-0.346,0-0.574,0.058c-0.535,0.153-0.689,0.554-0.709,1.626l-0.209,12.073
		c0,0.42-0.078,0.593-0.25,0.593c-0.211,0-0.439-0.211-0.65-0.421c-1.205-1.148-3.654-3.655-5.645-5.625
		c-2.086-2.067-4.209-4.401-4.553-4.764h-0.057L161.338,42.648z"/>
	<path d="M178.389,36.334c0-2.908,0-3.444-0.039-4.056c-0.037-0.651-0.189-0.957-0.822-1.09c-0.152-0.038-0.479-0.058-0.746-0.058
		c-0.211,0-0.324-0.038-0.324-0.172c0-0.134,0.133-0.172,0.42-0.172c0.516,0,1.072,0.019,1.551,0.019
		c0.496,0.02,0.938,0.039,1.205,0.039c0.611,0,4.42,0,4.783-0.019c0.363-0.038,0.67-0.077,0.822-0.116
		c0.096-0.018,0.211-0.076,0.307-0.076s0.115,0.076,0.115,0.172c0,0.134-0.096,0.363-0.154,1.244
		c-0.018,0.191-0.057,1.033-0.096,1.262c-0.018,0.096-0.057,0.21-0.191,0.21c-0.133,0-0.172-0.095-0.172-0.268
		c0-0.134-0.02-0.458-0.115-0.688c-0.133-0.344-0.324-0.574-1.281-0.689c-0.324-0.038-2.334-0.077-2.717-0.077
		c-0.096,0-0.135,0.058-0.135,0.192v4.84c0,0.135,0.02,0.211,0.135,0.211c0.422,0,2.621,0,3.061-0.039
		c0.459-0.038,0.746-0.095,0.92-0.287c0.133-0.154,0.209-0.249,0.305-0.249c0.078,0,0.135,0.038,0.135,0.153
		c0,0.115-0.076,0.421-0.154,1.396c-0.018,0.383-0.076,1.148-0.076,1.283c0,0.153,0,0.363-0.172,0.363
		c-0.133,0-0.172-0.077-0.172-0.172c-0.02-0.191-0.02-0.44-0.076-0.689c-0.096-0.383-0.363-0.669-1.072-0.747
		c-0.363-0.038-2.258-0.057-2.717-0.057c-0.096,0-0.115,0.077-0.115,0.192v1.511c0,0.651-0.018,2.411,0,2.966
		c0.039,1.319,0.346,1.606,2.297,1.606c0.498,0,1.301,0,1.799-0.23c0.498-0.229,0.727-0.631,0.861-1.416
		c0.037-0.21,0.076-0.287,0.209-0.287c0.154,0,0.154,0.153,0.154,0.344c0,0.44-0.154,1.742-0.25,2.125
		c-0.133,0.497-0.305,0.497-1.033,0.497c-1.434,0-2.486-0.039-3.309-0.057c-0.822-0.039-1.416-0.058-1.99-0.058
		c-0.211,0-0.631,0-1.092,0.019c-0.439,0-0.938,0.039-1.32,0.039c-0.248,0-0.381-0.058-0.381-0.191c0-0.096,0.076-0.154,0.305-0.154
		c0.287,0,0.518-0.038,0.689-0.076c0.383-0.076,0.479-0.497,0.555-1.052c0.096-0.803,0.096-2.315,0.096-4.075V36.334z"/>
	<path d="M192.875,39.702c0,2.449,0,3.769,0.4,4.114c0.326,0.287,0.824,0.42,2.314,0.42c1.016,0,1.762-0.019,2.24-0.535
		c0.23-0.249,0.459-0.785,0.498-1.148c0.018-0.172,0.057-0.287,0.209-0.287c0.135,0,0.154,0.096,0.154,0.325
		c0,0.211-0.135,1.645-0.287,2.201c-0.115,0.42-0.211,0.516-1.207,0.516c-1.377,0-2.371-0.039-3.232-0.057
		c-0.861-0.039-1.551-0.058-2.334-0.058c-0.211,0-0.631,0-1.092,0.019c-0.439,0-0.938,0.039-1.32,0.039
		c-0.248,0-0.381-0.058-0.381-0.191c0-0.096,0.076-0.154,0.307-0.154c0.285,0,0.516-0.038,0.688-0.076
		c0.383-0.076,0.479-0.497,0.555-1.052c0.096-0.803,0.096-2.315,0.096-4.075v-3.368c0-2.908,0-3.444-0.039-4.056
		c-0.037-0.651-0.189-0.957-0.822-1.09c-0.152-0.038-0.383-0.058-0.631-0.058c-0.211,0-0.324-0.038-0.324-0.172
		c0-0.134,0.133-0.172,0.42-0.172c0.9,0,2.104,0.057,2.621,0.057c0.459,0,1.855-0.057,2.602-0.057c0.268,0,0.402,0.038,0.402,0.172
		c0,0.134-0.115,0.172-0.344,0.172c-0.211,0-0.518,0.02-0.746,0.058c-0.518,0.096-0.67,0.42-0.709,1.09
		c-0.037,0.612-0.037,1.148-0.037,4.056V39.702z"/>
	<path d="M204.451,39.702c0,2.449,0,3.769,0.402,4.114c0.326,0.287,0.822,0.42,2.314,0.42c1.016,0,1.762-0.019,2.24-0.535
		c0.229-0.249,0.457-0.785,0.496-1.148c0.02-0.172,0.057-0.287,0.211-0.287c0.133,0,0.152,0.096,0.152,0.325
		c0,0.211-0.133,1.645-0.287,2.201c-0.115,0.42-0.209,0.516-1.205,0.516c-1.377,0-2.373-0.039-3.232-0.057
		c-0.861-0.039-1.551-0.058-2.336-0.058c-0.209,0-0.631,0-1.09,0.019c-0.439,0-0.938,0.039-1.32,0.039
		c-0.248,0-0.383-0.058-0.383-0.191c0-0.096,0.076-0.154,0.307-0.154c0.287,0,0.516-0.038,0.689-0.076
		c0.381-0.076,0.477-0.497,0.555-1.052c0.096-0.803,0.096-2.315,0.096-4.075v-3.368c0-2.908,0-3.444-0.039-4.056
		c-0.039-0.651-0.191-0.957-0.822-1.09c-0.154-0.038-0.383-0.058-0.633-0.058c-0.209,0-0.324-0.038-0.324-0.172
		c0-0.134,0.135-0.172,0.422-0.172c0.898,0,2.104,0.057,2.621,0.057c0.459,0,1.855-0.057,2.602-0.057
		c0.268,0,0.402,0.038,0.402,0.172c0,0.134-0.115,0.172-0.346,0.172c-0.209,0-0.516,0.02-0.746,0.058
		c-0.516,0.096-0.67,0.42-0.707,1.09c-0.039,0.612-0.039,1.148-0.039,4.056V39.702z"/>
	<path d="M62.73,59.298c0-2.907,0-3.443-0.039-4.056c-0.039-0.651-0.23-0.976-0.65-1.071c-0.211-0.058-0.459-0.077-0.689-0.077
		c-0.191,0-0.305-0.038-0.305-0.191c0-0.114,0.152-0.153,0.459-0.153c0.727,0,1.932,0.058,2.486,0.058
		c0.479,0,1.607-0.058,2.334-0.058c0.25,0,0.402,0.039,0.402,0.153c0,0.153-0.115,0.191-0.307,0.191s-0.344,0.02-0.574,0.058
		c-0.516,0.096-0.668,0.421-0.707,1.091c-0.039,0.612-0.039,1.148-0.039,4.056v3.367c0,1.856,0,3.368,0.078,4.191
		c0.057,0.517,0.189,0.861,0.764,0.937c0.268,0.039,0.689,0.077,0.977,0.077c0.211,0,0.305,0.057,0.305,0.153
		c0,0.134-0.152,0.191-0.363,0.191c-1.262,0-2.467-0.058-2.984-0.058c-0.439,0-1.645,0.058-2.41,0.058
		c-0.248,0-0.383-0.058-0.383-0.191c0-0.096,0.076-0.153,0.307-0.153c0.287,0,0.516-0.038,0.688-0.077
		c0.383-0.076,0.498-0.402,0.557-0.957c0.096-0.803,0.096-2.314,0.096-4.171V59.298z"/>
	<path d="M72.451,65.611c0.039,1.493,0.287,1.991,0.67,2.125c0.324,0.115,0.688,0.134,0.994,0.134c0.211,0,0.326,0.039,0.326,0.153
		c0,0.154-0.174,0.191-0.441,0.191c-1.242,0-2.008-0.058-2.371-0.058c-0.174,0-1.072,0.058-2.066,0.058
		c-0.25,0-0.422-0.019-0.422-0.191c0-0.114,0.115-0.153,0.307-0.153c0.248,0,0.594-0.019,0.861-0.095
		c0.496-0.153,0.574-0.708,0.592-2.373l0.174-11.269c0-0.383,0.057-0.65,0.248-0.65c0.211,0,0.383,0.248,0.707,0.593
		c0.23,0.248,3.139,3.31,5.932,6.084c1.301,1.301,3.885,4.056,4.209,4.362h0.096l-0.191-8.59c-0.018-1.167-0.191-1.531-0.65-1.722
		c-0.287-0.115-0.746-0.115-1.014-0.115c-0.229,0-0.307-0.057-0.307-0.172c0-0.153,0.211-0.172,0.498-0.172
		c0.994,0,1.914,0.058,2.314,0.058c0.211,0,0.939-0.058,1.875-0.058c0.25,0,0.441,0.019,0.441,0.172
		c0,0.115-0.115,0.172-0.346,0.172c-0.191,0-0.344,0-0.574,0.058c-0.535,0.153-0.688,0.555-0.707,1.626l-0.211,12.073
		c0,0.421-0.076,0.593-0.248,0.593c-0.211,0-0.439-0.21-0.65-0.421c-1.205-1.147-3.654-3.654-5.645-5.625
		c-2.086-2.066-4.209-4.4-4.555-4.764H72.24L72.451,65.611z"/>
	<path d="M88.449,67.984c-0.307-0.134-0.365-0.229-0.365-0.65c0-1.053,0.078-2.2,0.098-2.506c0.018-0.288,0.074-0.498,0.229-0.498
		c0.172,0,0.191,0.172,0.191,0.325c0,0.249,0.076,0.65,0.172,0.976c0.422,1.416,1.551,1.932,2.736,1.932
		c1.723,0,2.564-1.167,2.564-2.181c0-0.938-0.287-1.817-1.875-3.061l-0.881-0.689c-2.105-1.646-2.832-2.984-2.832-4.535
		c0-2.104,1.762-3.616,4.42-3.616c1.244,0,2.047,0.191,2.545,0.326c0.172,0.038,0.268,0.095,0.268,0.229
		c0,0.249-0.076,0.804-0.076,2.296c0,0.421-0.059,0.573-0.211,0.573c-0.133,0-0.191-0.114-0.191-0.343
		c0-0.172-0.096-0.766-0.498-1.263c-0.285-0.363-0.84-0.938-2.084-0.938c-1.416,0-2.277,0.822-2.277,1.971
		c0,0.88,0.439,1.55,2.027,2.755l0.537,0.401c2.314,1.742,3.137,3.062,3.137,4.88c0,1.109-0.42,2.429-1.797,3.329
		c-0.957,0.612-2.029,0.784-3.043,0.784C90.133,68.482,89.271,68.348,88.449,67.984z"/>
	<path d="M103.184,54.821l-2.852,0.077c-1.109,0.039-1.568,0.135-1.855,0.555c-0.191,0.287-0.287,0.517-0.326,0.669
		c-0.037,0.153-0.094,0.229-0.209,0.229c-0.135,0-0.174-0.095-0.174-0.307c0-0.306,0.363-2.046,0.402-2.199
		c0.059-0.25,0.115-0.364,0.23-0.364c0.152,0,0.344,0.191,0.822,0.229c0.555,0.057,1.283,0.096,1.914,0.096h7.576
		c0.611,0,1.033-0.058,1.32-0.096c0.287-0.058,0.439-0.096,0.516-0.096c0.135,0,0.154,0.114,0.154,0.402
		c0,0.401-0.059,1.722-0.059,2.219c-0.02,0.192-0.057,0.306-0.172,0.306c-0.152,0-0.191-0.095-0.211-0.382l-0.02-0.21
		c-0.037-0.498-0.553-1.034-2.256-1.072l-2.412-0.058v7.844c0,1.761,0,3.272,0.096,4.095c0.059,0.535,0.172,0.957,0.746,1.033
		c0.268,0.039,0.689,0.077,0.977,0.077c0.211,0,0.307,0.057,0.307,0.153c0,0.134-0.154,0.191-0.365,0.191
		c-1.262,0-2.467-0.058-3.002-0.058c-0.441,0-1.646,0.058-2.412,0.058c-0.248,0-0.383-0.058-0.383-0.191
		c0-0.096,0.078-0.153,0.307-0.153c0.287,0,0.518-0.038,0.689-0.077c0.383-0.076,0.496-0.498,0.555-1.052
		c0.096-0.804,0.096-2.315,0.096-4.076V54.821z"/>
	<path d="M114.225,59.298c0-2.907,0-3.443-0.037-4.056c-0.039-0.651-0.23-0.976-0.65-1.071c-0.211-0.058-0.461-0.077-0.689-0.077
		c-0.191,0-0.307-0.038-0.307-0.191c0-0.114,0.154-0.153,0.461-0.153c0.727,0,1.932,0.058,2.486,0.058
		c0.479,0,1.607-0.058,2.334-0.058c0.248,0,0.402,0.039,0.402,0.153c0,0.153-0.115,0.191-0.307,0.191s-0.344,0.02-0.574,0.058
		c-0.516,0.096-0.67,0.421-0.707,1.091c-0.039,0.612-0.039,1.148-0.039,4.056v3.367c0,1.856,0,3.368,0.076,4.191
		c0.059,0.517,0.191,0.861,0.766,0.937c0.268,0.039,0.689,0.077,0.977,0.077c0.211,0,0.305,0.057,0.305,0.153
		c0,0.134-0.152,0.191-0.363,0.191c-1.262,0-2.469-0.058-2.984-0.058c-0.439,0-1.645,0.058-2.41,0.058
		c-0.25,0-0.383-0.058-0.383-0.191c0-0.096,0.076-0.153,0.307-0.153c0.287,0,0.516-0.038,0.688-0.077
		c0.383-0.076,0.498-0.402,0.555-0.957c0.096-0.803,0.096-2.314,0.096-4.171V59.298z"/>
	<path d="M125.418,54.821l-2.85,0.077c-1.109,0.039-1.568,0.135-1.855,0.555c-0.191,0.287-0.287,0.517-0.326,0.669
		c-0.037,0.153-0.096,0.229-0.209,0.229c-0.135,0-0.174-0.095-0.174-0.307c0-0.306,0.363-2.046,0.402-2.199
		c0.057-0.25,0.115-0.364,0.229-0.364c0.154,0,0.346,0.191,0.824,0.229c0.555,0.057,1.281,0.096,1.914,0.096h7.576
		c0.611,0,1.033-0.058,1.318-0.096c0.289-0.058,0.441-0.096,0.518-0.096c0.135,0,0.154,0.114,0.154,0.402
		c0,0.401-0.059,1.722-0.059,2.219c-0.02,0.192-0.057,0.306-0.172,0.306c-0.152,0-0.191-0.095-0.211-0.382l-0.02-0.21
		c-0.037-0.498-0.555-1.034-2.256-1.072l-2.412-0.058v7.844c0,1.761,0,3.272,0.096,4.095c0.057,0.535,0.172,0.957,0.746,1.033
		c0.268,0.039,0.689,0.077,0.977,0.077c0.209,0,0.305,0.057,0.305,0.153c0,0.134-0.152,0.191-0.363,0.191
		c-1.262,0-2.467-0.058-3.004-0.058c-0.439,0-1.645,0.058-2.41,0.058c-0.248,0-0.383-0.058-0.383-0.191
		c0-0.096,0.076-0.153,0.307-0.153c0.287,0,0.516-0.038,0.688-0.077c0.383-0.076,0.498-0.498,0.557-1.052
		c0.094-0.804,0.094-2.315,0.094-4.076V54.821z"/>
	<path d="M135.639,59.298c0-2.907,0-3.443-0.039-4.056c-0.037-0.651-0.191-0.957-0.822-1.091c-0.152-0.038-0.479-0.058-0.746-0.058
		c-0.211,0-0.326-0.038-0.326-0.172s0.135-0.172,0.422-0.172c1.014,0,2.219,0.058,2.793,0.058c0.459,0,1.664-0.058,2.354-0.058
		c0.287,0,0.422,0.039,0.422,0.172s-0.115,0.172-0.307,0.172c-0.211,0-0.326,0.02-0.555,0.058c-0.518,0.096-0.67,0.421-0.709,1.091
		c-0.037,0.612-0.037,1.148-0.037,4.056v2.679c0,2.774,0.555,3.941,1.492,4.708c0.861,0.707,1.74,0.784,2.393,0.784
		c0.842,0,1.873-0.268,2.639-1.033c1.053-1.052,1.109-2.774,1.109-4.745v-2.392c0-2.907,0-3.443-0.037-4.056
		c-0.039-0.651-0.191-0.957-0.822-1.091c-0.154-0.038-0.479-0.058-0.689-0.058s-0.326-0.038-0.326-0.172s0.135-0.172,0.402-0.172
		c0.977,0,2.182,0.058,2.201,0.058c0.229,0,1.434-0.058,2.18-0.058c0.27,0,0.402,0.039,0.402,0.172s-0.115,0.172-0.344,0.172
		c-0.211,0-0.326,0.02-0.555,0.058c-0.518,0.096-0.67,0.421-0.709,1.091c-0.037,0.612-0.037,1.148-0.037,4.056v2.047
		c0,2.124-0.211,4.382-1.818,5.759c-1.357,1.167-2.736,1.377-3.979,1.377c-1.016,0-2.852-0.058-4.248-1.32
		c-0.977-0.88-1.703-2.295-1.703-5.07V59.298z"/>
	<path d="M155.311,54.821l-2.852,0.077c-1.109,0.039-1.568,0.135-1.855,0.555c-0.191,0.287-0.287,0.517-0.326,0.669
		c-0.037,0.153-0.094,0.229-0.209,0.229c-0.135,0-0.174-0.095-0.174-0.307c0-0.306,0.365-2.046,0.402-2.199
		c0.059-0.25,0.115-0.364,0.23-0.364c0.152,0,0.344,0.191,0.822,0.229c0.555,0.057,1.281,0.096,1.914,0.096h7.576
		c0.611,0,1.033-0.058,1.32-0.096c0.287-0.058,0.439-0.096,0.516-0.096c0.135,0,0.154,0.114,0.154,0.402
		c0,0.401-0.059,1.722-0.059,2.219c-0.02,0.192-0.057,0.306-0.172,0.306c-0.152,0-0.191-0.095-0.211-0.382l-0.02-0.21
		c-0.037-0.498-0.553-1.034-2.256-1.072l-2.412-0.058v7.844c0,1.761,0,3.272,0.096,4.095c0.059,0.535,0.172,0.957,0.746,1.033
		c0.268,0.039,0.689,0.077,0.977,0.077c0.211,0,0.305,0.057,0.305,0.153c0,0.134-0.152,0.191-0.363,0.191
		c-1.262,0-2.467-0.058-3.002-0.058c-0.441,0-1.646,0.058-2.412,0.058c-0.248,0-0.383-0.058-0.383-0.191
		c0-0.096,0.078-0.153,0.307-0.153c0.287,0,0.518-0.038,0.689-0.077c0.383-0.076,0.496-0.498,0.555-1.052
		c0.096-0.804,0.096-2.315,0.096-4.076V54.821z"/>
	<path d="M166.352,59.298c0-2.907,0-3.443-0.037-4.056c-0.039-0.651-0.191-0.957-0.822-1.091c-0.154-0.038-0.479-0.058-0.746-0.058
		c-0.211,0-0.326-0.038-0.326-0.172s0.133-0.172,0.42-0.172c0.518,0,1.072,0.019,1.551,0.019c0.498,0.02,0.938,0.039,1.205,0.039
		c0.613,0,4.42,0,4.783-0.02c0.363-0.039,0.67-0.077,0.824-0.115c0.094-0.019,0.209-0.077,0.305-0.077s0.115,0.077,0.115,0.172
		c0,0.134-0.096,0.364-0.152,1.244c-0.02,0.192-0.059,1.033-0.096,1.263c-0.02,0.096-0.059,0.21-0.193,0.21
		c-0.133,0-0.172-0.095-0.172-0.268c0-0.134-0.018-0.459-0.113-0.688c-0.135-0.345-0.326-0.575-1.283-0.689
		c-0.324-0.038-2.334-0.077-2.717-0.077c-0.096,0-0.135,0.057-0.135,0.191v4.841c0,0.135,0.02,0.21,0.135,0.21
		c0.422,0,2.621,0,3.061-0.038c0.461-0.038,0.746-0.096,0.92-0.288c0.133-0.153,0.211-0.249,0.305-0.249
		c0.078,0,0.135,0.039,0.135,0.153c0,0.115-0.076,0.421-0.152,1.397c-0.02,0.382-0.076,1.148-0.076,1.282
		c0,0.153,0,0.363-0.174,0.363c-0.133,0-0.172-0.076-0.172-0.172c-0.018-0.191-0.018-0.439-0.076-0.689
		c-0.096-0.382-0.363-0.669-1.072-0.746c-0.363-0.038-2.258-0.057-2.717-0.057c-0.096,0-0.115,0.076-0.115,0.192v1.51
		c0,0.651-0.018,2.411,0,2.966c0.039,1.32,0.346,1.607,2.297,1.607c0.498,0,1.301,0,1.799-0.229s0.727-0.631,0.861-1.416
		c0.037-0.211,0.076-0.288,0.209-0.288c0.154,0,0.154,0.154,0.154,0.345c0,0.44-0.154,1.741-0.248,2.124
		c-0.135,0.498-0.307,0.498-1.035,0.498c-1.434,0-2.486-0.039-3.309-0.058c-0.822-0.038-1.416-0.058-1.99-0.058
		c-0.211,0-0.631,0-1.09,0.02c-0.439,0-0.938,0.038-1.32,0.038c-0.25,0-0.383-0.058-0.383-0.191c0-0.096,0.076-0.153,0.307-0.153
		c0.285,0,0.516-0.038,0.688-0.077c0.383-0.076,0.479-0.498,0.555-1.052c0.096-0.804,0.096-2.315,0.096-4.076V59.298z"/>
	<path d="M182.102,60.982c0-3.272,2.162-7.5,7.9-7.5c4.766,0,7.73,2.774,7.73,7.156s-3.061,7.844-7.92,7.844
		C184.32,68.482,182.102,64.369,182.102,60.982z M195.055,61.345c0-4.286-2.469-6.945-5.605-6.945c-2.201,0-4.707,1.225-4.707,5.989
		c0,3.98,2.199,7.136,5.873,7.136C191.955,67.525,195.055,66.875,195.055,61.345z"/>
	<path d="M204.145,62.665c0,1.837,0,3.272,0.096,4.076c0.059,0.554,0.174,0.976,0.746,1.052c0.268,0.039,0.689,0.077,0.957,0.077
		c0.248,0,0.326,0.057,0.326,0.153c0,0.134-0.135,0.191-0.422,0.191c-1.205,0-2.41-0.058-2.908-0.058s-1.703,0.058-2.43,0.058
		c-0.268,0-0.402-0.038-0.402-0.191c0-0.096,0.078-0.153,0.287-0.153c0.287,0,0.518-0.038,0.689-0.077
		c0.383-0.076,0.479-0.498,0.555-1.052c0.096-0.804,0.096-2.239,0.096-4.076v-3.367c0-2.907,0-3.443-0.039-4.056
		c-0.037-0.651-0.189-0.957-0.822-1.091c-0.152-0.038-0.479-0.058-0.746-0.058c-0.191,0-0.324-0.038-0.324-0.152
		c0-0.153,0.152-0.192,0.439-0.192c0.498,0,1.053,0.019,1.549,0.019c0.498,0.02,0.939,0.039,1.207,0.039c0.727,0,4.611,0,5.051-0.02
		c0.363-0.02,0.592-0.02,0.785-0.077c0.113-0.039,0.209-0.115,0.305-0.115c0.076,0,0.135,0.077,0.135,0.172
		c0,0.134-0.098,0.364-0.154,0.861c-0.018,0.191-0.057,1.32-0.096,1.549c-0.018,0.154-0.057,0.269-0.189,0.269
		c-0.135,0-0.174-0.096-0.193-0.306c0-0.153,0-0.459-0.113-0.727c-0.135-0.268-0.537-0.555-1.264-0.574l-2.945-0.058
		c-0.115,0-0.174,0.058-0.174,0.268v4.784c0,0.114,0.02,0.171,0.135,0.171l2.449-0.019c0.324,0,0.592,0,0.859-0.019
		c0.365-0.02,0.633-0.096,0.824-0.345c0.096-0.115,0.133-0.192,0.248-0.192c0.076,0,0.115,0.057,0.115,0.173
		c0,0.114-0.096,0.593-0.152,1.187c-0.039,0.382-0.078,1.263-0.078,1.396c0,0.172,0,0.364-0.189,0.364
		c-0.115,0-0.154-0.134-0.154-0.268s-0.039-0.363-0.115-0.593c-0.096-0.268-0.383-0.613-0.975-0.689
		c-0.479-0.058-2.508-0.058-2.832-0.058c-0.096,0-0.135,0.039-0.135,0.172V62.665z"/>
	<path d="M71.799,86.299c-0.096,0-0.133,0.038-0.172,0.154l-1.033,2.621c-0.191,0.478-0.287,0.937-0.287,1.167
		c0,0.345,0.172,0.593,0.766,0.593h0.287c0.23,0,0.287,0.038,0.287,0.153c0,0.152-0.115,0.191-0.326,0.191
		c-0.611,0-1.434-0.057-2.027-0.057c-0.211,0-1.264,0.057-2.258,0.057c-0.248,0-0.363-0.039-0.363-0.191
		c0-0.115,0.076-0.153,0.23-0.153c0.172,0,0.439-0.019,0.592-0.038c0.881-0.115,1.244-0.765,1.627-1.722l4.803-11.862
		c0.229-0.554,0.344-0.766,0.535-0.766c0.172,0,0.287,0.172,0.479,0.613c0.459,1.052,3.52,8.706,4.744,11.614
		c0.729,1.722,1.283,1.99,1.684,2.085c0.287,0.057,0.574,0.076,0.805,0.076c0.152,0,0.248,0.02,0.248,0.153
		c0,0.152-0.172,0.191-0.881,0.191c-0.688,0-2.084,0-3.615-0.039c-0.344-0.018-0.574-0.018-0.574-0.152
		c0-0.115,0.076-0.153,0.268-0.172c0.135-0.039,0.27-0.21,0.174-0.44l-1.531-3.941c-0.039-0.096-0.096-0.134-0.191-0.134H71.799z
		 M75.703,85.342c0.096,0,0.115-0.057,0.096-0.114l-1.723-4.707c-0.02-0.077-0.039-0.172-0.096-0.172s-0.096,0.095-0.115,0.172
		l-1.76,4.687c-0.02,0.077,0,0.134,0.076,0.134H75.703z"/>
	<path d="M84.43,82.262c0-2.908,0-3.444-0.039-4.056c-0.037-0.65-0.191-0.957-0.822-1.091c-0.154-0.038-0.479-0.057-0.746-0.057
		c-0.211,0-0.326-0.038-0.326-0.172s0.135-0.172,0.422-0.172c1.014,0,2.219,0.057,2.621,0.057c0.65,0,2.105-0.057,2.697-0.057
		c1.207,0,2.488,0.115,3.521,0.822c0.535,0.364,1.301,1.34,1.301,2.622c0,1.416-0.594,2.717-2.525,4.286
		c1.701,2.144,3.021,3.846,4.15,5.032c1.072,1.11,1.857,1.244,2.145,1.301c0.211,0.039,0.383,0.058,0.535,0.058
		s0.229,0.058,0.229,0.153c0,0.152-0.133,0.191-0.363,0.191h-1.816c-1.072,0-1.551-0.096-2.047-0.363
		c-0.824-0.44-1.551-1.339-2.623-2.812c-0.764-1.052-1.645-2.354-1.893-2.64c-0.096-0.116-0.211-0.134-0.346-0.134l-1.664-0.039
		c-0.096,0-0.152,0.039-0.152,0.153v0.268c0,1.78,0,3.292,0.096,4.095c0.057,0.555,0.172,0.976,0.746,1.053
		c0.287,0.038,0.707,0.076,0.938,0.076c0.152,0,0.229,0.058,0.229,0.153c0,0.134-0.133,0.191-0.383,0.191
		c-1.109,0-2.525-0.057-2.812-0.057c-0.363,0-1.568,0.057-2.334,0.057c-0.248,0-0.383-0.057-0.383-0.191
		c0-0.096,0.078-0.153,0.307-0.153c0.287,0,0.518-0.038,0.689-0.076c0.381-0.077,0.479-0.498,0.555-1.053
		c0.096-0.803,0.096-2.315,0.096-4.075V82.262z M86.688,83.774c0,0.21,0.037,0.287,0.172,0.344c0.402,0.134,0.975,0.191,1.453,0.191
		c0.766,0,1.016-0.077,1.359-0.325c0.574-0.421,1.129-1.301,1.129-2.87c0-2.718-1.799-3.502-2.928-3.502
		c-0.479,0-0.822,0.02-1.014,0.077c-0.135,0.038-0.172,0.115-0.172,0.268V83.774z"/>
	<path d="M100.693,77.785l-2.85,0.076c-1.109,0.038-1.568,0.134-1.855,0.555c-0.191,0.287-0.287,0.517-0.326,0.669
		c-0.037,0.153-0.096,0.229-0.209,0.229c-0.135,0-0.174-0.096-0.174-0.306c0-0.307,0.363-2.048,0.402-2.201
		c0.057-0.248,0.115-0.363,0.23-0.363c0.152,0,0.344,0.191,0.822,0.229c0.555,0.058,1.281,0.096,1.914,0.096h7.576
		c0.611,0,1.033-0.057,1.318-0.096c0.289-0.057,0.441-0.095,0.518-0.095c0.135,0,0.154,0.115,0.154,0.401
		c0,0.403-0.059,1.722-0.059,2.22c-0.02,0.191-0.057,0.306-0.172,0.306c-0.152,0-0.191-0.096-0.211-0.383l-0.02-0.209
		c-0.037-0.498-0.555-1.033-2.256-1.072l-2.412-0.057v7.844c0,1.76,0,3.272,0.096,4.094c0.057,0.536,0.172,0.957,0.746,1.034
		c0.268,0.038,0.689,0.076,0.977,0.076c0.209,0,0.305,0.058,0.305,0.153c0,0.134-0.152,0.191-0.363,0.191
		c-1.262,0-2.467-0.057-3.004-0.057c-0.439,0-1.645,0.057-2.41,0.057c-0.248,0-0.383-0.057-0.383-0.191
		c0-0.096,0.078-0.153,0.307-0.153c0.287,0,0.518-0.038,0.689-0.076c0.381-0.077,0.496-0.498,0.555-1.053
		c0.094-0.803,0.094-2.315,0.094-4.075V77.785z"/>
	<path d="M127.293,82.797c0.057,0,0.115-0.038,0.115-0.134v-0.401c0-2.908,0-3.444-0.039-4.056c-0.039-0.65-0.191-0.957-0.822-1.091
		c-0.154-0.038-0.479-0.057-0.746-0.057c-0.211,0-0.326-0.038-0.326-0.172s0.135-0.172,0.402-0.172c1.033,0,2.238,0.057,2.756,0.057
		c0.457,0,1.664-0.057,2.41-0.057c0.268,0,0.402,0.038,0.402,0.172s-0.115,0.172-0.346,0.172c-0.152,0-0.324,0.019-0.555,0.057
		c-0.516,0.096-0.67,0.421-0.707,1.091c-0.039,0.612-0.039,1.147-0.039,4.056v3.368c0,1.76,0,3.272,0.096,4.094
		c0.059,0.536,0.172,0.957,0.746,1.034c0.268,0.038,0.689,0.076,0.977,0.076c0.211,0,0.307,0.058,0.307,0.153
		c0,0.134-0.154,0.191-0.385,0.191c-1.242,0-2.449-0.057-2.984-0.057c-0.439,0-1.645,0.057-2.391,0.057
		c-0.268,0-0.402-0.057-0.402-0.191c0-0.096,0.076-0.153,0.307-0.153c0.287,0,0.516-0.038,0.688-0.076
		c0.385-0.077,0.479-0.498,0.557-1.053c0.096-0.803,0.096-2.315,0.096-4.075v-1.684c0-0.076-0.059-0.115-0.115-0.115h-7.309
		c-0.059,0-0.115,0.019-0.115,0.115v1.684c0,1.76,0,3.272,0.096,4.094c0.057,0.536,0.172,0.957,0.746,1.034
		c0.268,0.038,0.689,0.076,0.977,0.076c0.209,0,0.305,0.058,0.305,0.153c0,0.134-0.152,0.191-0.383,0.191
		c-1.242,0-2.449-0.057-2.984-0.057c-0.439,0-1.645,0.057-2.41,0.057c-0.25,0-0.383-0.057-0.383-0.191
		c0-0.096,0.076-0.153,0.307-0.153c0.287,0,0.516-0.038,0.688-0.076c0.383-0.077,0.479-0.498,0.557-1.053
		c0.096-0.803,0.096-2.315,0.096-4.075v-3.368c0-2.908,0-3.444-0.039-4.056c-0.039-0.65-0.191-0.957-0.822-1.091
		c-0.154-0.038-0.479-0.057-0.748-0.057c-0.209,0-0.324-0.038-0.324-0.172s0.135-0.172,0.402-0.172c1.033,0,2.238,0.057,2.756,0.057
		c0.457,0,1.664-0.057,2.41-0.057c0.268,0,0.402,0.038,0.402,0.172s-0.115,0.172-0.346,0.172c-0.152,0-0.324,0.019-0.555,0.057
		c-0.516,0.096-0.67,0.421-0.709,1.091c-0.037,0.612-0.037,1.147-0.037,4.056v0.401c0,0.096,0.057,0.134,0.115,0.134H127.293z"/>
	<path d="M136.078,82.262c0-2.908,0-3.444-0.039-4.056c-0.037-0.65-0.229-0.976-0.65-1.072c-0.211-0.057-0.459-0.076-0.689-0.076
		c-0.189,0-0.305-0.038-0.305-0.192c0-0.115,0.152-0.153,0.459-0.153c0.727,0,1.932,0.057,2.486,0.057
		c0.479,0,1.607-0.057,2.334-0.057c0.25,0,0.402,0.038,0.402,0.153c0,0.154-0.115,0.192-0.305,0.192
		c-0.193,0-0.346,0.019-0.574,0.057c-0.518,0.096-0.67,0.421-0.709,1.091c-0.037,0.612-0.037,1.147-0.037,4.056v3.368
		c0,1.856,0,3.367,0.076,4.19c0.057,0.517,0.191,0.861,0.766,0.938c0.268,0.038,0.688,0.076,0.975,0.076
		c0.211,0,0.307,0.058,0.307,0.153c0,0.134-0.152,0.191-0.363,0.191c-1.264,0-2.469-0.057-2.984-0.057
		c-0.441,0-1.646,0.057-2.412,0.057c-0.248,0-0.383-0.057-0.383-0.191c0-0.096,0.078-0.153,0.307-0.153
		c0.287,0,0.518-0.038,0.689-0.076c0.383-0.077,0.496-0.402,0.555-0.957c0.096-0.804,0.096-2.315,0.096-4.171V82.262z"/>
	<path d="M143.676,90.948c-0.307-0.134-0.363-0.229-0.363-0.65c0-1.053,0.076-2.2,0.096-2.507c0.018-0.287,0.076-0.497,0.229-0.497
		c0.172,0,0.191,0.171,0.191,0.325c0,0.249,0.076,0.65,0.172,0.976c0.422,1.415,1.551,1.933,2.736,1.933
		c1.723,0,2.564-1.167,2.564-2.182c0-0.938-0.287-1.817-1.875-3.061l-0.881-0.689c-2.105-1.645-2.832-2.984-2.832-4.534
		c0-2.104,1.762-3.616,4.42-3.616c1.244,0,2.047,0.191,2.545,0.325c0.172,0.038,0.268,0.096,0.268,0.229
		c0,0.249-0.076,0.804-0.076,2.296c0,0.42-0.057,0.574-0.211,0.574c-0.133,0-0.189-0.116-0.189-0.345
		c0-0.172-0.096-0.766-0.498-1.263c-0.287-0.363-0.842-0.937-2.086-0.937c-1.416,0-2.277,0.823-2.277,1.971
		c0,0.88,0.439,1.549,2.027,2.755l0.537,0.402c2.314,1.741,3.137,3.061,3.137,4.878c0,1.111-0.42,2.431-1.797,3.33
		c-0.957,0.612-2.029,0.784-3.043,0.784C145.359,91.445,144.498,91.312,143.676,90.948z"/>
	<path d="M158.408,77.785l-2.85,0.076c-1.109,0.038-1.568,0.134-1.855,0.555c-0.191,0.287-0.287,0.517-0.326,0.669
		c-0.037,0.153-0.096,0.229-0.209,0.229c-0.135,0-0.174-0.096-0.174-0.306c0-0.307,0.363-2.048,0.402-2.201
		c0.057-0.248,0.115-0.363,0.229-0.363c0.154,0,0.346,0.191,0.824,0.229c0.555,0.058,1.281,0.096,1.912,0.096h7.578
		c0.611,0,1.033-0.057,1.318-0.096c0.289-0.057,0.441-0.095,0.518-0.095c0.135,0,0.154,0.115,0.154,0.401
		c0,0.403-0.059,1.722-0.059,2.22c-0.02,0.191-0.057,0.306-0.172,0.306c-0.152,0-0.191-0.096-0.211-0.383l-0.02-0.209
		c-0.037-0.498-0.555-1.033-2.256-1.072l-2.412-0.057v7.844c0,1.76,0,3.272,0.096,4.094c0.057,0.536,0.172,0.957,0.746,1.034
		c0.268,0.038,0.689,0.076,0.977,0.076c0.209,0,0.305,0.058,0.305,0.153c0,0.134-0.152,0.191-0.363,0.191
		c-1.262,0-2.467-0.057-3.004-0.057c-0.439,0-1.645,0.057-2.41,0.057c-0.248,0-0.383-0.057-0.383-0.191
		c0-0.096,0.076-0.153,0.307-0.153c0.287,0,0.516-0.038,0.688-0.076c0.383-0.077,0.498-0.498,0.557-1.053
		c0.094-0.803,0.094-2.315,0.094-4.075V77.785z"/>
	<path d="M167.117,83.946c0-3.272,2.162-7.5,7.902-7.5c4.764,0,7.729,2.774,7.729,7.156c0,4.382-3.061,7.844-7.92,7.844
		C169.336,91.445,167.117,87.332,167.117,83.946z M180.07,84.309c0-4.286-2.469-6.945-5.605-6.945c-2.201,0-4.707,1.225-4.707,5.989
		c0,3.979,2.199,7.137,5.873,7.137C176.971,90.49,180.07,89.839,180.07,84.309z"/>
	<path d="M186.75,82.262c0-2.908,0-3.444-0.037-4.056c-0.039-0.65-0.191-0.957-0.822-1.091c-0.154-0.038-0.479-0.057-0.746-0.057
		c-0.211,0-0.326-0.038-0.326-0.172s0.133-0.172,0.42-0.172c1.016,0,2.221,0.057,2.623,0.057c0.65,0,2.104-0.057,2.697-0.057
		c1.205,0,2.486,0.115,3.52,0.822c0.537,0.364,1.301,1.34,1.301,2.622c0,1.416-0.592,2.717-2.525,4.286
		c1.703,2.144,3.023,3.846,4.152,5.032c1.072,1.11,1.855,1.244,2.143,1.301c0.211,0.039,0.383,0.058,0.535,0.058
		c0.154,0,0.23,0.058,0.23,0.153c0,0.152-0.135,0.191-0.363,0.191h-1.818c-1.07,0-1.549-0.096-2.047-0.363
		c-0.822-0.44-1.549-1.339-2.621-2.812c-0.766-1.052-1.645-2.354-1.895-2.64c-0.096-0.116-0.211-0.134-0.344-0.134l-1.666-0.039
		c-0.094,0-0.152,0.039-0.152,0.153v0.268c0,1.78,0,3.292,0.096,4.095c0.057,0.555,0.172,0.976,0.746,1.053
		c0.287,0.038,0.709,0.076,0.938,0.076c0.154,0,0.23,0.058,0.23,0.153c0,0.134-0.135,0.191-0.383,0.191
		c-1.109,0-2.525-0.057-2.812-0.057c-0.363,0-1.568,0.057-2.334,0.057c-0.25,0-0.383-0.057-0.383-0.191
		c0-0.096,0.076-0.153,0.307-0.153c0.285,0,0.516-0.038,0.688-0.076c0.383-0.077,0.479-0.498,0.555-1.053
		c0.096-0.803,0.096-2.315,0.096-4.075V82.262z M189.008,83.774c0,0.21,0.039,0.287,0.172,0.344
		c0.402,0.134,0.977,0.191,1.455,0.191c0.766,0,1.014-0.077,1.357-0.325c0.574-0.421,1.131-1.301,1.131-2.87
		c0-2.718-1.799-3.502-2.928-3.502c-0.479,0-0.824,0.02-1.016,0.077c-0.133,0.038-0.172,0.115-0.172,0.268V83.774z"/>
	<path d="M202.959,86.223c0-1.033-0.191-1.454-0.439-2.009c-0.135-0.306-2.699-4.516-3.369-5.51
		c-0.479-0.708-0.957-1.186-1.32-1.397c-0.248-0.134-0.572-0.248-0.803-0.248c-0.154,0-0.287-0.038-0.287-0.172
		c0-0.115,0.133-0.172,0.363-0.172c0.344,0,1.779,0.057,2.41,0.057c0.402,0,1.188-0.057,2.049-0.057
		c0.189,0,0.287,0.057,0.287,0.172c0,0.114-0.135,0.134-0.422,0.21c-0.172,0.038-0.268,0.191-0.268,0.344s0.096,0.383,0.229,0.65
		c0.268,0.574,2.947,5.186,3.254,5.721c0.191-0.459,2.602-4.668,2.869-5.262c0.191-0.421,0.268-0.746,0.268-0.995
		c0-0.192-0.076-0.402-0.4-0.479c-0.172-0.039-0.346-0.077-0.346-0.191c0-0.134,0.096-0.172,0.326-0.172
		c0.631,0,1.244,0.057,1.799,0.057c0.42,0,1.684-0.057,2.047-0.057c0.211,0,0.344,0.038,0.344,0.153
		c0,0.134-0.152,0.192-0.363,0.192c-0.191,0-0.555,0.076-0.842,0.229c-0.402,0.191-0.611,0.42-1.033,0.937
		c-0.631,0.765-3.311,5.262-3.654,6.084c-0.287,0.689-0.287,1.282-0.287,1.914v1.568c0,0.307,0,1.11,0.057,1.914
		c0.039,0.555,0.211,0.976,0.785,1.053c0.268,0.038,0.689,0.076,0.957,0.076c0.211,0,0.307,0.058,0.307,0.153
		c0,0.134-0.154,0.191-0.402,0.191c-1.205,0-2.41-0.057-2.928-0.057c-0.479,0-1.684,0.057-2.393,0.057
		c-0.268,0-0.42-0.039-0.42-0.191c0-0.096,0.096-0.153,0.307-0.153c0.268,0,0.496-0.038,0.67-0.076
		c0.383-0.077,0.555-0.498,0.594-1.053c0.057-0.803,0.057-1.607,0.057-1.914V86.223z"/>
</g>
<g>
</g>
<g>
</g>
<g>
</g>
<g>
</g>
<g>
</g>
<g>
</g>
<g>
</g>
<g>
</g>
<g>
</g>
<g>
</g>
<g>
</g>
<g>
</g>
<g>
</g>
<g>
</g>
<g>
</g>
</svg>
