<?xml version="1.0" encoding="utf-8"?>
<!-- Generator: Adobe Illustrator 16.0.4, SVG Export Plug-In . SVG Version: 6.00 Build 0)  -->
<!DOCTYPE svg PUBLIC "-//W3C//DTD SVG 1.1//EN" "http://www.w3.org/Graphics/SVG/1.1/DTD/svg11.dtd">
<svg version="1.1" id="Layer_1" xmlns="http://www.w3.org/2000/svg" xmlns:xlink="http://www.w3.org/1999/xlink" x="0px" y="0px"
	 width="206px" height="84px" viewBox="6 7.5 206 84" enable-background="new 6 7.5 206 84" xml:space="preserve">
<g>
	<path fill="#FFFFFF" d="M171.899,8.894l-2.851,0.076c-1.108,0.039-1.569,0.134-1.854,0.555c-0.192,0.287-0.286,0.518-0.325,0.67
		c-0.039,0.153-0.097,0.229-0.211,0.229c-0.134,0-0.173-0.095-0.173-0.306c0-0.307,0.363-2.048,0.402-2.2
		c0.057-0.249,0.112-0.363,0.229-0.363c0.153,0,0.346,0.191,0.823,0.229c0.556,0.058,1.281,0.096,1.912,0.096h7.578
		c0.61,0,1.03-0.058,1.317-0.096c0.287-0.058,0.44-0.097,0.519-0.097c0.135,0,0.151,0.115,0.151,0.402
		c0,0.402-0.058,1.722-0.058,2.219c-0.021,0.191-0.06,0.307-0.172,0.307c-0.153,0-0.19-0.096-0.211-0.383l-0.021-0.21
		c-0.037-0.498-0.556-1.032-2.258-1.071l-2.41-0.058v7.844c0,1.761,0,3.272,0.097,4.096c0.057,0.536,0.172,0.957,0.745,1.033
		c0.269,0.037,0.688,0.075,0.978,0.075c0.209,0,0.306,0.059,0.306,0.153c0,0.134-0.151,0.191-0.363,0.191
		c-1.262,0-2.469-0.059-3.004-0.059c-0.438,0-1.646,0.059-2.409,0.059c-0.25,0-0.384-0.059-0.384-0.191
		c0-0.096,0.076-0.153,0.306-0.153c0.289,0,0.519-0.038,0.688-0.075c0.383-0.077,0.498-0.498,0.558-1.053
		c0.094-0.804,0.094-2.314,0.094-4.076V8.894L171.899,8.894z"/>
	<path fill="#FFFFFF" d="M192.757,13.907c0.059,0,0.115-0.039,0.115-0.135v-0.401c0-2.908,0-3.443-0.039-4.057
		c-0.037-0.65-0.189-0.957-0.822-1.091c-0.152-0.038-0.479-0.057-0.746-0.057c-0.211,0-0.324-0.038-0.324-0.172
		c0-0.135,0.135-0.173,0.4-0.173c1.035,0,2.24,0.058,2.756,0.058c0.459,0,1.664-0.058,2.41-0.058c0.27,0,0.402,0.038,0.402,0.173
		c0,0.134-0.115,0.172-0.344,0.172c-0.154,0-0.326,0.019-0.559,0.057c-0.516,0.096-0.668,0.421-0.707,1.091
		c-0.037,0.612-0.037,1.148-0.037,4.057v3.368c0,1.76,0,3.271,0.098,4.095c0.057,0.536,0.172,0.957,0.746,1.033
		c0.268,0.037,0.688,0.075,0.975,0.075c0.211,0,0.307,0.059,0.307,0.153c0,0.134-0.154,0.191-0.383,0.191
		c-1.244,0-2.449-0.059-2.984-0.059c-0.438,0-1.645,0.059-2.391,0.059c-0.27,0-0.404-0.059-0.404-0.191
		c0-0.096,0.078-0.153,0.309-0.153c0.285,0,0.518-0.038,0.688-0.075c0.383-0.077,0.479-0.498,0.555-1.053
		c0.098-0.804,0.098-2.314,0.098-4.075v-1.685c0-0.076-0.059-0.115-0.115-0.115h-7.309c-0.059,0-0.115,0.02-0.115,0.115v1.685
		c0,1.76,0,3.271,0.098,4.095c0.059,0.536,0.172,0.957,0.744,1.033c0.27,0.037,0.688,0.075,0.979,0.075
		c0.211,0,0.307,0.059,0.307,0.153c0,0.134-0.154,0.191-0.383,0.191c-1.244,0-2.449-0.059-2.984-0.059
		c-0.441,0-1.646,0.059-2.412,0.059c-0.248,0-0.383-0.059-0.383-0.191c0-0.096,0.078-0.153,0.307-0.153
		c0.287,0,0.52-0.038,0.689-0.075c0.383-0.077,0.479-0.498,0.555-1.053c0.096-0.804,0.096-2.314,0.096-4.075v-3.368
		c0-2.908,0-3.443-0.038-4.057c-0.036-0.65-0.19-0.957-0.821-1.091c-0.15-0.038-0.479-0.057-0.746-0.057
		c-0.211,0-0.322-0.038-0.322-0.172c0-0.135,0.133-0.173,0.398-0.173c1.032,0,2.236,0.058,2.756,0.058
		c0.459,0,1.664-0.058,2.41-0.058c0.27,0,0.4,0.038,0.4,0.173c0,0.134-0.113,0.172-0.344,0.172c-0.154,0-0.326,0.019-0.557,0.057
		c-0.516,0.096-0.668,0.421-0.707,1.091c-0.039,0.612-0.039,1.148-0.039,4.057v0.401c0,0.096,0.059,0.135,0.115,0.135H192.757z"/>
	<path fill="#FFFFFF" d="M201.542,13.371c0-2.908,0-3.443-0.037-4.057c-0.039-0.65-0.191-0.957-0.822-1.091
		c-0.154-0.038-0.479-0.057-0.746-0.057c-0.211,0-0.326-0.038-0.326-0.172c0-0.135,0.137-0.173,0.422-0.173
		c0.518,0,1.07,0.02,1.551,0.02c0.498,0.019,0.938,0.038,1.205,0.038c0.611,0,4.42,0,4.781-0.02
		c0.363-0.038,0.672-0.076,0.822-0.114c0.096-0.02,0.211-0.077,0.309-0.077c0.096,0,0.113,0.077,0.113,0.173
		c0,0.134-0.096,0.363-0.15,1.243c-0.021,0.19-0.061,1.033-0.1,1.263c-0.018,0.096-0.057,0.21-0.189,0.21s-0.172-0.095-0.172-0.268
		c0-0.134-0.02-0.459-0.115-0.688c-0.133-0.345-0.322-0.574-1.279-0.688c-0.324-0.038-2.334-0.077-2.719-0.077
		c-0.096,0-0.135,0.058-0.135,0.19v4.841c0,0.134,0.021,0.211,0.135,0.211c0.424,0,2.621,0,3.062-0.039
		c0.461-0.038,0.746-0.096,0.92-0.287c0.133-0.153,0.211-0.249,0.305-0.249c0.078,0,0.135,0.038,0.135,0.153
		c0,0.114-0.076,0.421-0.152,1.396c-0.02,0.383-0.074,1.148-0.074,1.282c0,0.152,0,0.363-0.176,0.363
		c-0.133,0-0.172-0.077-0.172-0.173c-0.018-0.19-0.018-0.439-0.076-0.688c-0.096-0.383-0.361-0.669-1.07-0.747
		c-0.363-0.038-2.26-0.057-2.719-0.057c-0.096,0-0.113,0.076-0.113,0.19v1.511c0,0.651-0.02,2.411,0,2.967
		c0.039,1.319,0.346,1.606,2.297,1.606c0.498,0,1.303,0,1.799-0.229c0.498-0.229,0.729-0.631,0.861-1.416
		c0.037-0.21,0.074-0.287,0.209-0.287c0.152,0,0.152,0.152,0.152,0.344c0,0.44-0.152,1.741-0.248,2.124
		c-0.135,0.498-0.307,0.498-1.033,0.498c-1.436,0-2.486-0.039-3.311-0.058c-0.822-0.039-1.416-0.059-1.99-0.059
		c-0.211,0-0.631,0-1.09,0.02c-0.438,0-0.938,0.039-1.318,0.039c-0.25,0-0.385-0.059-0.385-0.191c0-0.096,0.076-0.153,0.309-0.153
		c0.285,0,0.518-0.038,0.688-0.076c0.383-0.076,0.479-0.497,0.556-1.052c0.096-0.804,0.096-2.314,0.096-4.076v-3.363H201.542z"/>
	<path fill="#FFFFFF" d="M8.382,36.334c0-2.908,0-3.444-0.037-4.057c-0.039-0.65-0.191-0.957-0.822-1.09
		c-0.155-0.038-0.479-0.058-0.748-0.058c-0.21,0-0.325-0.038-0.325-0.172s0.134-0.172,0.421-0.172c0.517,0,1.072,0.019,1.55,0.019
		c0.498,0.021,0.938,0.039,1.205,0.039c0.613,0,4.42,0,4.783-0.019c0.363-0.038,0.67-0.077,0.822-0.116
		c0.096-0.019,0.211-0.076,0.307-0.076c0.096,0,0.115,0.076,0.115,0.172c0,0.134-0.096,0.363-0.152,1.244
		c-0.02,0.191-0.059,1.033-0.098,1.262c-0.018,0.097-0.057,0.21-0.191,0.21c-0.133,0-0.172-0.095-0.172-0.268
		c0-0.134-0.018-0.458-0.115-0.688c-0.133-0.344-0.324-0.573-1.281-0.688c-0.324-0.038-2.334-0.077-2.717-0.077
		c-0.096,0-0.135,0.058-0.135,0.192v4.84c0,0.135,0.02,0.211,0.135,0.211c0.422,0,2.621,0,3.061-0.039
		c0.461-0.038,0.748-0.095,0.92-0.287c0.133-0.154,0.211-0.249,0.305-0.249c0.078,0,0.135,0.038,0.135,0.153
		c0,0.114-0.076,0.421-0.152,1.396c-0.02,0.383-0.076,1.148-0.076,1.283c0,0.153,0,0.363-0.174,0.363
		c-0.133,0-0.172-0.077-0.172-0.172c-0.018-0.191-0.018-0.44-0.076-0.689c-0.096-0.383-0.363-0.669-1.072-0.747
		c-0.363-0.038-2.258-0.057-2.717-0.057c-0.096,0-0.115,0.077-0.115,0.191V39.7c0,0.65-0.018,2.41,0,2.966
		c0.039,1.318,0.346,1.605,2.297,1.605c0.498,0,1.301,0,1.799-0.229s0.727-0.631,0.861-1.416c0.037-0.21,0.076-0.287,0.211-0.287
		c0.152,0,0.152,0.153,0.152,0.344c0,0.44-0.152,1.742-0.248,2.125c-0.135,0.497-0.307,0.497-1.035,0.497
		c-1.434,0-2.486-0.039-3.309-0.057c-0.822-0.039-1.416-0.059-1.99-0.059c-0.211,0-0.631,0-1.09,0.02
		c-0.441,0-0.939,0.039-1.32,0.039c-0.25,0-0.383-0.059-0.383-0.191c0-0.096,0.077-0.154,0.307-0.154
		c0.285,0,0.516-0.037,0.688-0.075c0.383-0.076,0.479-0.497,0.555-1.053c0.096-0.803,0.096-2.314,0.096-4.074v-3.366H8.382z"/>
	<path fill="#FFFFFF" d="M20.476,36.334c0-2.908,0-3.444-0.037-4.057c-0.039-0.65-0.191-0.957-0.822-1.09
		c-0.154-0.038-0.479-0.058-0.746-0.058c-0.211,0-0.326-0.038-0.326-0.172s0.133-0.172,0.42-0.172c1.016,0,2.221,0.057,2.756,0.057
		c0.594,0,1.799-0.057,2.947-0.057c2.391,0,5.586,0,7.672,2.181c0.957,0.996,1.855,2.583,1.855,4.86
		c0,2.409-1.014,4.248-2.086,5.338c-0.879,0.898-2.869,2.258-6.408,2.258c-0.689,0-1.475-0.058-2.201-0.115
		c-0.726-0.057-1.396-0.115-1.875-0.115c-0.211,0-0.631,0-1.09,0.02c-0.439,0-0.939,0.039-1.32,0.039
		c-0.25,0-0.383-0.059-0.383-0.191c0-0.096,0.076-0.153,0.307-0.153c0.285,0,0.516-0.038,0.688-0.076
		c0.383-0.076,0.479-0.497,0.555-1.053c0.096-0.803,0.096-2.314,0.096-4.074v-3.369H20.476z M22.868,38.438
		c0,2.028,0.018,3.502,0.037,3.865c0.02,0.479,0.059,1.243,0.211,1.454c0.248,0.363,0.994,0.765,2.508,0.765
		c1.951,0,3.252-0.383,4.4-1.378c1.225-1.053,1.607-2.793,1.607-4.764c0-2.429-1.016-3.999-1.838-4.783
		c-1.76-1.684-3.941-1.914-5.434-1.914c-0.383,0-1.092,0.058-1.244,0.134c-0.172,0.076-0.23,0.173-0.23,0.384
		c-0.018,0.649-0.018,2.314-0.018,3.825L22.868,38.438L22.868,38.438z"/>
	<path fill="#FFFFFF" d="M38.196,36.334c0-2.908,0-3.444-0.039-4.057c-0.037-0.65-0.229-0.977-0.65-1.071
		c-0.209-0.058-0.459-0.077-0.688-0.077c-0.191,0-0.307-0.038-0.307-0.191c0-0.113,0.152-0.151,0.459-0.151
		c0.729,0,1.932,0.057,2.488,0.057c0.479,0,1.607-0.057,2.334-0.057c0.248,0,0.4,0.038,0.4,0.151c0,0.154-0.113,0.191-0.305,0.191
		c-0.192,0-0.346,0.02-0.574,0.058c-0.518,0.097-0.67,0.42-0.709,1.09c-0.037,0.612-0.037,1.148-0.037,4.057v3.368
		c0,1.854,0,3.367,0.076,4.189c0.057,0.517,0.191,0.861,0.766,0.938c0.268,0.038,0.689,0.075,0.977,0.075
		c0.209,0,0.305,0.059,0.305,0.154c0,0.134-0.152,0.191-0.363,0.191c-1.262,0-2.469-0.059-2.984-0.059
		c-0.441,0-1.645,0.059-2.412,0.059c-0.248,0-0.381-0.059-0.381-0.191c0-0.096,0.076-0.154,0.307-0.154
		c0.285,0,0.516-0.037,0.688-0.075c0.383-0.076,0.498-0.401,0.555-0.957c0.096-0.804,0.096-2.315,0.096-4.171v-3.366H38.196z"/>
	<path fill="#FFFFFF" d="M49.39,31.857l-2.85,0.076c-1.109,0.039-1.57,0.135-1.855,0.556c-0.193,0.287-0.287,0.518-0.326,0.669
		c-0.039,0.152-0.096,0.229-0.211,0.229c-0.133,0-0.172-0.095-0.172-0.306c0-0.307,0.363-2.047,0.402-2.2
		c0.057-0.249,0.113-0.364,0.229-0.364c0.154,0,0.346,0.191,0.824,0.23c0.555,0.057,1.281,0.096,1.912,0.096h7.578
		c0.611,0,1.031-0.057,1.318-0.096c0.287-0.058,0.441-0.097,0.518-0.097c0.135,0,0.152,0.115,0.152,0.402
		c0,0.402-0.057,1.722-0.057,2.22c-0.02,0.191-0.057,0.307-0.172,0.307c-0.154,0-0.191-0.097-0.211-0.384l-0.02-0.21
		c-0.037-0.498-0.555-1.032-2.258-1.07l-2.41-0.059v7.845c0,1.76,0,3.271,0.096,4.095c0.057,0.536,0.172,0.957,0.746,1.033
		c0.268,0.038,0.688,0.076,0.977,0.076c0.209,0,0.305,0.058,0.305,0.153c0,0.134-0.152,0.191-0.363,0.191
		c-1.262,0-2.469-0.059-3.004-0.059c-0.439,0-1.645,0.059-2.41,0.059c-0.25,0-0.383-0.059-0.383-0.191
		c0-0.096,0.076-0.153,0.305-0.153c0.289,0,0.518-0.038,0.689-0.076c0.383-0.076,0.498-0.497,0.557-1.053
		c0.094-0.803,0.094-2.314,0.094-4.074V31.857z"/>
	<path fill="#FFFFFF" d="M70.247,36.871c0.059,0,0.115-0.039,0.115-0.135v-0.401c0-2.908,0-3.444-0.039-4.057
		c-0.037-0.65-0.189-0.956-0.822-1.09c-0.152-0.038-0.479-0.058-0.746-0.058c-0.209,0-0.324-0.038-0.324-0.172
		s0.133-0.172,0.4-0.172c1.035,0,2.238,0.057,2.756,0.057c0.459,0,1.664-0.057,2.41-0.057c0.27,0,0.402,0.038,0.402,0.172
		s-0.115,0.172-0.344,0.172c-0.152,0-0.326,0.02-0.555,0.058c-0.518,0.097-0.67,0.42-0.709,1.09
		c-0.037,0.612-0.037,1.148-0.037,4.057v3.368c0,1.76,0,3.271,0.096,4.095c0.057,0.536,0.172,0.957,0.746,1.033
		c0.268,0.038,0.688,0.076,0.975,0.076c0.211,0,0.307,0.058,0.307,0.153c0,0.134-0.154,0.191-0.383,0.191
		c-1.244,0-2.449-0.059-2.984-0.059c-0.441,0-1.645,0.059-2.391,0.059c-0.27,0-0.402-0.059-0.402-0.191
		c0-0.096,0.076-0.153,0.305-0.153c0.287,0,0.518-0.038,0.689-0.076c0.383-0.076,0.479-0.497,0.555-1.053
		c0.096-0.803,0.096-2.314,0.096-4.074V38.02c0-0.076-0.057-0.113-0.115-0.113h-7.309c-0.057,0-0.115,0.018-0.115,0.113v1.685
		c0,1.76,0,3.271,0.096,4.095c0.059,0.536,0.172,0.957,0.746,1.033c0.27,0.038,0.689,0.076,0.977,0.076
		c0.211,0,0.307,0.058,0.307,0.153c0,0.134-0.154,0.191-0.383,0.191c-1.244,0-2.449-0.059-2.984-0.059
		c-0.441,0-1.646,0.059-2.412,0.059c-0.248,0-0.383-0.059-0.383-0.191c0-0.096,0.078-0.153,0.307-0.153
		c0.287,0,0.518-0.038,0.689-0.076c0.383-0.076,0.479-0.497,0.555-1.052c0.096-0.804,0.096-2.315,0.096-4.075v-3.368
		c0-2.908,0-3.444-0.039-4.056c-0.037-0.651-0.189-0.957-0.822-1.091c-0.152-0.038-0.479-0.058-0.746-0.058
		c-0.211,0-0.324-0.038-0.324-0.172s0.133-0.172,0.4-0.172c1.033,0,2.238,0.057,2.756,0.057c0.459,0,1.664-0.057,2.41-0.057
		c0.27,0,0.402,0.038,0.402,0.172s-0.115,0.172-0.344,0.172c-0.154,0-0.326,0.02-0.557,0.058c-0.516,0.097-0.668,0.42-0.707,1.091
		c-0.039,0.611-0.039,1.147-0.039,4.056v0.402c0,0.095,0.059,0.134,0.115,0.134h7.307V36.871z"/>
	<path fill="#FFFFFF" d="M82.688,38.018c0-3.271,2.162-7.5,7.902-7.5c4.764,0,7.729,2.775,7.729,7.156s-3.061,7.844-7.92,7.844
		C84.907,45.519,82.688,41.405,82.688,38.018z M95.642,38.382c0-4.285-2.469-6.946-5.605-6.946c-2.201,0-4.707,1.226-4.707,5.989
		c0,3.98,2.199,7.137,5.873,7.137C92.542,44.562,95.642,43.911,95.642,38.382z"/>
	<path fill="#FFFFFF" d="M100.581,30.002c-0.191-0.192-0.211-0.249-0.211-0.345c0-0.058,0.115-0.153,0.211-0.153
		c0.383,0,1.225,0.249,1.588,0.364c0.479,0.134,0.555,0.268,0.555,0.555c0,1.167-1.244,3.214-2.105,4.094
		c-0.113,0.115-0.189,0.153-0.305,0.153c-0.059,0-0.115-0.038-0.115-0.115c0-0.038,0.02-0.095,0.096-0.249
		c0.344-0.669,0.746-1.798,0.746-2.983C101.04,30.69,100.753,30.174,100.581,30.002z"/>
	<path fill="#FFFFFF" d="M106.685,36.334c0-2.908,0-3.444-0.039-4.057c-0.039-0.65-0.191-0.957-0.822-1.09
		c-0.154-0.038-0.479-0.058-0.746-0.058c-0.211,0-0.326-0.038-0.326-0.172s0.135-0.172,0.422-0.172c1.014,0,2.219,0.057,2.754,0.057
		c0.594,0,1.799-0.057,2.947-0.057c2.392,0,5.586,0,7.672,2.181c0.957,0.996,1.856,2.583,1.856,4.86
		c0,2.409-1.016,4.248-2.086,5.338c-0.881,0.898-2.871,2.258-6.409,2.258c-0.688,0-1.474-0.058-2.201-0.115
		c-0.727-0.057-1.396-0.115-1.875-0.115c-0.209,0-0.631,0-1.09,0.02c-0.439,0-0.938,0.039-1.32,0.039
		c-0.248,0-0.383-0.059-0.383-0.191c0-0.096,0.078-0.153,0.307-0.153c0.287,0,0.516-0.038,0.689-0.076
		c0.381-0.076,0.477-0.497,0.555-1.053c0.096-0.803,0.096-2.314,0.096-4.074L106.685,36.334L106.685,36.334z M109.075,38.438
		c0,2.028,0.02,3.502,0.039,3.865c0.02,0.479,0.057,1.243,0.209,1.454c0.25,0.363,0.996,0.765,2.508,0.765
		c1.951,0,3.252-0.383,4.4-1.378c1.225-1.053,1.605-2.793,1.605-4.764c0-2.429-1.016-3.999-1.836-4.783
		c-1.762-1.684-3.939-1.914-5.438-1.914c-0.383,0-1.088,0.058-1.242,0.134c-0.172,0.076-0.229,0.173-0.229,0.384
		c-0.02,0.649-0.02,2.314-0.02,3.825v2.412H109.075z"/>
	<path fill="#FFFFFF" d="M122.511,38.018c0-3.271,2.162-7.5,7.902-7.5c4.764,0,7.729,2.775,7.729,7.156s-3.061,7.844-7.92,7.844
		C124.729,45.519,122.511,41.405,122.511,38.018z M135.464,38.382c0-4.285-2.469-6.946-5.605-6.946
		c-2.199,0-4.707,1.226-4.707,5.989c0,3.98,2.199,7.137,5.873,7.137C132.364,44.562,135.464,43.911,135.464,38.382z"/>
	<path fill="#FFFFFF" d="M143.216,42.647c0.037,1.492,0.287,1.99,0.67,2.124c0.324,0.116,0.688,0.135,0.994,0.135
		c0.211,0,0.326,0.038,0.326,0.153c0,0.153-0.174,0.191-0.441,0.191c-1.244,0-2.008-0.059-2.371-0.059
		c-0.174,0-1.07,0.059-2.064,0.059c-0.25,0-0.422-0.021-0.422-0.191c0-0.115,0.113-0.153,0.307-0.153
		c0.248,0,0.596-0.019,0.861-0.096c0.494-0.152,0.572-0.708,0.592-2.373l0.172-11.27c0-0.382,0.061-0.65,0.25-0.65
		c0.211,0,0.385,0.249,0.707,0.594c0.229,0.249,3.141,3.311,5.934,6.083c1.301,1.303,3.885,4.058,4.209,4.362h0.096l-0.191-8.59
		c-0.02-1.167-0.191-1.531-0.65-1.722c-0.286-0.115-0.745-0.115-1.014-0.115c-0.229,0-0.307-0.058-0.307-0.172
		c0-0.153,0.211-0.172,0.498-0.172c0.994,0,1.914,0.057,2.314,0.057c0.211,0,0.938-0.057,1.875-0.057
		c0.248,0,0.439,0.019,0.439,0.172c0,0.114-0.115,0.172-0.348,0.172c-0.189,0-0.344,0-0.572,0.058
		c-0.535,0.153-0.688,0.555-0.707,1.626l-0.211,12.073c0,0.42-0.076,0.593-0.248,0.593c-0.211,0-0.439-0.211-0.648-0.421
		c-1.205-1.147-3.654-3.655-5.646-5.625c-2.086-2.066-4.209-4.4-4.557-4.764h-0.057L143.216,42.647z"/>
	<path fill="#FFFFFF" d="M161.337,42.647c0.039,1.492,0.287,1.99,0.67,2.124c0.324,0.116,0.689,0.135,0.994,0.135
		c0.211,0,0.326,0.038,0.326,0.153c0,0.153-0.172,0.191-0.439,0.191c-1.244,0-2.01-0.059-2.373-0.059
		c-0.172,0-1.072,0.059-2.064,0.059c-0.248,0-0.424-0.021-0.424-0.191c0-0.115,0.115-0.153,0.309-0.153
		c0.25,0,0.596-0.019,0.859-0.096c0.498-0.152,0.574-0.708,0.596-2.373l0.172-11.27c0-0.382,0.059-0.65,0.248-0.65
		c0.211,0,0.383,0.249,0.709,0.594c0.229,0.249,3.139,3.311,5.932,6.083c1.303,1.303,3.885,4.058,4.211,4.362h0.096l-0.191-8.59
		c-0.02-1.167-0.191-1.531-0.65-1.722c-0.287-0.115-0.746-0.115-1.016-0.115c-0.229,0-0.305-0.058-0.305-0.172
		c0-0.153,0.211-0.172,0.496-0.172c0.996,0,1.914,0.057,2.316,0.057c0.211,0,0.938-0.057,1.875-0.057
		c0.248,0,0.438,0.019,0.438,0.172c0,0.114-0.115,0.172-0.346,0.172c-0.189,0-0.346,0-0.572,0.058
		c-0.535,0.153-0.688,0.555-0.709,1.626l-0.209,12.073c0,0.42-0.078,0.593-0.25,0.593c-0.211,0-0.438-0.211-0.65-0.421
		c-1.203-1.147-3.652-3.655-5.646-5.625c-2.087-2.066-4.21-4.4-4.554-4.764h-0.057L161.337,42.647z"/>
	<path fill="#FFFFFF" d="M178.388,36.334c0-2.908,0-3.444-0.039-4.057c-0.037-0.65-0.188-0.957-0.822-1.09
		c-0.15-0.038-0.479-0.058-0.744-0.058c-0.213,0-0.324-0.038-0.324-0.172s0.133-0.172,0.42-0.172c0.518,0,1.072,0.019,1.553,0.019
		c0.494,0.021,0.938,0.039,1.203,0.039c0.611,0,4.422,0,4.783-0.019c0.361-0.038,0.67-0.077,0.82-0.116
		c0.098-0.019,0.213-0.076,0.309-0.076c0.098,0,0.115,0.076,0.115,0.172c0,0.134-0.098,0.363-0.154,1.244
		c-0.02,0.191-0.057,1.033-0.096,1.262c-0.02,0.097-0.059,0.21-0.189,0.21c-0.135,0-0.174-0.095-0.174-0.268
		c0-0.134-0.021-0.458-0.113-0.688c-0.135-0.344-0.324-0.573-1.281-0.688c-0.324-0.038-2.334-0.077-2.717-0.077
		c-0.098,0-0.137,0.058-0.137,0.192v4.84c0,0.135,0.021,0.211,0.137,0.211c0.422,0,2.621,0,3.061-0.039
		c0.459-0.038,0.746-0.095,0.92-0.287c0.133-0.154,0.209-0.249,0.305-0.249c0.078,0,0.135,0.038,0.135,0.153
		c0,0.114-0.075,0.421-0.152,1.396c-0.02,0.383-0.076,1.148-0.076,1.283c0,0.153,0,0.363-0.172,0.363
		c-0.135,0-0.172-0.077-0.172-0.172c-0.021-0.191-0.021-0.44-0.076-0.689c-0.098-0.383-0.363-0.669-1.072-0.747
		c-0.361-0.038-2.258-0.057-2.717-0.057c-0.098,0-0.115,0.077-0.115,0.191V39.7c0,0.65-0.018,2.41,0,2.966
		c0.039,1.318,0.348,1.605,2.299,1.605c0.498,0,1.301,0,1.799-0.229s0.727-0.631,0.859-1.416c0.037-0.21,0.076-0.287,0.209-0.287
		c0.154,0,0.154,0.153,0.154,0.344c0,0.44-0.154,1.742-0.25,2.125c-0.134,0.497-0.307,0.497-1.033,0.497
		c-1.435,0-2.484-0.039-3.31-0.057c-0.821-0.039-1.416-0.059-1.989-0.059c-0.211,0-0.631,0-1.093,0.02
		c-0.438,0-0.938,0.039-1.319,0.039c-0.248,0-0.381-0.059-0.381-0.191c0-0.096,0.075-0.154,0.305-0.154
		c0.287,0,0.52-0.037,0.688-0.075c0.384-0.076,0.479-0.497,0.556-1.053c0.098-0.803,0.098-2.314,0.098-4.074v-3.366H178.388z"/>
	<path fill="#FFFFFF" d="M192.874,39.702c0,2.448,0,3.769,0.4,4.113c0.326,0.287,0.824,0.42,2.312,0.42
		c1.018,0,1.764-0.019,2.24-0.534c0.229-0.249,0.459-0.785,0.498-1.148c0.02-0.172,0.057-0.287,0.209-0.287
		c0.135,0,0.152,0.096,0.152,0.325c0,0.211-0.135,1.645-0.287,2.201c-0.113,0.42-0.211,0.516-1.207,0.516
		c-1.377,0-2.369-0.039-3.23-0.057c-0.859-0.039-1.551-0.059-2.334-0.059c-0.211,0-0.631,0-1.092,0.02
		c-0.438,0-0.938,0.039-1.32,0.039c-0.246,0-0.381-0.059-0.381-0.191c0-0.096,0.076-0.153,0.309-0.153
		c0.285,0,0.516-0.038,0.688-0.076c0.383-0.076,0.479-0.497,0.555-1.053c0.096-0.803,0.096-2.314,0.096-4.074v-3.368
		c0-2.908,0-3.444-0.039-4.057c-0.035-0.65-0.188-0.956-0.82-1.09c-0.15-0.038-0.385-0.058-0.631-0.058
		c-0.213,0-0.324-0.038-0.324-0.172s0.133-0.172,0.42-0.172c0.898,0,2.104,0.057,2.621,0.057c0.459,0,1.854-0.057,2.604-0.057
		c0.268,0,0.4,0.038,0.4,0.172s-0.113,0.172-0.344,0.172c-0.211,0-0.52,0.02-0.746,0.058c-0.52,0.097-0.67,0.42-0.709,1.09
		c-0.037,0.612-0.037,1.148-0.037,4.057L192.874,39.702L192.874,39.702z"/>
	<path fill="#FFFFFF" d="M204.45,39.702c0,2.448,0,3.769,0.402,4.113c0.326,0.287,0.82,0.42,2.312,0.42
		c1.018,0,1.764-0.019,2.24-0.534c0.229-0.249,0.455-0.785,0.494-1.148c0.021-0.172,0.059-0.287,0.211-0.287
		c0.135,0,0.152,0.096,0.152,0.325c0,0.211-0.133,1.645-0.287,2.201c-0.115,0.42-0.209,0.516-1.205,0.516
		c-1.377,0-2.373-0.039-3.23-0.057c-0.859-0.039-1.551-0.059-2.336-0.059c-0.209,0-0.631,0-1.09,0.02
		c-0.439,0-0.938,0.039-1.32,0.039c-0.248,0-0.383-0.059-0.383-0.191c0-0.096,0.074-0.153,0.309-0.153
		c0.285,0,0.516-0.038,0.688-0.076c0.381-0.076,0.478-0.497,0.555-1.053c0.098-0.803,0.098-2.314,0.098-4.074v-3.368
		c0-2.908,0-3.444-0.039-4.057c-0.039-0.65-0.191-0.956-0.822-1.09c-0.154-0.038-0.383-0.058-0.633-0.058
		c-0.209,0-0.324-0.038-0.324-0.172s0.135-0.172,0.422-0.172c0.898,0,2.104,0.057,2.621,0.057c0.459,0,1.855-0.057,2.602-0.057
		c0.268,0,0.402,0.038,0.402,0.172s-0.115,0.172-0.346,0.172c-0.209,0-0.518,0.02-0.746,0.058c-0.516,0.097-0.67,0.42-0.707,1.09
		c-0.039,0.612-0.039,1.148-0.039,4.057V39.702L204.45,39.702z"/>
	<path fill="#FFFFFF" d="M62.729,59.298c0-2.907,0-3.442-0.039-4.056c-0.039-0.651-0.23-0.977-0.65-1.071
		c-0.211-0.058-0.459-0.077-0.689-0.077c-0.191,0-0.305-0.037-0.305-0.191c0-0.112,0.152-0.151,0.459-0.151
		c0.727,0,1.932,0.06,2.486,0.06c0.479,0,1.607-0.06,2.334-0.06c0.25,0,0.402,0.039,0.402,0.151c0,0.154-0.115,0.191-0.307,0.191
		s-0.344,0.021-0.574,0.059c-0.516,0.097-0.668,0.422-0.707,1.092C65.1,55.855,65.1,56.391,65.1,59.3v3.367
		c0,1.854,0,3.368,0.078,4.19c0.057,0.518,0.189,0.86,0.764,0.938c0.268,0.039,0.689,0.077,0.977,0.077
		c0.211,0,0.305,0.058,0.305,0.151c0,0.136-0.152,0.191-0.363,0.191c-1.262,0-2.467-0.058-2.984-0.058
		c-0.439,0-1.645,0.058-2.41,0.058c-0.248,0-0.383-0.058-0.383-0.191c0-0.096,0.076-0.151,0.307-0.151
		c0.287,0,0.516-0.038,0.688-0.077c0.383-0.076,0.498-0.4,0.557-0.957c0.096-0.803,0.096-2.312,0.096-4.171v-3.368L62.729,59.298
		L62.729,59.298z"/>
	<path fill="#FFFFFF" d="M72.45,65.611c0.039,1.492,0.287,1.99,0.67,2.125c0.324,0.115,0.688,0.134,0.994,0.134
		c0.211,0,0.326,0.039,0.326,0.153c0,0.152-0.174,0.189-0.441,0.189c-1.242,0-2.008-0.058-2.371-0.058
		c-0.174,0-1.072,0.058-2.066,0.058c-0.25,0-0.422-0.02-0.422-0.189c0-0.114,0.115-0.153,0.307-0.153
		c0.248,0,0.594-0.019,0.861-0.095c0.496-0.153,0.574-0.709,0.592-2.373l0.174-11.271c0-0.383,0.057-0.649,0.248-0.649
		c0.211,0,0.383,0.248,0.707,0.594c0.23,0.248,3.139,3.31,5.932,6.084c1.301,1.301,3.885,4.056,4.209,4.361h0.096l-0.191-8.59
		c-0.018-1.166-0.191-1.531-0.65-1.723c-0.287-0.115-0.746-0.115-1.014-0.115c-0.229,0-0.307-0.057-0.307-0.172
		c0-0.152,0.211-0.172,0.498-0.172c0.994,0,1.914,0.059,2.314,0.059c0.211,0,0.939-0.059,1.875-0.059c0.25,0,0.441,0.02,0.441,0.172
		c0,0.115-0.115,0.172-0.346,0.172c-0.191,0-0.344,0-0.574,0.059c-0.535,0.154-0.688,0.556-0.707,1.627l-0.211,12.072
		c0,0.422-0.076,0.594-0.248,0.594c-0.211,0-0.439-0.211-0.65-0.422c-1.205-1.146-3.654-3.653-5.645-5.625
		c-2.086-2.065-4.209-4.399-4.555-4.765h-0.057L72.45,65.611z"/>
	<path fill="#FFFFFF" d="M88.448,67.984c-0.307-0.135-0.365-0.229-0.365-0.65c0-1.053,0.078-2.2,0.098-2.506
		c0.018-0.288,0.074-0.498,0.229-0.498c0.172,0,0.191,0.172,0.191,0.325c0,0.249,0.076,0.649,0.172,0.976
		c0.422,1.416,1.551,1.932,2.736,1.932c1.723,0,2.564-1.166,2.564-2.181c0-0.938-0.287-1.817-1.875-3.062l-0.881-0.688
		c-2.105-1.646-2.832-2.983-2.832-4.534c0-2.104,1.762-3.617,4.42-3.617c1.244,0,2.047,0.191,2.545,0.326
		c0.172,0.038,0.268,0.096,0.268,0.229c0,0.249-0.076,0.804-0.076,2.296c0,0.421-0.059,0.573-0.211,0.573
		c-0.133,0-0.191-0.114-0.191-0.343c0-0.172-0.096-0.768-0.498-1.265c-0.285-0.362-0.84-0.938-2.084-0.938
		c-1.416,0-2.277,0.822-2.277,1.972c0,0.88,0.439,1.55,2.027,2.755l0.537,0.4c2.314,1.742,3.137,3.062,3.137,4.881
		c0,1.107-0.42,2.429-1.797,3.328c-0.957,0.611-2.029,0.783-3.043,0.783C90.132,68.482,89.27,68.348,88.448,67.984z"/>
	<path fill="#FFFFFF" d="M103.183,54.82l-2.852,0.078c-1.109,0.039-1.568,0.135-1.855,0.555c-0.191,0.287-0.287,0.517-0.326,0.669
		c-0.037,0.153-0.094,0.229-0.209,0.229c-0.135,0-0.174-0.097-0.174-0.309c0-0.307,0.363-2.046,0.402-2.199
		c0.059-0.25,0.115-0.363,0.23-0.363c0.152,0,0.344,0.19,0.822,0.229c0.555,0.059,1.283,0.098,1.914,0.098h7.576
		c0.611,0,1.033-0.06,1.32-0.098c0.286-0.059,0.438-0.096,0.516-0.096c0.136,0,0.154,0.113,0.154,0.4c0,0.401-0.06,1.723-0.06,2.219
		c-0.021,0.192-0.058,0.308-0.172,0.308c-0.152,0-0.191-0.097-0.212-0.382l-0.02-0.21c-0.037-0.498-0.554-1.034-2.256-1.072
		l-2.412-0.06v7.846c0,1.761,0,3.271,0.096,4.095c0.059,0.535,0.172,0.957,0.746,1.033c0.268,0.039,0.689,0.077,0.977,0.077
		c0.211,0,0.307,0.057,0.307,0.152c0,0.135-0.154,0.19-0.365,0.19c-1.262,0-2.467-0.058-3.002-0.058
		c-0.441,0-1.646,0.058-2.412,0.058c-0.248,0-0.383-0.058-0.383-0.19c0-0.097,0.078-0.152,0.307-0.152
		c0.287,0,0.518-0.038,0.689-0.077c0.383-0.076,0.496-0.498,0.555-1.052c0.096-0.805,0.096-2.315,0.096-4.076L103.183,54.82
		L103.183,54.82z"/>
	<path fill="#FFFFFF" d="M114.224,59.298c0-2.907,0-3.442-0.037-4.056c-0.039-0.651-0.229-0.977-0.648-1.071
		c-0.211-0.058-0.461-0.077-0.688-0.077c-0.191,0-0.309-0.037-0.309-0.191c0-0.112,0.152-0.151,0.461-0.151
		c0.729,0,1.934,0.06,2.484,0.06c0.479,0,1.607-0.06,2.334-0.06c0.248,0,0.402,0.039,0.402,0.151c0,0.154-0.115,0.191-0.307,0.191
		s-0.344,0.021-0.574,0.059c-0.516,0.097-0.67,0.422-0.707,1.092c-0.039,0.611-0.039,1.146-0.039,4.056v3.367
		c0,1.854,0,3.368,0.076,4.19c0.059,0.518,0.191,0.86,0.766,0.938c0.27,0.039,0.689,0.077,0.979,0.077
		c0.211,0,0.307,0.058,0.307,0.151c0,0.136-0.152,0.191-0.363,0.191c-1.262,0-2.469-0.058-2.984-0.058
		c-0.439,0-1.645,0.058-2.41,0.058c-0.25,0-0.383-0.058-0.383-0.191c0-0.096,0.076-0.151,0.307-0.151
		c0.287,0,0.516-0.038,0.688-0.077c0.383-0.076,0.498-0.4,0.555-0.957c0.097-0.803,0.097-2.312,0.097-4.171v-3.368L114.224,59.298
		L114.224,59.298z"/>
	<path fill="#FFFFFF" d="M125.417,54.82l-2.85,0.078c-1.109,0.039-1.568,0.135-1.855,0.555c-0.191,0.287-0.287,0.517-0.326,0.669
		c-0.037,0.153-0.096,0.229-0.209,0.229c-0.135,0-0.174-0.097-0.174-0.309c0-0.307,0.363-2.046,0.402-2.199
		c0.057-0.25,0.115-0.363,0.229-0.363c0.154,0,0.346,0.19,0.824,0.229c0.555,0.059,1.281,0.098,1.914,0.098h7.576
		c0.611,0,1.033-0.06,1.318-0.098c0.289-0.059,0.439-0.096,0.518-0.096c0.135,0,0.154,0.113,0.154,0.4
		c0,0.401-0.061,1.723-0.061,2.219c-0.021,0.192-0.059,0.308-0.172,0.308c-0.15,0-0.189-0.097-0.211-0.382l-0.021-0.21
		c-0.037-0.498-0.555-1.034-2.256-1.072l-2.412-0.06v7.846c0,1.761,0,3.271,0.096,4.095c0.059,0.535,0.174,0.957,0.746,1.033
		c0.27,0.039,0.689,0.077,0.979,0.077c0.209,0,0.307,0.057,0.307,0.152c0,0.135-0.152,0.19-0.363,0.19
		c-1.262,0-2.467-0.058-3.004-0.058c-0.439,0-1.646,0.058-2.41,0.058c-0.248,0-0.383-0.058-0.383-0.19
		c0-0.097,0.076-0.152,0.307-0.152c0.287,0,0.516-0.038,0.688-0.077c0.383-0.076,0.498-0.498,0.559-1.052
		c0.094-0.805,0.094-2.315,0.094-4.076L125.417,54.82L125.417,54.82z"/>
	<path fill="#FFFFFF" d="M135.638,59.298c0-2.907,0-3.442-0.039-4.056c-0.037-0.651-0.189-0.957-0.822-1.092
		c-0.15-0.037-0.479-0.059-0.744-0.059c-0.213,0-0.326-0.037-0.326-0.172c0-0.134,0.135-0.172,0.422-0.172
		c1.016,0,2.221,0.059,2.793,0.059c0.459,0,1.664-0.059,2.354-0.059c0.287,0,0.423,0.039,0.423,0.172
		c0,0.135-0.115,0.172-0.308,0.172c-0.211,0-0.326,0.021-0.556,0.059c-0.519,0.097-0.67,0.422-0.709,1.092
		c-0.037,0.611-0.037,1.148-0.037,4.056v2.679c0,2.774,0.556,3.941,1.492,4.709c0.86,0.707,1.739,0.783,2.394,0.783
		c0.842,0,1.873-0.268,2.639-1.033c1.054-1.052,1.109-2.772,1.109-4.744v-2.393c0-2.906,0-3.443-0.037-4.056
		c-0.039-0.651-0.19-0.957-0.822-1.091c-0.153-0.038-0.479-0.06-0.688-0.06s-0.325-0.036-0.325-0.172
		c0-0.134,0.135-0.172,0.401-0.172c0.978,0,2.183,0.06,2.201,0.06c0.229,0,1.434-0.06,2.18-0.06c0.271,0,0.402,0.039,0.402,0.172
		c0,0.134-0.115,0.172-0.345,0.172c-0.211,0-0.326,0.021-0.556,0.06c-0.519,0.096-0.67,0.421-0.709,1.091
		c-0.036,0.612-0.036,1.147-0.036,4.056v2.047c0,2.125-0.212,4.383-1.818,5.76c-1.356,1.166-2.735,1.377-3.979,1.377
		c-1.016,0-2.854-0.059-4.248-1.319c-0.977-0.88-1.701-2.295-1.701-5.07v-2.794L135.638,59.298L135.638,59.298z"/>
	<path fill="#FFFFFF" d="M155.31,54.82l-2.852,0.078c-1.109,0.039-1.568,0.135-1.855,0.555c-0.189,0.287-0.287,0.517-0.326,0.669
		c-0.035,0.153-0.094,0.229-0.209,0.229c-0.135,0-0.174-0.097-0.174-0.309c0-0.307,0.365-2.046,0.402-2.199
		c0.059-0.25,0.115-0.363,0.23-0.363c0.152,0,0.344,0.19,0.822,0.229c0.555,0.059,1.279,0.098,1.914,0.098h7.574
		c0.611,0,1.033-0.06,1.32-0.098c0.285-0.059,0.438-0.096,0.516-0.096c0.137,0,0.154,0.113,0.154,0.4
		c0,0.401-0.061,1.723-0.061,2.219c-0.02,0.192-0.057,0.308-0.172,0.308c-0.152,0-0.189-0.097-0.211-0.382l-0.02-0.21
		c-0.037-0.498-0.553-1.034-2.256-1.072l-2.412-0.06v7.846c0,1.761,0,3.271,0.096,4.095c0.059,0.535,0.172,0.957,0.746,1.033
		c0.268,0.039,0.689,0.077,0.977,0.077c0.211,0,0.307,0.057,0.307,0.152c0,0.135-0.152,0.19-0.363,0.19
		c-1.262,0-2.467-0.058-3.002-0.058c-0.439,0-1.646,0.058-2.412,0.058c-0.248,0-0.383-0.058-0.383-0.19
		c0-0.097,0.078-0.152,0.309-0.152c0.285,0,0.518-0.038,0.688-0.077c0.383-0.076,0.494-0.498,0.555-1.052
		c0.098-0.805,0.098-2.315,0.098-4.076V54.82L155.31,54.82z"/>
	<path fill="#FFFFFF" d="M166.351,59.298c0-2.907,0-3.442-0.037-4.056c-0.039-0.651-0.189-0.957-0.82-1.092
		c-0.154-0.037-0.479-0.059-0.746-0.059c-0.211,0-0.326-0.037-0.326-0.172c0-0.134,0.135-0.172,0.42-0.172
		c0.52,0,1.072,0.02,1.553,0.02c0.498,0.021,0.938,0.039,1.205,0.039c0.611,0,4.42,0,4.781-0.021
		c0.363-0.039,0.67-0.077,0.824-0.115c0.094-0.021,0.209-0.077,0.305-0.077c0.098,0,0.115,0.077,0.115,0.174
		c0,0.133-0.098,0.362-0.15,1.242c-0.021,0.192-0.061,1.033-0.098,1.264c-0.021,0.097-0.061,0.211-0.191,0.211
		c-0.135,0-0.172-0.096-0.172-0.27c0-0.134-0.02-0.459-0.113-0.688c-0.135-0.344-0.326-0.574-1.283-0.688
		c-0.324-0.038-2.334-0.077-2.717-0.077c-0.096,0-0.135,0.057-0.135,0.191v4.841c0,0.136,0.02,0.21,0.135,0.21
		c0.422,0,2.621,0,3.061-0.038c0.461-0.038,0.746-0.096,0.92-0.288c0.133-0.152,0.211-0.248,0.305-0.248
		c0.078,0,0.135,0.038,0.135,0.152c0,0.115-0.074,0.421-0.15,1.396c-0.021,0.383-0.076,1.147-0.076,1.281
		c0,0.153,0,0.363-0.174,0.363c-0.133,0-0.172-0.076-0.172-0.172c-0.02-0.191-0.02-0.438-0.076-0.688
		c-0.096-0.384-0.361-0.671-1.07-0.746c-0.363-0.039-2.26-0.059-2.719-0.059c-0.096,0-0.113,0.076-0.113,0.191v1.511
		c0,0.649-0.02,2.411,0,2.966c0.039,1.32,0.346,1.605,2.297,1.605c0.498,0,1.301,0,1.799-0.229s0.727-0.631,0.861-1.416
		c0.035-0.211,0.074-0.288,0.209-0.288c0.152,0,0.152,0.154,0.152,0.345c0,0.44-0.152,1.742-0.248,2.125
		c-0.135,0.498-0.309,0.498-1.035,0.498c-1.434,0-2.484-0.039-3.309-0.059c-0.822-0.038-1.416-0.059-1.99-0.059
		c-0.211,0-0.631,0-1.09,0.021c-0.438,0-0.938,0.038-1.32,0.038c-0.25,0-0.383-0.059-0.383-0.191c0-0.096,0.076-0.151,0.309-0.151
		c0.283,0,0.516-0.038,0.688-0.077c0.383-0.076,0.479-0.498,0.555-1.053c0.096-0.805,0.096-2.314,0.096-4.075v-3.364L166.351,59.298
		L166.351,59.298z"/>
	<path fill="#FFFFFF" d="M182.101,60.982c0-3.272,2.162-7.5,7.9-7.5c4.766,0,7.73,2.772,7.73,7.156c0,4.381-3.062,7.844-7.92,7.844
		C184.319,68.482,182.101,64.369,182.101,60.982z M195.054,61.345c0-4.286-2.469-6.944-5.604-6.944
		c-2.201,0-4.707,1.226-4.707,5.988c0,3.98,2.197,7.137,5.873,7.137C191.954,67.525,195.054,66.875,195.054,61.345z"/>
	<path fill="#FFFFFF" d="M204.144,62.665c0,1.837,0,3.272,0.098,4.076c0.059,0.554,0.174,0.976,0.744,1.052
		c0.27,0.039,0.689,0.077,0.957,0.077c0.248,0,0.326,0.057,0.326,0.153c0,0.134-0.135,0.189-0.422,0.189
		c-1.205,0-2.41-0.058-2.908-0.058s-1.703,0.058-2.43,0.058c-0.268,0-0.402-0.038-0.402-0.189c0-0.098,0.078-0.153,0.287-0.153
		c0.287,0,0.52-0.038,0.689-0.077c0.383-0.076,0.479-0.498,0.555-1.052c0.096-0.804,0.096-2.239,0.096-4.076v-3.367
		c0-2.907,0-3.442-0.039-4.056c-0.035-0.651-0.188-0.957-0.82-1.092c-0.15-0.037-0.479-0.059-0.746-0.059
		c-0.189,0-0.322-0.037-0.322-0.15c0-0.153,0.15-0.192,0.438-0.192c0.498,0,1.053,0.019,1.549,0.019
		c0.498,0.021,0.938,0.039,1.207,0.039c0.729,0,4.609,0,5.051-0.02c0.363-0.02,0.594-0.02,0.785-0.077
		c0.112-0.039,0.209-0.115,0.307-0.115c0.074,0,0.135,0.077,0.135,0.173c0,0.133-0.1,0.363-0.154,0.86
		c-0.018,0.19-0.057,1.32-0.096,1.549c-0.02,0.154-0.059,0.269-0.189,0.269c-0.135,0-0.174-0.096-0.193-0.305
		c0-0.154,0-0.459-0.112-0.728c-0.136-0.269-0.536-0.556-1.265-0.574l-2.945-0.058c-0.113,0-0.174,0.058-0.174,0.268v4.784
		c0,0.114,0.021,0.171,0.136,0.171l2.448-0.02c0.324,0,0.593,0,0.859-0.02c0.365-0.021,0.633-0.096,0.824-0.345
		c0.096-0.115,0.133-0.19,0.248-0.19c0.076,0,0.115,0.057,0.115,0.172c0,0.113-0.096,0.594-0.152,1.188
		c-0.039,0.382-0.078,1.263-0.078,1.396c0,0.172,0,0.362-0.189,0.362c-0.113,0-0.152-0.134-0.152-0.269s-0.039-0.362-0.115-0.594
		c-0.096-0.268-0.383-0.611-0.976-0.688c-0.479-0.059-2.509-0.059-2.832-0.059c-0.097,0-0.136,0.039-0.136,0.172v1.553
		L204.144,62.665L204.144,62.665z"/>
	<path fill="#FFFFFF" d="M71.798,86.299c-0.096,0-0.133,0.038-0.172,0.154l-1.033,2.621c-0.191,0.478-0.287,0.937-0.287,1.167
		c0,0.345,0.172,0.593,0.766,0.593h0.287c0.23,0,0.287,0.038,0.287,0.152c0,0.152-0.115,0.19-0.326,0.19
		c-0.611,0-1.434-0.057-2.027-0.057c-0.211,0-1.264,0.057-2.258,0.057c-0.248,0-0.363-0.038-0.363-0.19
		c0-0.114,0.076-0.152,0.23-0.152c0.172,0,0.439-0.02,0.592-0.038c0.881-0.114,1.244-0.765,1.627-1.722l4.803-11.862
		c0.229-0.554,0.344-0.767,0.535-0.767c0.172,0,0.287,0.173,0.479,0.613c0.459,1.053,3.52,8.707,4.744,11.613
		c0.729,1.723,1.283,1.99,1.684,2.085c0.287,0.058,0.574,0.076,0.805,0.076c0.152,0,0.248,0.021,0.248,0.151
		c0,0.152-0.172,0.191-0.881,0.191c-0.688,0-2.084,0-3.615-0.039c-0.344-0.018-0.574-0.018-0.574-0.152
		c0-0.113,0.076-0.151,0.268-0.172c0.135-0.039,0.27-0.209,0.174-0.438l-1.531-3.94c-0.039-0.097-0.096-0.135-0.191-0.135H71.798
		L71.798,86.299z M75.702,85.342c0.096,0,0.115-0.057,0.096-0.113l-1.723-4.707c-0.02-0.078-0.039-0.172-0.096-0.172
		s-0.096,0.094-0.115,0.172l-1.76,4.688c-0.02,0.077,0,0.134,0.076,0.134L75.702,85.342L75.702,85.342z"/>
	<path fill="#FFFFFF" d="M84.429,82.262c0-2.908,0-3.443-0.039-4.056c-0.037-0.649-0.191-0.957-0.822-1.091
		c-0.154-0.038-0.479-0.057-0.746-0.057c-0.211,0-0.326-0.039-0.326-0.174c0-0.134,0.135-0.172,0.422-0.172
		c1.014,0,2.219,0.059,2.621,0.059c0.65,0,2.105-0.059,2.697-0.059c1.207,0,2.488,0.115,3.521,0.822
		c0.535,0.363,1.301,1.34,1.301,2.622c0,1.416-0.594,2.717-2.525,4.284c1.701,2.146,3.021,3.848,4.15,5.033
		c1.072,1.109,1.857,1.244,2.145,1.301c0.211,0.039,0.383,0.059,0.535,0.059c0.152,0,0.229,0.059,0.229,0.152
		c0,0.152-0.133,0.191-0.363,0.191h-1.816c-1.072,0-1.551-0.097-2.047-0.363c-0.824-0.439-1.551-1.34-2.623-2.812
		c-0.764-1.052-1.645-2.354-1.893-2.64c-0.096-0.116-0.211-0.135-0.346-0.135l-1.664-0.039c-0.096,0-0.152,0.039-0.152,0.152v0.268
		c0,1.781,0,3.293,0.096,4.097c0.057,0.555,0.172,0.978,0.746,1.053c0.287,0.038,0.707,0.076,0.938,0.076
		c0.152,0,0.229,0.06,0.229,0.153c0,0.134-0.133,0.189-0.383,0.189c-1.109,0-2.525-0.057-2.812-0.057
		c-0.363,0-1.568,0.057-2.334,0.057c-0.248,0-0.383-0.057-0.383-0.189c0-0.098,0.078-0.153,0.307-0.153
		c0.287,0,0.518-0.038,0.689-0.076c0.381-0.075,0.479-0.498,0.555-1.053c0.096-0.804,0.096-2.313,0.096-4.075v-3.37L84.429,82.262
		L84.429,82.262z M86.687,83.773c0,0.211,0.037,0.287,0.172,0.345c0.402,0.134,0.975,0.19,1.453,0.19
		c0.766,0,1.016-0.076,1.359-0.324c0.574-0.422,1.129-1.301,1.129-2.87c0-2.718-1.799-3.503-2.928-3.503
		c-0.479,0-0.822,0.021-1.014,0.078c-0.135,0.037-0.172,0.115-0.172,0.268L86.687,83.773L86.687,83.773z"/>
	<path fill="#FFFFFF" d="M100.692,77.785l-2.85,0.076c-1.109,0.037-1.568,0.134-1.855,0.555c-0.191,0.287-0.287,0.518-0.326,0.669
		c-0.037,0.153-0.096,0.229-0.209,0.229c-0.135,0-0.174-0.098-0.174-0.308c0-0.307,0.363-2.048,0.402-2.2
		c0.057-0.248,0.115-0.363,0.23-0.363c0.152,0,0.344,0.19,0.822,0.229c0.555,0.059,1.281,0.098,1.914,0.098h7.576
		c0.611,0,1.033-0.059,1.318-0.098c0.289-0.057,0.441-0.095,0.518-0.095c0.135,0,0.154,0.114,0.154,0.399
		c0,0.403-0.059,1.724-0.059,2.222c-0.02,0.19-0.057,0.306-0.172,0.306c-0.152,0-0.191-0.096-0.211-0.383l-0.02-0.209
		c-0.037-0.498-0.555-1.033-2.256-1.072l-2.412-0.057v7.844c0,1.762,0,3.271,0.096,4.096c0.057,0.534,0.172,0.957,0.746,1.032
		c0.268,0.038,0.689,0.076,0.977,0.076c0.209,0,0.305,0.06,0.305,0.151c0,0.136-0.152,0.191-0.363,0.191
		c-1.262,0-2.467-0.057-3.004-0.057c-0.439,0-1.645,0.057-2.41,0.057c-0.248,0-0.383-0.057-0.383-0.191
		c0-0.096,0.078-0.151,0.307-0.151c0.287,0,0.518-0.038,0.689-0.076c0.381-0.075,0.496-0.498,0.555-1.053
		c0.094-0.804,0.094-2.313,0.094-4.075L100.692,77.785L100.692,77.785z"/>
	<path fill="#FFFFFF" d="M127.292,82.797c0.057,0,0.115-0.038,0.115-0.134v-0.401c0-2.908,0-3.443-0.039-4.056
		c-0.039-0.649-0.191-0.957-0.822-1.091c-0.154-0.038-0.479-0.057-0.746-0.057c-0.211,0-0.326-0.039-0.326-0.174
		c0-0.134,0.135-0.172,0.402-0.172c1.033,0,2.238,0.059,2.756,0.059c0.457,0,1.664-0.059,2.41-0.059
		c0.268,0,0.402,0.038,0.402,0.172c0,0.135-0.115,0.174-0.346,0.174c-0.152,0-0.324,0.019-0.557,0.057
		c-0.518,0.096-0.67,0.421-0.707,1.091c-0.039,0.612-0.039,1.147-0.039,4.056v3.368c0,1.761,0,3.272,0.098,4.095
		c0.059,0.535,0.172,0.957,0.746,1.033c0.268,0.038,0.688,0.076,0.977,0.076c0.211,0,0.307,0.059,0.307,0.152
		c0,0.135-0.154,0.19-0.385,0.19c-1.242,0-2.449-0.057-2.984-0.057c-0.438,0-1.645,0.057-2.391,0.057
		c-0.268,0-0.402-0.057-0.402-0.19c0-0.096,0.076-0.152,0.307-0.152c0.287,0,0.518-0.038,0.688-0.076
		c0.386-0.076,0.479-0.498,0.558-1.053c0.097-0.803,0.097-2.314,0.097-4.075v-1.685c0-0.075-0.06-0.114-0.115-0.114h-7.31
		c-0.059,0-0.114,0.019-0.114,0.114v1.685c0,1.761,0,3.272,0.097,4.095c0.057,0.535,0.172,0.957,0.745,1.033
		c0.269,0.038,0.688,0.076,0.978,0.076c0.209,0,0.306,0.059,0.306,0.152c0,0.135-0.151,0.19-0.384,0.19
		c-1.241,0-2.448-0.057-2.983-0.057c-0.438,0-1.646,0.057-2.409,0.057c-0.25,0-0.384-0.057-0.384-0.19
		c0-0.096,0.076-0.152,0.308-0.152c0.287,0,0.517-0.038,0.688-0.076c0.383-0.076,0.479-0.498,0.558-1.053
		c0.096-0.803,0.096-2.314,0.096-4.075v-3.368c0-2.908,0-3.443-0.039-4.056c-0.039-0.649-0.19-0.957-0.821-1.091
		c-0.153-0.038-0.479-0.057-0.748-0.057c-0.209,0-0.323-0.039-0.323-0.174c0-0.134,0.135-0.172,0.401-0.172
		c1.032,0,2.237,0.059,2.756,0.059c0.457,0,1.664-0.059,2.41-0.059c0.269,0,0.401,0.038,0.401,0.172
		c0,0.135-0.114,0.174-0.346,0.174c-0.152,0-0.324,0.019-0.556,0.057c-0.517,0.096-0.67,0.421-0.709,1.091
		c-0.037,0.612-0.037,1.147-0.037,4.056v0.401c0,0.096,0.058,0.134,0.115,0.134H127.292z"/>
	<path fill="#FFFFFF" d="M136.077,82.262c0-2.908,0-3.443-0.039-4.056c-0.037-0.649-0.229-0.976-0.65-1.072
		c-0.211-0.057-0.459-0.075-0.688-0.075c-0.188,0-0.307-0.039-0.307-0.191c0-0.115,0.152-0.153,0.459-0.153
		c0.729,0,1.934,0.058,2.486,0.058c0.479,0,1.607-0.058,2.334-0.058c0.25,0,0.402,0.038,0.402,0.153
		c0,0.152-0.115,0.191-0.305,0.191c-0.193,0-0.348,0.02-0.574,0.058c-0.518,0.096-0.67,0.421-0.709,1.091
		c-0.037,0.611-0.037,1.146-0.037,4.057v3.367c0,1.855,0,3.367,0.076,4.19c0.057,0.517,0.189,0.86,0.766,0.938
		c0.268,0.038,0.688,0.076,0.975,0.076c0.211,0,0.309,0.06,0.309,0.151c0,0.136-0.152,0.191-0.363,0.191
		c-1.264,0-2.469-0.057-2.982-0.057c-0.441,0-1.646,0.057-2.412,0.057c-0.248,0-0.383-0.057-0.383-0.191
		c0-0.096,0.078-0.151,0.307-0.151c0.287,0,0.518-0.038,0.689-0.076c0.383-0.075,0.494-0.401,0.555-0.957
		c0.096-0.804,0.096-2.313,0.096-4.171v-3.367h-0.004V82.262z"/>
	<path fill="#FFFFFF" d="M143.675,90.948c-0.307-0.134-0.363-0.229-0.363-0.65c0-1.053,0.076-2.2,0.098-2.507
		c0.018-0.287,0.074-0.497,0.229-0.497c0.172,0,0.19,0.171,0.19,0.325c0,0.249,0.075,0.65,0.172,0.976
		c0.422,1.415,1.551,1.933,2.735,1.933c1.724,0,2.563-1.166,2.563-2.182c0-0.938-0.286-1.816-1.875-3.061l-0.881-0.689
		c-2.104-1.645-2.832-2.984-2.832-4.533c0-2.104,1.763-3.617,4.42-3.617c1.244,0,2.048,0.191,2.545,0.326
		c0.173,0.037,0.269,0.097,0.269,0.229c0,0.249-0.075,0.806-0.075,2.296c0,0.42-0.058,0.574-0.211,0.574
		c-0.134,0-0.188-0.116-0.188-0.346c0-0.172-0.097-0.767-0.498-1.264c-0.287-0.363-0.843-0.937-2.086-0.937
		c-1.416,0-2.277,0.823-2.277,1.971c0,0.88,0.438,1.549,2.027,2.755l0.536,0.402c2.313,1.74,3.138,3.061,3.138,4.878
		c0,1.11-0.42,2.431-1.797,3.33c-0.957,0.612-2.029,0.784-3.043,0.784C145.358,91.445,144.497,91.312,143.675,90.948z"/>
	<path fill="#FFFFFF" d="M158.407,77.785l-2.85,0.076c-1.109,0.037-1.568,0.134-1.855,0.555c-0.191,0.287-0.287,0.518-0.326,0.669
		c-0.037,0.153-0.096,0.229-0.209,0.229c-0.135,0-0.174-0.098-0.174-0.308c0-0.307,0.363-2.048,0.402-2.2
		c0.057-0.248,0.115-0.363,0.229-0.363c0.154,0,0.346,0.19,0.824,0.229c0.555,0.059,1.281,0.098,1.912,0.098h7.578
		c0.609,0,1.033-0.059,1.316-0.098c0.289-0.057,0.441-0.095,0.52-0.095c0.135,0,0.154,0.114,0.154,0.399
		c0,0.403-0.061,1.724-0.061,2.222c-0.021,0.19-0.059,0.306-0.172,0.306c-0.152,0-0.191-0.096-0.213-0.383l-0.02-0.209
		c-0.037-0.498-0.555-1.033-2.256-1.072l-2.412-0.057v7.844c0,1.762,0,3.271,0.096,4.096c0.059,0.534,0.172,0.957,0.746,1.032
		c0.27,0.038,0.689,0.076,0.979,0.076c0.209,0,0.305,0.06,0.305,0.151c0,0.136-0.15,0.191-0.361,0.191
		c-1.264,0-2.469-0.057-3.004-0.057c-0.439,0-1.646,0.057-2.41,0.057c-0.248,0-0.383-0.057-0.383-0.191
		c0-0.096,0.074-0.151,0.307-0.151c0.287,0,0.516-0.038,0.688-0.076c0.383-0.075,0.498-0.498,0.557-1.053
		c0.096-0.804,0.096-2.313,0.096-4.075L158.407,77.785L158.407,77.785z"/>
	<path fill="#FFFFFF" d="M167.116,83.945c0-3.271,2.162-7.5,7.902-7.5c4.764,0,7.729,2.773,7.729,7.156s-3.061,7.844-7.92,7.844
		C169.335,91.445,167.116,87.332,167.116,83.945z M180.069,84.309c0-4.285-2.469-6.943-5.605-6.943
		c-2.201,0-4.707,1.225-4.707,5.988c0,3.979,2.199,7.138,5.873,7.138C176.97,90.49,180.069,89.839,180.069,84.309z"/>
	<path fill="#FFFFFF" d="M186.749,82.262c0-2.908,0-3.443-0.037-4.056c-0.039-0.649-0.191-0.957-0.822-1.091
		c-0.154-0.038-0.479-0.057-0.746-0.057c-0.211,0-0.326-0.039-0.326-0.174c0-0.134,0.135-0.172,0.42-0.172
		c1.018,0,2.223,0.059,2.623,0.059c0.65,0,2.104-0.059,2.697-0.059c1.205,0,2.486,0.115,3.521,0.822
		c0.537,0.363,1.301,1.34,1.301,2.622c0,1.416-0.592,2.717-2.523,4.284c1.703,2.146,3.021,3.848,4.15,5.033
		c1.072,1.109,1.854,1.244,2.145,1.301c0.211,0.039,0.383,0.059,0.535,0.059s0.229,0.059,0.229,0.152
		c0,0.152-0.137,0.191-0.363,0.191h-1.816c-1.07,0-1.549-0.097-2.047-0.363c-0.822-0.439-1.549-1.34-2.621-2.812
		c-0.768-1.052-1.646-2.354-1.896-2.64c-0.096-0.116-0.211-0.135-0.344-0.135l-1.666-0.039c-0.096,0-0.152,0.039-0.152,0.152v0.268
		c0,1.781,0,3.293,0.098,4.097c0.057,0.555,0.172,0.978,0.746,1.053c0.287,0.038,0.709,0.076,0.938,0.076
		c0.154,0,0.23,0.06,0.23,0.153c0,0.134-0.137,0.189-0.383,0.189c-1.109,0-2.525-0.057-2.812-0.057
		c-0.363,0-1.568,0.057-2.334,0.057c-0.25,0-0.383-0.057-0.383-0.189c0-0.098,0.076-0.153,0.307-0.153
		c0.285,0,0.516-0.038,0.688-0.076c0.383-0.075,0.479-0.498,0.557-1.053c0.096-0.804,0.096-2.313,0.096-4.075v-3.37L186.749,82.262
		L186.749,82.262z M189.007,83.773c0,0.211,0.039,0.287,0.172,0.345c0.402,0.134,0.979,0.19,1.455,0.19
		c0.766,0,1.014-0.076,1.357-0.324c0.574-0.422,1.131-1.301,1.131-2.87c0-2.718-1.799-3.503-2.928-3.503
		c-0.479,0-0.824,0.021-1.016,0.078c-0.135,0.037-0.174,0.115-0.174,0.268L189.007,83.773L189.007,83.773z"/>
	<path fill="#FFFFFF" d="M202.958,86.223c0-1.033-0.191-1.453-0.439-2.009c-0.135-0.306-2.699-4.516-3.369-5.51
		c-0.479-0.708-0.957-1.187-1.318-1.397c-0.248-0.134-0.572-0.248-0.805-0.248c-0.152,0-0.285-0.037-0.285-0.172
		c0-0.115,0.133-0.172,0.361-0.172c0.346,0,1.779,0.057,2.41,0.057c0.402,0,1.188-0.057,2.049-0.057
		c0.189,0,0.287,0.057,0.287,0.172c0,0.114-0.135,0.135-0.422,0.211c-0.172,0.037-0.268,0.19-0.268,0.344
		c0,0.152,0.096,0.384,0.229,0.649c0.27,0.574,2.947,5.187,3.254,5.722c0.191-0.459,2.604-4.668,2.869-5.263
		c0.191-0.421,0.268-0.745,0.268-0.995c0-0.19-0.074-0.402-0.398-0.479c-0.172-0.039-0.346-0.077-0.346-0.191
		c0-0.134,0.096-0.172,0.324-0.172c0.633,0,1.244,0.057,1.801,0.057c0.42,0,1.686-0.057,2.047-0.057
		c0.211,0,0.344,0.038,0.344,0.153c0,0.134-0.15,0.192-0.361,0.192c-0.191,0-0.557,0.074-0.842,0.229
		c-0.402,0.191-0.611,0.42-1.033,0.938c-0.631,0.766-3.312,5.262-3.654,6.084c-0.287,0.688-0.287,1.281-0.287,1.914v1.567
		c0,0.308,0,1.11,0.057,1.914c0.039,0.555,0.211,0.976,0.785,1.053c0.268,0.038,0.689,0.076,0.957,0.076
		c0.211,0,0.307,0.058,0.307,0.153c0,0.134-0.152,0.189-0.4,0.189c-1.205,0-2.41-0.057-2.93-0.057c-0.479,0-1.684,0.057-2.393,0.057
		c-0.268,0-0.42-0.037-0.42-0.189c0-0.096,0.096-0.153,0.307-0.153c0.27,0,0.496-0.038,0.67-0.076
		c0.383-0.077,0.557-0.498,0.596-1.053c0.057-0.804,0.057-1.606,0.057-1.914v-1.567H202.958z"/>
</g>
</svg>
