<?xml version="1.0" encoding="utf-8"?>
<!-- Generator: Adobe Illustrator 16.0.4, SVG Export Plug-In . SVG Version: 6.00 Build 0)  -->
<!DOCTYPE svg PUBLIC "-//W3C//DTD SVG 1.1//EN" "http://www.w3.org/Graphics/SVG/1.1/DTD/svg11.dtd">
<svg version="1.1" id="Layer_1" xmlns="http://www.w3.org/2000/svg" xmlns:xlink="http://www.w3.org/1999/xlink" x="0px" y="0px"
	 width="538.473px" height="59.997px" viewBox="0 0 538.473 59.997" enable-background="new 0 0 538.473 59.997"
	 xml:space="preserve">
<g>
	<path fill="#FFFFFF" d="M19.237,22.634l-3.888,0.104c-1.514,0.052-2.14,0.182-2.532,0.756c-0.261,0.392-0.392,0.705-0.443,0.914
		c-0.052,0.209-0.131,0.313-0.286,0.313c-0.184,0-0.236-0.13-0.236-0.417c0-0.417,0.497-2.792,0.548-3
		c0.079-0.34,0.156-0.496,0.313-0.496c0.209,0,0.47,0.261,1.122,0.313c0.758,0.079,1.749,0.13,2.61,0.13h10.334
		c0.835,0,1.409-0.078,1.8-0.13c0.392-0.078,0.601-0.13,0.705-0.13c0.183,0,0.209,0.157,0.209,0.548
		c0,0.548-0.079,2.349-0.079,3.027c-0.026,0.261-0.079,0.417-0.234,0.417c-0.209,0-0.261-0.131-0.288-0.522l-0.027-0.287
		c-0.052-0.679-0.756-1.409-3.079-1.461L22.5,22.634v10.699c0,2.401,0,4.463,0.13,5.586c0.077,0.73,0.234,1.305,1.018,1.408
		c0.365,0.053,0.939,0.104,1.331,0.104c0.286,0,0.417,0.077,0.417,0.209c0,0.183-0.208,0.261-0.495,0.261
		c-1.722,0-3.366-0.078-4.097-0.078c-0.601,0-2.244,0.078-3.289,0.078c-0.34,0-0.522-0.078-0.522-0.261
		c0-0.132,0.105-0.209,0.418-0.209c0.391,0,0.704-0.054,0.939-0.104c0.522-0.104,0.679-0.678,0.756-1.436
		c0.13-1.096,0.13-3.157,0.13-5.559L19.237,22.634L19.237,22.634z"/>
	<path fill="#FFFFFF" d="M47.681,29.471c0.078,0,0.157-0.052,0.157-0.183V28.74c0-3.966,0-4.698-0.054-5.533
		c-0.052-0.887-0.261-1.304-1.121-1.487c-0.209-0.053-0.652-0.079-1.018-0.079c-0.288,0-0.443-0.052-0.443-0.234
		c0-0.183,0.183-0.235,0.547-0.235c1.409,0,3.054,0.078,3.759,0.078c0.625,0,2.269-0.078,3.287-0.078
		c0.366,0,0.549,0.052,0.549,0.235c0,0.183-0.157,0.234-0.47,0.234c-0.209,0-0.443,0.026-0.756,0.079
		c-0.705,0.131-0.914,0.574-0.966,1.487C51.1,24.042,51.1,24.773,51.1,28.74v4.592c0,2.4,0,4.463,0.131,5.584
		c0.077,0.731,0.234,1.306,1.018,1.41c0.365,0.051,0.939,0.104,1.331,0.104c0.288,0,0.418,0.078,0.418,0.209
		c0,0.184-0.209,0.261-0.522,0.261c-1.697,0-3.34-0.077-4.071-0.077c-0.6,0-2.245,0.077-3.262,0.077
		c-0.365,0-0.549-0.077-0.549-0.261c0-0.131,0.105-0.209,0.418-0.209c0.391,0,0.704-0.053,0.938-0.104
		c0.522-0.104,0.653-0.679,0.758-1.437c0.13-1.097,0.13-3.157,0.13-5.56v-2.295c0-0.104-0.079-0.156-0.157-0.156h-9.969
		c-0.079,0-0.156,0.025-0.156,0.156v2.295c0,2.401,0,4.463,0.131,5.586c0.077,0.73,0.234,1.305,1.017,1.408
		c0.365,0.053,0.939,0.104,1.331,0.104c0.288,0,0.418,0.077,0.418,0.209c0,0.183-0.209,0.261-0.522,0.261
		c-1.697,0-3.34-0.078-4.071-0.078c-0.601,0-2.244,0.078-3.289,0.078c-0.339,0-0.522-0.078-0.522-0.261
		c0-0.132,0.105-0.209,0.418-0.209c0.392,0,0.705-0.054,0.939-0.104c0.522-0.104,0.652-0.678,0.756-1.436
		c0.13-1.096,0.13-3.157,0.13-5.559v-4.593c0-3.966,0-4.698-0.052-5.533c-0.052-0.887-0.261-1.304-1.122-1.487
		c-0.209-0.053-0.653-0.079-1.018-0.079c-0.288,0-0.445-0.052-0.445-0.234c0-0.183,0.184-0.235,0.549-0.235
		c1.409,0,3.052,0.078,3.757,0.078c0.627,0,2.271-0.078,3.289-0.078c0.365,0,0.549,0.052,0.549,0.235
		c0,0.183-0.157,0.234-0.47,0.234c-0.209,0-0.443,0.026-0.756,0.079c-0.705,0.131-0.914,0.574-0.965,1.487
		c-0.052,0.835-0.052,1.566-0.052,5.533v0.548c0,0.13,0.077,0.183,0.156,0.183h9.969V29.471z"/>
	<path fill="#FFFFFF" d="M59.655,28.741c0-3.966,0-4.698-0.052-5.533c-0.052-0.887-0.261-1.304-1.121-1.487
		c-0.209-0.053-0.653-0.079-1.019-0.079c-0.286,0-0.443-0.052-0.443-0.234c0-0.183,0.184-0.235,0.574-0.235
		c0.706,0,1.462,0.026,2.115,0.026c0.678,0.026,1.278,0.052,1.644,0.052c0.835,0,6.027,0,6.523-0.026
		c0.497-0.052,0.914-0.104,1.123-0.156c0.13-0.026,0.286-0.105,0.417-0.105s0.157,0.105,0.157,0.235c0,0.183-0.13,0.496-0.209,1.696
		c-0.025,0.261-0.079,1.409-0.13,1.723c-0.025,0.13-0.079,0.287-0.261,0.287c-0.183,0-0.234-0.13-0.234-0.365
		c0-0.183-0.027-0.626-0.157-0.94c-0.182-0.469-0.443-0.782-1.747-0.939c-0.443-0.052-3.185-0.104-3.707-0.104
		c-0.13,0-0.182,0.078-0.182,0.261v6.602c0,0.183,0.027,0.287,0.182,0.287c0.574,0,3.576,0,4.175-0.052
		c0.627-0.053,1.02-0.13,1.253-0.392c0.183-0.209,0.287-0.339,0.417-0.339c0.105,0,0.182,0.052,0.182,0.208
		c0,0.156-0.104,0.574-0.207,1.906c-0.027,0.521-0.105,1.564-0.105,1.748c0,0.209,0,0.496-0.234,0.496
		c-0.183,0-0.234-0.105-0.234-0.234c-0.027-0.262-0.027-0.602-0.105-0.94c-0.13-0.521-0.496-0.912-1.461-1.017
		c-0.496-0.053-3.079-0.08-3.705-0.08c-0.13,0-0.157,0.105-0.157,0.262v2.062c0,0.888-0.025,3.287,0,4.045
		c0.052,1.801,0.47,2.191,3.131,2.191c0.68,0,1.775,0,2.454-0.312c0.679-0.312,0.992-0.86,1.174-1.932
		c0.052-0.287,0.104-0.392,0.288-0.392c0.208,0,0.208,0.209,0.208,0.47c0,0.602-0.208,2.375-0.338,2.896
		c-0.184,0.679-0.418,0.679-1.411,0.679c-1.957,0-3.392-0.052-4.514-0.078c-1.123-0.053-1.931-0.077-2.714-0.077
		c-0.288,0-0.862,0-1.488,0.024c-0.601,0-1.278,0.053-1.8,0.053c-0.34,0-0.522-0.077-0.522-0.261c0-0.131,0.105-0.209,0.418-0.209
		c0.392,0,0.705-0.053,0.939-0.104c0.522-0.104,0.652-0.679,0.756-1.437c0.131-1.097,0.131-3.157,0.131-5.56v-4.591H59.655z"/>
	<path fill="#FFFFFF" d="M83.973,28.741c0-3.966,0-4.698-0.052-5.533c-0.052-0.887-0.261-1.304-1.121-1.487
		c-0.209-0.053-0.653-0.079-1.019-0.079c-0.286,0-0.443-0.052-0.443-0.234c0-0.183,0.184-0.235,0.574-0.235
		c0.706,0,1.462,0.026,2.115,0.026c0.678,0.026,1.278,0.052,1.643,0.052c0.835,0,6.028,0,6.523-0.026
		c0.497-0.052,0.914-0.104,1.123-0.156c0.13-0.026,0.286-0.105,0.417-0.105s0.157,0.105,0.157,0.235c0,0.183-0.13,0.496-0.209,1.696
		c-0.025,0.261-0.079,1.409-0.13,1.723c-0.025,0.13-0.079,0.287-0.261,0.287s-0.234-0.13-0.234-0.365
		c0-0.183-0.027-0.626-0.157-0.94c-0.183-0.469-0.443-0.782-1.747-0.939c-0.443-0.052-3.185-0.104-3.707-0.104
		c-0.13,0-0.182,0.078-0.182,0.261v6.602c0,0.183,0.027,0.287,0.182,0.287c0.574,0,3.576,0,4.176-0.052
		c0.627-0.053,1.019-0.13,1.253-0.392c0.183-0.209,0.287-0.339,0.417-0.339c0.105,0,0.183,0.052,0.183,0.208
		c0,0.156-0.104,0.574-0.208,1.906c-0.026,0.521-0.105,1.564-0.105,1.748c0,0.209,0,0.496-0.234,0.496
		c-0.183,0-0.234-0.105-0.234-0.234c-0.027-0.262-0.027-0.602-0.105-0.94c-0.13-0.521-0.495-0.912-1.461-1.017
		c-0.496-0.053-3.079-0.08-3.705-0.08c-0.13,0-0.157,0.105-0.157,0.262v2.062c0,0.888-0.025,3.287,0,4.045
		c0.052,1.801,0.47,2.191,3.131,2.191c0.68,0,1.776,0,2.454-0.312c0.679-0.312,0.992-0.86,1.175-1.932
		c0.052-0.287,0.104-0.392,0.287-0.392c0.208,0,0.208,0.209,0.208,0.47c0,0.602-0.208,2.375-0.338,2.896
		c-0.184,0.679-0.418,0.679-1.411,0.679c-1.957,0-3.392-0.052-4.514-0.078c-1.123-0.053-1.931-0.077-2.714-0.077
		c-0.288,0-0.862,0-1.488,0.024c-0.601,0-1.278,0.053-1.8,0.053c-0.34,0-0.522-0.077-0.522-0.261c0-0.131,0.105-0.209,0.418-0.209
		c0.392,0,0.705-0.053,0.939-0.104c0.522-0.104,0.652-0.679,0.756-1.437c0.13-1.097,0.13-3.157,0.13-5.56v-4.591H83.973z"/>
	<path fill="#FFFFFF" d="M100.464,28.741c0-3.966,0-4.698-0.052-5.533c-0.052-0.887-0.261-1.304-1.122-1.487
		c-0.209-0.053-0.652-0.079-1.019-0.079c-0.286,0-0.443-0.052-0.443-0.234c0-0.183,0.184-0.235,0.574-0.235
		c1.384,0,3.027,0.078,3.759,0.078c0.809,0,2.453-0.078,4.018-0.078c3.263,0,7.621,0,10.464,2.974
		c1.306,1.357,2.532,3.523,2.532,6.629c0,3.287-1.382,5.793-2.845,7.28c-1.2,1.228-3.915,3.079-8.742,3.079
		c-0.939,0-2.008-0.078-3.001-0.156c-0.99-0.078-1.904-0.156-2.557-0.156c-0.288,0-0.862,0-1.488,0.025
		c-0.601,0-1.279,0.053-1.801,0.053c-0.34,0-0.522-0.078-0.522-0.261c0-0.132,0.105-0.209,0.418-0.209
		c0.391,0,0.704-0.054,0.939-0.104c0.522-0.104,0.652-0.678,0.756-1.436c0.131-1.096,0.131-3.157,0.131-5.559L100.464,28.741
		L100.464,28.741z M103.727,31.611c0,2.767,0.025,4.774,0.052,5.271c0.025,0.652,0.079,1.695,0.286,1.984
		c0.34,0.494,1.357,1.043,3.419,1.043c2.663,0,4.437-0.521,6.002-1.879c1.67-1.436,2.192-3.811,2.192-6.498
		c0-3.315-1.384-5.454-2.505-6.524c-2.401-2.296-5.376-2.609-7.412-2.609c-0.522,0-1.487,0.078-1.697,0.182
		c-0.234,0.105-0.313,0.235-0.313,0.522c-0.025,0.887-0.025,3.157-0.025,5.219L103.727,31.611L103.727,31.611z"/>
	<path fill="#FFFFFF" d="M124.627,28.741c0-3.966,0-4.698-0.052-5.533c-0.052-0.887-0.313-1.33-0.887-1.461
		c-0.288-0.079-0.626-0.104-0.939-0.104c-0.261,0-0.418-0.052-0.418-0.261c0-0.157,0.209-0.208,0.625-0.208
		c0.993,0,2.636,0.078,3.394,0.078c0.651,0,2.19-0.078,3.183-0.078c0.339,0,0.547,0.052,0.547,0.208
		c0,0.209-0.156,0.261-0.417,0.261c-0.261,0-0.47,0.026-0.783,0.079c-0.705,0.131-0.914,0.574-0.965,1.487
		c-0.052,0.835-0.052,1.566-0.052,5.533v4.592c0,2.531,0,4.592,0.104,5.715c0.079,0.705,0.261,1.175,1.044,1.279
		c0.364,0.051,0.938,0.104,1.33,0.104c0.288,0,0.418,0.078,0.418,0.209c0,0.184-0.209,0.261-0.495,0.261
		c-1.724,0-3.367-0.077-4.071-0.077c-0.601,0-2.244,0.077-3.289,0.077c-0.339,0-0.522-0.077-0.522-0.261
		c0-0.131,0.105-0.209,0.418-0.209c0.391,0,0.705-0.053,0.938-0.104c0.522-0.104,0.68-0.549,0.757-1.306
		c0.13-1.097,0.13-3.157,0.13-5.688v-4.593H124.627z"/>
	<path fill="#FFFFFF" d="M139.892,22.634l-3.887,0.104c-1.515,0.052-2.141,0.182-2.532,0.756c-0.261,0.392-0.392,0.705-0.443,0.914
		c-0.052,0.209-0.13,0.313-0.286,0.313c-0.183,0-0.236-0.13-0.236-0.417c0-0.417,0.497-2.792,0.549-3
		c0.079-0.34,0.156-0.496,0.313-0.496c0.209,0,0.47,0.261,1.121,0.313c0.758,0.079,1.749,0.13,2.611,0.13h10.333
		c0.835,0,1.409-0.078,1.8-0.13c0.392-0.078,0.601-0.13,0.705-0.13c0.183,0,0.209,0.157,0.209,0.548
		c0,0.548-0.079,2.349-0.079,3.027c-0.027,0.261-0.079,0.417-0.234,0.417c-0.209,0-0.261-0.131-0.288-0.522l-0.027-0.287
		c-0.052-0.679-0.756-1.409-3.079-1.461l-3.287-0.079v10.699c0,2.401,0,4.463,0.131,5.586c0.077,0.73,0.234,1.305,1.018,1.408
		c0.365,0.053,0.938,0.104,1.33,0.104c0.288,0,0.417,0.077,0.417,0.209c0,0.183-0.208,0.261-0.496,0.261
		c-1.722,0-3.365-0.078-4.097-0.078c-0.601,0-2.244,0.078-3.288,0.078c-0.34,0-0.522-0.078-0.522-0.261
		c0-0.132,0.105-0.209,0.418-0.209c0.392,0,0.705-0.054,0.939-0.104c0.522-0.104,0.679-0.678,0.756-1.436
		c0.13-1.096,0.13-3.157,0.13-5.559L139.892,22.634L139.892,22.634z"/>
	<path fill="#FFFFFF" d="M168.334,29.471c0.079,0,0.157-0.052,0.157-0.183V28.74c0-3.966,0-4.698-0.053-5.533
		c-0.052-0.887-0.261-1.304-1.122-1.487c-0.209-0.053-0.652-0.079-1.018-0.079c-0.288,0-0.443-0.052-0.443-0.234
		c0-0.183,0.183-0.235,0.547-0.235c1.409,0,3.054,0.078,3.758,0.078c0.626,0,2.27-0.078,3.287-0.078
		c0.366,0,0.549,0.052,0.549,0.235c0,0.183-0.157,0.234-0.47,0.234c-0.209,0-0.443,0.026-0.756,0.079
		c-0.705,0.131-0.914,0.574-0.965,1.487c-0.052,0.835-0.052,1.566-0.052,5.533v4.592c0,2.4,0,4.463,0.13,5.584
		c0.077,0.731,0.234,1.306,1.018,1.41c0.365,0.051,0.939,0.104,1.331,0.104c0.288,0,0.418,0.078,0.418,0.209
		c0,0.184-0.209,0.261-0.522,0.261c-1.697,0-3.34-0.077-4.071-0.077c-0.599,0-2.244,0.077-3.262,0.077
		c-0.365,0-0.549-0.077-0.549-0.261c0-0.131,0.105-0.209,0.418-0.209c0.391,0,0.705-0.053,0.939-0.104
		c0.522-0.104,0.652-0.679,0.758-1.437c0.13-1.097,0.13-3.157,0.13-5.56v-2.295c0-0.104-0.078-0.156-0.157-0.156h-9.969
		c-0.079,0-0.156,0.025-0.156,0.156v2.295c0,2.401,0,4.463,0.131,5.586c0.077,0.73,0.234,1.305,1.017,1.408
		c0.365,0.053,0.939,0.104,1.331,0.104c0.288,0,0.418,0.077,0.418,0.209c0,0.183-0.209,0.261-0.522,0.261
		c-1.697,0-3.34-0.078-4.071-0.078c-0.601,0-2.244,0.078-3.288,0.078c-0.34,0-0.522-0.078-0.522-0.261
		c0-0.132,0.105-0.209,0.418-0.209c0.392,0,0.705-0.054,0.939-0.104c0.522-0.104,0.652-0.678,0.756-1.436
		c0.13-1.096,0.13-3.157,0.13-5.559v-4.593c0-3.966,0-4.698-0.052-5.533c-0.052-0.887-0.261-1.304-1.121-1.487
		c-0.209-0.053-0.653-0.079-1.018-0.079c-0.288,0-0.445-0.052-0.445-0.234c0-0.183,0.184-0.235,0.549-0.235
		c1.409,0,3.052,0.078,3.757,0.078c0.627,0,2.271-0.078,3.288-0.078c0.365,0,0.549,0.052,0.549,0.235
		c0,0.183-0.158,0.234-0.471,0.234c-0.209,0-0.443,0.026-0.756,0.079c-0.705,0.131-0.914,0.574-0.966,1.487
		c-0.052,0.835-0.052,1.566-0.052,5.533v0.548c0,0.13,0.077,0.183,0.156,0.183h9.97V29.471z"/>
	<path fill="#FFFFFF" d="M185.293,31.038c0-4.462,2.949-10.229,10.777-10.229c6.498,0,10.542,3.784,10.542,9.759
		c0,5.977-4.175,10.7-10.804,10.7C188.321,41.267,185.293,35.657,185.293,31.038z M202.96,31.534c0-5.847-3.367-9.474-7.646-9.474
		c-3.002,0-6.419,1.67-6.419,8.168c0,5.429,3,9.733,8.011,9.733C198.731,39.961,202.96,39.075,202.96,31.534z"/>
	<path fill="#FFFFFF" d="M209.691,20.103c-0.261-0.261-0.287-0.339-0.287-0.47c0-0.079,0.156-0.209,0.287-0.209
		c0.522,0,1.67,0.34,2.167,0.496c0.653,0.183,0.757,0.365,0.757,0.756c0,1.593-1.697,4.385-2.87,5.584
		c-0.157,0.157-0.261,0.209-0.418,0.209c-0.079,0-0.156-0.052-0.156-0.157c0-0.053,0.025-0.13,0.131-0.34
		c0.468-0.913,1.018-2.452,1.018-4.07C210.319,21.042,209.927,20.338,209.691,20.103z"/>
	<path fill="#FFFFFF" d="M218.013,28.741c0-3.966,0-4.698-0.052-5.533c-0.052-0.887-0.261-1.304-1.121-1.487
		c-0.209-0.053-0.653-0.079-1.019-0.079c-0.286,0-0.443-0.052-0.443-0.234c0-0.183,0.184-0.235,0.574-0.235
		c1.384,0,3.027,0.078,3.759,0.078c0.808,0,2.453-0.078,4.018-0.078c3.263,0,7.621,0,10.464,2.974
		c1.305,1.357,2.532,3.523,2.532,6.629c0,3.287-1.382,5.793-2.845,7.28c-1.2,1.228-3.914,3.079-8.742,3.079
		c-0.939,0-2.008-0.078-3-0.156c-0.991-0.078-1.904-0.156-2.557-0.156c-0.288,0-0.862,0-1.488,0.025c-0.601,0-1.278,0.053-1.8,0.053
		c-0.34,0-0.522-0.078-0.522-0.261c0-0.132,0.105-0.209,0.418-0.209c0.392,0,0.705-0.054,0.939-0.104
		c0.522-0.104,0.652-0.678,0.756-1.436c0.13-1.096,0.13-3.157,0.13-5.559L218.013,28.741L218.013,28.741z M221.276,31.611
		c0,2.767,0.025,4.774,0.052,5.271c0.025,0.652,0.079,1.695,0.287,1.984c0.339,0.494,1.357,1.043,3.418,1.043
		c2.663,0,4.437-0.521,6.003-1.879c1.67-1.436,2.192-3.811,2.192-6.498c0-3.315-1.384-5.454-2.505-6.524
		c-2.401-2.296-5.376-2.609-7.412-2.609c-0.522,0-1.488,0.078-1.697,0.182c-0.234,0.105-0.313,0.235-0.313,0.522
		c-0.025,0.887-0.025,3.157-0.025,5.219V31.611z"/>
	<path fill="#FFFFFF" d="M239.594,31.038c0-4.462,2.949-10.229,10.777-10.229c6.498,0,10.543,3.784,10.543,9.759
		c0,5.977-4.176,10.7-10.804,10.7C242.622,41.267,239.594,35.657,239.594,31.038z M257.261,31.534c0-5.847-3.367-9.474-7.646-9.474
		c-3.002,0-6.419,1.67-6.419,8.168c0,5.429,3.001,9.733,8.011,9.733C253.032,39.961,257.261,39.075,257.261,31.534z"/>
	<path fill="#FFFFFF" d="M267.827,37.353c0.052,2.035,0.392,2.714,0.912,2.896c0.443,0.156,0.94,0.184,1.357,0.184
		c0.287,0,0.443,0.053,0.443,0.209c0,0.208-0.234,0.261-0.6,0.261c-1.697,0-2.742-0.077-3.237-0.077
		c-0.234,0-1.461,0.077-2.818,0.077c-0.339,0-0.574-0.026-0.574-0.261c0-0.156,0.155-0.209,0.417-0.209
		c0.34,0,0.81-0.025,1.175-0.131c0.679-0.209,0.784-0.967,0.81-3.235l0.234-15.37c0-0.522,0.079-0.888,0.34-0.888
		c0.286,0,0.52,0.34,0.965,0.809c0.313,0.339,4.279,4.514,8.088,8.299c1.774,1.774,5.297,5.532,5.74,5.95h0.131l-0.26-11.718
		c-0.027-1.591-0.263-2.087-0.889-2.348c-0.393-0.157-1.018-0.157-1.383-0.157c-0.312,0-0.418-0.078-0.418-0.234
		c0-0.209,0.287-0.235,0.68-0.235c1.355,0,2.607,0.078,3.156,0.078c0.287,0,1.279-0.078,2.559-0.078c0.338,0,0.6,0.026,0.6,0.235
		c0,0.157-0.155,0.234-0.469,0.234c-0.262,0-0.471,0-0.783,0.079c-0.73,0.208-0.939,0.756-0.965,2.218l-0.289,16.467
		c0,0.573-0.104,0.809-0.338,0.809c-0.287,0-0.601-0.286-0.889-0.573c-1.645-1.565-4.982-4.983-7.697-7.673
		c-2.846-2.818-5.74-6.002-6.211-6.497h-0.079L267.827,37.353z"/>
	<path fill="#FFFFFF" d="M292.538,37.353c0.053,2.035,0.392,2.714,0.912,2.896c0.445,0.156,0.94,0.184,1.357,0.184
		c0.287,0,0.443,0.053,0.443,0.209c0,0.208-0.234,0.261-0.601,0.261c-1.696,0-2.741-0.077-3.235-0.077
		c-0.234,0-1.461,0.077-2.818,0.077c-0.34,0-0.574-0.026-0.574-0.261c0-0.156,0.156-0.209,0.417-0.209
		c0.34,0,0.81-0.025,1.175-0.131c0.68-0.209,0.783-0.967,0.811-3.235l0.234-15.37c0-0.522,0.078-0.888,0.34-0.888
		c0.287,0,0.521,0.34,0.965,0.809c0.313,0.339,4.279,4.514,8.09,8.299c1.773,1.774,5.297,5.532,5.74,5.95h0.131l-0.262-11.718
		c-0.024-1.591-0.262-2.087-0.887-2.348c-0.393-0.157-1.018-0.157-1.383-0.157c-0.314,0-0.418-0.078-0.418-0.234
		c0-0.209,0.287-0.235,0.679-0.235c1.354,0,2.608,0.078,3.155,0.078c0.289,0,1.279-0.078,2.561-0.078c0.338,0,0.6,0.026,0.6,0.235
		c0,0.157-0.154,0.234-0.469,0.234c-0.262,0-0.471,0-0.783,0.079c-0.73,0.208-0.939,0.756-0.965,2.218l-0.289,16.467
		c0,0.573-0.104,0.809-0.338,0.809c-0.287,0-0.6-0.286-0.889-0.573c-1.645-1.565-4.984-4.983-7.697-7.673
		c-2.846-2.818-5.74-6.002-6.211-6.497h-0.078L292.538,37.353z"/>
	<path fill="#FFFFFF" d="M315.786,28.741c0-3.966,0-4.698-0.053-5.533c-0.053-0.887-0.262-1.304-1.121-1.487
		c-0.209-0.053-0.652-0.079-1.02-0.079c-0.285,0-0.441-0.052-0.441-0.234c0-0.183,0.184-0.235,0.572-0.235
		c0.705,0,1.463,0.026,2.115,0.026c0.678,0.026,1.277,0.052,1.645,0.052c0.834,0,6.027,0,6.521-0.026
		c0.498-0.052,0.914-0.104,1.123-0.156c0.131-0.026,0.287-0.105,0.418-0.105c0.129,0,0.156,0.105,0.156,0.235
		c0,0.183-0.131,0.496-0.209,1.696c-0.025,0.261-0.078,1.409-0.131,1.723c-0.025,0.13-0.078,0.287-0.262,0.287
		c-0.182,0-0.232-0.13-0.232-0.365c0-0.183-0.027-0.626-0.158-0.94c-0.182-0.469-0.443-0.782-1.748-0.939
		c-0.441-0.052-3.184-0.104-3.705-0.104c-0.131,0-0.184,0.078-0.184,0.261v6.602c0,0.183,0.025,0.287,0.184,0.287
		c0.572,0,3.576,0,4.174-0.052c0.629-0.053,1.021-0.13,1.254-0.392c0.184-0.209,0.287-0.339,0.416-0.339
		c0.105,0,0.184,0.052,0.184,0.208c0,0.156-0.104,0.574-0.207,1.906c-0.027,0.521-0.105,1.564-0.105,1.748
		c0,0.209,0,0.496-0.234,0.496c-0.182,0-0.232-0.105-0.232-0.234c-0.027-0.262-0.027-0.602-0.105-0.94
		c-0.131-0.521-0.494-0.912-1.461-1.017c-0.494-0.053-3.078-0.08-3.705-0.08c-0.131,0-0.156,0.105-0.156,0.262v2.062
		c0,0.888-0.025,3.287,0,4.045c0.051,1.801,0.471,2.191,3.131,2.191c0.68,0,1.775,0,2.453-0.312c0.68-0.312,0.992-0.86,1.174-1.932
		c0.053-0.287,0.105-0.392,0.289-0.392c0.207,0,0.207,0.209,0.207,0.47c0,0.602-0.207,2.375-0.338,2.896
		c-0.186,0.679-0.418,0.679-1.41,0.679c-1.957,0-3.393-0.052-4.514-0.078c-1.123-0.053-1.932-0.077-2.717-0.077
		c-0.285,0-0.859,0-1.486,0.024c-0.602,0-1.277,0.053-1.801,0.053c-0.34,0-0.521-0.077-0.521-0.261c0-0.131,0.105-0.209,0.418-0.209
		c0.393,0,0.705-0.053,0.939-0.104c0.521-0.104,0.652-0.679,0.756-1.437c0.131-1.097,0.131-3.157,0.131-5.56v-4.591H315.786z"/>
	<path fill="#FFFFFF" d="M335.54,33.333c0,3.342,0,5.143,0.547,5.611c0.443,0.391,1.123,0.574,3.158,0.574
		c1.383,0,2.4-0.025,3.053-0.73c0.314-0.34,0.627-1.07,0.68-1.565c0.023-0.235,0.078-0.392,0.285-0.392
		c0.184,0,0.209,0.131,0.209,0.443c0,0.287-0.182,2.244-0.391,3.001c-0.156,0.573-0.287,0.704-1.645,0.704
		c-1.879,0-3.236-0.053-4.41-0.078c-1.174-0.053-2.113-0.078-3.184-0.078c-0.289,0-0.861,0-1.488,0.025
		c-0.602,0-1.277,0.053-1.801,0.053c-0.34,0-0.521-0.078-0.521-0.261c0-0.132,0.105-0.209,0.418-0.209
		c0.393,0,0.705-0.054,0.939-0.104c0.521-0.104,0.652-0.678,0.756-1.436c0.131-1.096,0.131-3.157,0.131-5.559V28.74
		c0-3.966,0-4.698-0.053-5.533c-0.051-0.887-0.262-1.304-1.119-1.487c-0.211-0.053-0.523-0.079-0.863-0.079
		c-0.285,0-0.443-0.052-0.443-0.234c0-0.183,0.184-0.235,0.574-0.235c1.227,0,2.871,0.078,3.574,0.078
		c0.627,0,2.533-0.078,3.549-0.078c0.365,0,0.551,0.052,0.551,0.235c0,0.183-0.158,0.234-0.471,0.234
		c-0.289,0-0.705,0.026-1.02,0.079c-0.703,0.131-0.914,0.574-0.965,1.487c-0.053,0.835-0.053,1.566-0.053,5.533v4.592H335.54z"/>
	<path fill="#FFFFFF" d="M351.327,33.333c0,3.342,0,5.143,0.547,5.611c0.443,0.391,1.123,0.574,3.158,0.574
		c1.383,0,2.4-0.025,3.053-0.73c0.312-0.34,0.627-1.07,0.68-1.565c0.025-0.235,0.078-0.392,0.285-0.392
		c0.186,0,0.209,0.131,0.209,0.443c0,0.287-0.182,2.244-0.391,3.001c-0.156,0.573-0.287,0.704-1.645,0.704
		c-1.879,0-3.236-0.053-4.41-0.078c-1.174-0.053-2.113-0.078-3.184-0.078c-0.289,0-0.861,0-1.488,0.025
		c-0.6,0-1.277,0.053-1.801,0.053c-0.34,0-0.521-0.078-0.521-0.261c0-0.132,0.105-0.209,0.42-0.209c0.391,0,0.703-0.054,0.938-0.104
		c0.521-0.104,0.652-0.678,0.756-1.436c0.131-1.096,0.131-3.157,0.131-5.559V28.74c0-3.966,0-4.698-0.053-5.533
		c-0.051-0.887-0.26-1.304-1.121-1.487c-0.209-0.053-0.521-0.079-0.859-0.079c-0.287,0-0.445-0.052-0.445-0.234
		c0-0.183,0.184-0.235,0.574-0.235c1.227,0,2.871,0.078,3.574,0.078c0.629,0,2.531-0.078,3.551-0.078
		c0.365,0,0.549,0.052,0.549,0.235c0,0.183-0.158,0.234-0.471,0.234c-0.287,0-0.705,0.026-1.02,0.079
		c-0.703,0.131-0.912,0.574-0.965,1.487c-0.051,0.835-0.051,1.566-0.051,5.533V33.333L351.327,33.333z"/>
	<path fill="#FFFFFF" d="M371.678,28.741c0-3.966,0-4.698-0.053-5.533c-0.051-0.887-0.311-1.33-0.887-1.461
		c-0.287-0.079-0.625-0.104-0.939-0.104c-0.26,0-0.418-0.052-0.418-0.261c0-0.157,0.209-0.208,0.627-0.208
		c0.992,0,2.635,0.078,3.395,0.078c0.65,0,2.189-0.078,3.184-0.078c0.338,0,0.547,0.052,0.547,0.208
		c0,0.209-0.154,0.261-0.418,0.261c-0.26,0-0.469,0.026-0.783,0.079c-0.703,0.131-0.912,0.574-0.965,1.487
		c-0.053,0.835-0.053,1.566-0.053,5.533v4.592c0,2.531,0,4.592,0.105,5.715c0.076,0.705,0.26,1.175,1.043,1.279
		c0.365,0.051,0.938,0.104,1.33,0.104c0.287,0,0.42,0.078,0.42,0.209c0,0.184-0.211,0.261-0.496,0.261
		c-1.725,0-3.367-0.077-4.072-0.077c-0.602,0-2.244,0.077-3.287,0.077c-0.34,0-0.523-0.077-0.523-0.261
		c0-0.131,0.105-0.209,0.42-0.209c0.393,0,0.703-0.053,0.938-0.104c0.523-0.104,0.68-0.549,0.756-1.306
		c0.131-1.097,0.131-3.157,0.131-5.688V28.741L371.678,28.741z"/>
	<path fill="#FFFFFF" d="M384.934,37.353c0.053,2.035,0.393,2.714,0.912,2.896c0.443,0.156,0.939,0.184,1.357,0.184
		c0.287,0,0.441,0.053,0.441,0.209c0,0.208-0.232,0.261-0.6,0.261c-1.695,0-2.74-0.077-3.236-0.077
		c-0.232,0-1.461,0.077-2.816,0.077c-0.34,0-0.574-0.026-0.574-0.261c0-0.156,0.156-0.209,0.416-0.209
		c0.34,0,0.811-0.025,1.176-0.131c0.68-0.209,0.783-0.967,0.811-3.235l0.232-15.37c0-0.522,0.08-0.888,0.342-0.888
		c0.285,0,0.52,0.34,0.965,0.809c0.312,0.339,4.279,4.514,8.09,8.299c1.773,1.774,5.297,5.532,5.74,5.95h0.131l-0.262-11.718
		c-0.025-1.591-0.262-2.087-0.887-2.348c-0.393-0.157-1.018-0.157-1.383-0.157c-0.312,0-0.418-0.078-0.418-0.234
		c0-0.209,0.287-0.235,0.678-0.235c1.357,0,2.609,0.078,3.158,0.078c0.287,0,1.279-0.078,2.559-0.078c0.338,0,0.6,0.026,0.6,0.235
		c0,0.157-0.156,0.234-0.471,0.234c-0.26,0-0.469,0-0.781,0.079c-0.732,0.208-0.941,0.756-0.965,2.218l-0.289,16.467
		c0,0.573-0.104,0.809-0.338,0.809c-0.287,0-0.602-0.286-0.889-0.573c-1.645-1.565-4.982-4.983-7.699-7.673
		c-2.844-2.818-5.738-6.002-6.209-6.497h-0.08L384.934,37.353z"/>
	<path fill="#FFFFFF" d="M406.747,40.588c-0.418-0.184-0.496-0.312-0.496-0.887c0-1.437,0.105-3.002,0.131-3.42
		c0.025-0.392,0.105-0.678,0.314-0.678c0.232,0,0.26,0.234,0.26,0.443c0,0.338,0.104,0.887,0.234,1.33
		c0.574,1.932,2.113,2.636,3.732,2.636c2.348,0,3.494-1.591,3.494-2.976c0-1.277-0.391-2.479-2.557-4.174l-1.199-0.939
		c-2.871-2.245-3.863-4.071-3.863-6.185c0-2.871,2.402-4.933,6.029-4.933c1.695,0,2.793,0.261,3.471,0.443
		c0.234,0.053,0.365,0.131,0.365,0.314c0,0.339-0.105,1.095-0.105,3.131c0,0.574-0.076,0.783-0.287,0.783
		c-0.182,0-0.26-0.157-0.26-0.47c0-0.234-0.131-1.043-0.68-1.722c-0.391-0.496-1.148-1.278-2.844-1.278
		c-1.934,0-3.105,1.122-3.105,2.688c0,1.201,0.602,2.113,2.768,3.758l0.729,0.548c3.158,2.375,4.281,4.175,4.281,6.656
		c0,1.514-0.574,3.313-2.453,4.539c-1.305,0.836-2.768,1.07-4.15,1.07C409.043,41.267,407.868,41.084,406.747,40.588z"/>
	<path fill="#FFFFFF" d="M426.838,22.634l-3.887,0.104c-1.516,0.052-2.141,0.182-2.531,0.756c-0.262,0.392-0.393,0.705-0.443,0.914
		c-0.053,0.209-0.131,0.313-0.287,0.313c-0.184,0-0.234-0.13-0.234-0.417c0-0.417,0.496-2.792,0.549-3
		c0.078-0.34,0.154-0.496,0.312-0.496c0.209,0,0.471,0.261,1.121,0.313c0.758,0.079,1.748,0.13,2.609,0.13h10.334
		c0.836,0,1.408-0.078,1.801-0.13c0.393-0.078,0.602-0.13,0.705-0.13c0.182,0,0.209,0.157,0.209,0.548
		c0,0.548-0.08,2.349-0.08,3.027c-0.025,0.261-0.076,0.417-0.232,0.417c-0.209,0-0.262-0.131-0.287-0.522l-0.027-0.287
		c-0.053-0.679-0.756-1.409-3.08-1.461l-3.285-0.079v10.699c0,2.401,0,4.463,0.131,5.586c0.076,0.73,0.232,1.305,1.018,1.408
		c0.365,0.053,0.939,0.104,1.33,0.104c0.287,0,0.416,0.077,0.416,0.209c0,0.183-0.207,0.261-0.494,0.261
		c-1.723,0-3.365-0.078-4.098-0.078c-0.602,0-2.244,0.078-3.287,0.078c-0.34,0-0.523-0.078-0.523-0.261
		c0-0.132,0.105-0.209,0.418-0.209c0.393,0,0.705-0.054,0.939-0.104c0.521-0.104,0.68-0.678,0.758-1.436
		c0.129-1.096,0.129-3.157,0.129-5.559V22.634H426.838z"/>
	<path fill="#FFFFFF" d="M441.897,28.741c0-3.966,0-4.698-0.053-5.533c-0.053-0.887-0.312-1.33-0.889-1.461
		c-0.287-0.079-0.625-0.104-0.938-0.104c-0.262,0-0.418-0.052-0.418-0.261c0-0.157,0.209-0.208,0.625-0.208
		c0.992,0,2.637,0.078,3.395,0.078c0.65,0,2.189-0.078,3.184-0.078c0.34,0,0.547,0.052,0.547,0.208c0,0.209-0.154,0.261-0.416,0.261
		s-0.471,0.026-0.783,0.079c-0.705,0.131-0.914,0.574-0.967,1.487c-0.053,0.835-0.053,1.566-0.053,5.533v4.592
		c0,2.531,0,4.592,0.105,5.715c0.078,0.705,0.26,1.175,1.043,1.279c0.365,0.051,0.939,0.104,1.332,0.104
		c0.287,0,0.418,0.078,0.418,0.209c0,0.184-0.209,0.261-0.496,0.261c-1.725,0-3.367-0.077-4.072-0.077
		c-0.6,0-2.244,0.077-3.287,0.077c-0.34,0-0.521-0.077-0.521-0.261c0-0.131,0.104-0.209,0.418-0.209
		c0.393,0,0.705-0.053,0.938-0.104c0.523-0.104,0.682-0.549,0.758-1.306c0.131-1.097,0.131-3.157,0.131-5.688V28.741L441.897,28.741
		z"/>
	<path fill="#FFFFFF" d="M457.159,22.634l-3.887,0.104c-1.516,0.052-2.143,0.182-2.533,0.756c-0.262,0.392-0.393,0.705-0.443,0.914
		s-0.129,0.313-0.285,0.313c-0.184,0-0.234-0.13-0.234-0.417c0-0.417,0.496-2.792,0.547-3c0.08-0.34,0.156-0.496,0.312-0.496
		c0.209,0,0.471,0.261,1.121,0.313c0.758,0.079,1.75,0.13,2.611,0.13h10.334c0.834,0,1.408-0.078,1.801-0.13
		c0.391-0.078,0.6-0.13,0.703-0.13c0.184,0,0.211,0.157,0.211,0.548c0,0.548-0.08,2.349-0.08,3.027
		c-0.025,0.261-0.078,0.417-0.234,0.417c-0.209,0-0.26-0.131-0.287-0.522l-0.025-0.287c-0.053-0.679-0.758-1.409-3.08-1.461
		l-3.287-0.079v10.699c0,2.401,0,4.463,0.131,5.586c0.078,0.73,0.234,1.305,1.02,1.408c0.363,0.053,0.938,0.104,1.33,0.104
		c0.285,0,0.416,0.077,0.416,0.209c0,0.183-0.207,0.261-0.494,0.261c-1.725,0-3.365-0.078-4.098-0.078
		c-0.602,0-2.244,0.078-3.289,0.078c-0.34,0-0.521-0.078-0.521-0.261c0-0.132,0.105-0.209,0.418-0.209
		c0.393,0,0.705-0.054,0.939-0.104c0.521-0.104,0.68-0.678,0.756-1.436c0.131-1.096,0.131-3.157,0.131-5.559V22.634H457.159z"/>
	<path fill="#FFFFFF" d="M471.094,28.741c0-3.966,0-4.698-0.053-5.533c-0.053-0.887-0.26-1.304-1.123-1.487
		c-0.209-0.053-0.652-0.079-1.018-0.079c-0.287,0-0.443-0.052-0.443-0.234c0-0.183,0.184-0.235,0.574-0.235
		c1.383,0,3.027,0.078,3.811,0.078c0.627,0,2.271-0.078,3.209-0.078c0.393,0,0.574,0.052,0.574,0.235
		c0,0.183-0.156,0.234-0.418,0.234c-0.285,0-0.443,0.026-0.756,0.079c-0.705,0.131-0.914,0.574-0.965,1.487
		c-0.055,0.835-0.055,1.566-0.055,5.533v3.653c0,3.785,0.758,5.376,2.035,6.421c1.176,0.965,2.375,1.068,3.264,1.068
		c1.146,0,2.559-0.364,3.602-1.408c1.436-1.436,1.514-3.784,1.514-6.473v-3.261c0-3.966,0-4.698-0.051-5.533
		c-0.055-0.887-0.262-1.304-1.123-1.487c-0.209-0.053-0.652-0.079-0.939-0.079s-0.443-0.052-0.443-0.234
		c0-0.183,0.184-0.235,0.549-0.235c1.33,0,2.975,0.078,3,0.078c0.312,0,1.957-0.078,2.977-0.078c0.363,0,0.547,0.052,0.547,0.235
		c0,0.183-0.156,0.234-0.469,0.234c-0.287,0-0.443,0.026-0.758,0.079c-0.703,0.131-0.914,0.574-0.965,1.487
		c-0.055,0.835-0.055,1.566-0.055,5.533v2.792c0,2.896-0.285,5.975-2.479,7.854c-1.854,1.592-3.73,1.879-5.43,1.879
		c-1.381,0-3.887-0.078-5.791-1.801c-1.332-1.2-2.322-3.131-2.322-6.916V28.741L471.094,28.741z"/>
	<path fill="#FFFFFF" d="M497.917,22.634l-3.887,0.104c-1.516,0.052-2.143,0.182-2.533,0.756c-0.262,0.392-0.391,0.705-0.443,0.914
		c-0.051,0.209-0.131,0.313-0.285,0.313c-0.184,0-0.236-0.13-0.236-0.417c0-0.417,0.498-2.792,0.549-3
		c0.08-0.34,0.156-0.496,0.312-0.496c0.209,0,0.471,0.261,1.121,0.313c0.76,0.079,1.75,0.13,2.611,0.13h10.332
		c0.836,0,1.41-0.078,1.803-0.13c0.391-0.078,0.6-0.13,0.703-0.13c0.184,0,0.209,0.157,0.209,0.548c0,0.548-0.078,2.349-0.078,3.027
		c-0.025,0.261-0.078,0.417-0.234,0.417c-0.209,0-0.262-0.131-0.287-0.522l-0.027-0.287c-0.051-0.679-0.756-1.409-3.078-1.461
		l-3.287-0.079v10.699c0,2.401,0,4.463,0.131,5.586c0.076,0.73,0.234,1.305,1.018,1.408c0.365,0.053,0.939,0.104,1.332,0.104
		c0.287,0,0.416,0.077,0.416,0.209c0,0.183-0.207,0.261-0.496,0.261c-1.721,0-3.365-0.078-4.096-0.078
		c-0.602,0-2.244,0.078-3.289,0.078c-0.34,0-0.521-0.078-0.521-0.261c0-0.132,0.105-0.209,0.418-0.209
		c0.393,0,0.705-0.054,0.939-0.104c0.521-0.104,0.68-0.678,0.756-1.436c0.131-1.096,0.131-3.157,0.131-5.559V22.634H497.917z"/>
	<path fill="#FFFFFF" d="M512.973,28.741c0-3.966,0-4.698-0.053-5.533c-0.051-0.887-0.262-1.304-1.121-1.487
		c-0.209-0.053-0.652-0.079-1.02-0.079c-0.285,0-0.443-0.052-0.443-0.234c0-0.183,0.186-0.235,0.574-0.235
		c0.707,0,1.463,0.026,2.115,0.026c0.678,0.026,1.277,0.052,1.643,0.052c0.836,0,6.029,0,6.525-0.026
		c0.496-0.052,0.912-0.104,1.121-0.156c0.131-0.026,0.287-0.105,0.418-0.105s0.156,0.105,0.156,0.235
		c0,0.183-0.131,0.496-0.211,1.696c-0.023,0.261-0.078,1.409-0.129,1.723c-0.025,0.13-0.08,0.287-0.262,0.287
		s-0.234-0.13-0.234-0.365c0-0.183-0.025-0.626-0.156-0.94c-0.184-0.469-0.443-0.782-1.748-0.939
		c-0.443-0.052-3.184-0.104-3.705-0.104c-0.131,0-0.184,0.078-0.184,0.261v6.602c0,0.183,0.027,0.287,0.184,0.287
		c0.572,0,3.576,0,4.174-0.052c0.629-0.053,1.02-0.13,1.254-0.392c0.184-0.209,0.285-0.339,0.416-0.339
		c0.105,0,0.184,0.052,0.184,0.208c0,0.156-0.104,0.574-0.207,1.906c-0.027,0.521-0.105,1.564-0.105,1.748
		c0,0.209,0,0.496-0.234,0.496c-0.182,0-0.232-0.105-0.232-0.234c-0.027-0.262-0.027-0.602-0.105-0.94
		c-0.131-0.521-0.496-0.912-1.461-1.017c-0.496-0.053-3.08-0.08-3.705-0.08c-0.131,0-0.158,0.105-0.158,0.262v2.062
		c0,0.888-0.023,3.287,0,4.045c0.053,1.801,0.473,2.191,3.133,2.191c0.68,0,1.773,0,2.451-0.312c0.682-0.312,0.992-0.86,1.178-1.932
		c0.051-0.287,0.104-0.392,0.287-0.392c0.207,0,0.207,0.209,0.207,0.47c0,0.602-0.207,2.375-0.338,2.896
		c-0.186,0.679-0.42,0.679-1.412,0.679c-1.955,0-3.393-0.052-4.514-0.078c-1.121-0.053-1.93-0.077-2.713-0.077
		c-0.289,0-0.863,0-1.488,0.024c-0.602,0-1.277,0.053-1.801,0.053c-0.34,0-0.521-0.077-0.521-0.261c0-0.131,0.105-0.209,0.418-0.209
		c0.393,0,0.705-0.053,0.938-0.104c0.523-0.104,0.654-0.679,0.758-1.437c0.131-1.097,0.131-3.157,0.131-5.56v-4.591H512.973z"/>
</g>
</svg>
